<ttFont>
          <CharString index="0">
            491 -54 callgsubr
            -75 callsubr
            27 4 2 18 130 -75 73 -128 -161 -113 -117 -164 -160 106 -109 156 85 68 33 70 58 hvcurveto
            -349 270 rmoveto
            85 17 46 44 71 hhcurveto
            67 43 -40 -61 -24 -6 -4 -54 hvcurveto
            return
          </CharString>
          <CharString index="1">
            529 171 rmoveto
            18 -46 5 -17 -26 vvcurveto
            -31 -22 -12 -71 vhcurveto
            -39 326 39 vlineto
            -69 -22 17 150 -61 hvcurveto
            -227 564 rlineto
            -43 hlineto
            -260 -651 -23 -57 -25 -17 -61 -7 rlinecurve
            -38 243 38 vlineto
            -55 -23 12 37 27 16 55 46 110 hvcurveto
            267 hlineto
            -130 345 rmoveto
            111 -295 rlineto
            -228 hlineto
            return
          </CharString>
          <CharString index="2">
            -99 callsubr
            621 vlineto
            -95 callsubr
            150 -1 39 -37 -80 vvcurveto
            35 273 -35 hlineto
            -81 -45 -34 -144 vhcurveto
            return
          </CharString>
          <CharString index="3">
            rmoveto
            -35 27 -27 35 35 27 27 35 35 -27 27 -35 -35 -27 -27 -35 vhcurveto
            endchar
          </CharString>
          <CharString index="4">
            69 37 26 37 43 vvcurveto
            50 -23 29 -40 -35 -24 -22 -31 -28 18 -19 26 11 9 3 5 6 vhcurveto
            -29 -20 -24 -45 -25 vhcurveto
            endchar
          </CharString>
          <CharString index="5">
            700 600 rmoveto
            -13 44 -8 27 20 vvcurveto
            30 14 10 77 vhcurveto
            39 -306 -39 vlineto
            38 25 -21 -77 36 hvcurveto
            -11 -36 -20 -45 -18 -52 -123 -346 rcurveline
            -152 463 rlineto
            -10 30 -6 23 17 vvcurveto
            34 24 10 68 vhcurveto
            39 -326 -39 vlineto
            81 24 -38 -129 47 hvcurveto
            208 -574 rlineto
            35 hlineto
            213 569 192 -569 rlineto
            35 hlineto
            251 661 rlineto
            57 21 27 24 61 hhcurveto
            38 -243 -38 vlineto
            55 20 -11 -34 -23 -7 -27 -19 -52 hvcurveto
            -156 -434 rlineto
            return
          </CharString>
          <CharString index="6">
            137 65 rlineto
            32 15 19 -61 callgsubr
            -21 -21 -10 -23 -25 vhcurveto
            -130 -119 rlineto
            return
          </CharString>
          <CharString index="7">
            429 hmoveto
            233 163 153 219 230 -175 168 -241 hvcurveto
            -351 -38 hlineto
            -88 callsubr
            -95 -18 -16 -102 -3 vhcurveto
            -38 vlineto
            369 721 rmoveto
            178 110 -130 -221 -210 -102 -111 -181 -101 -48 37 77 hvcurveto
            541 vlineto
            -59 callgsubr
            return
          </CharString>
          <CharString index="8">
            -88 callsubr
            -94 -91 callsubr
            return
          </CharString>
          <CharString index="9">
            425 359 rmoveto
            4 hlineto
            122 -369 rlineto
            37 hlineto
            155 383 rlineto
            104 42 14 18 39 hhcurveto
            35 -200 -35 vlineto
            54 13 -7 -29 -23 -8 -26 -33 -89 hvcurveto
            -60 -162 rlineto
            -4 hlineto
            -133 371 rlineto
            -31 hlineto
            -147 -371 rlineto
            -4 hlineto
            -68 239 rlineto
            -7 26 -4 18 13 vvcurveto
            29 19 11 52 vhcurveto
            35 -265 -35 vlineto
            58 18 -15 -74 23 hvcurveto
            130 -416 rlineto
            37 hlineto
            return
          </CharString>
          <CharString index="10">
            rmoveto
            -91 -56 -75 -69 -48 -32 31 44 59 52 53 153 58 vhcurveto
            -144 -20 rmoveto
            -121 -52 -41 -51 -64 vvcurveto
            -71 52 -47 83 74 65 41 65 35 vhcurveto
            5 hlineto
            return
          </CharString>
          <CharString index="11">
            260 710 rmoveto
            -59 callgsubr
            127 hlineto
            136 51 -27 -106 16 hvcurveto
            35 hlineto
            -9 176 rlineto
            -578 -38 hlineto
            return
          </CharString>
          <CharString index="12">
            15 197 rlineto
            -38 hlineto
            -118 -26 -50 -36 -141 hhcurveto
            -126 -40 27 87 hvcurveto
            226 vlineto
            return
          </CharString>
          <CharString index="13">
            598 vlineto
            124 16 17 94 3 vhcurveto
            38 -269 -38 vlineto
            85 -3 14 -16 -132 vvcurveto
            -394 -4 vlineto
            -437 583 rlineto
            -198 -38 hlineto
            return
          </CharString>
          <CharString index="14">
            54 55 -48 53 hhcurveto
            50 43 51 67 7 hvcurveto
            -33 hlineto
            -31 -10 -12 -11 -25 hhcurveto
            return
          </CharString>
          <CharString index="15">
            rmoveto
            -119 -129 rlineto
            45 hlineto
            119 68 119 -68 rlineto
            45 hlineto
            -119 129 rlineto
            endchar
          </CharString>
          <CharString index="16">
            -81 callgsubr
            -38 return
          </CharString>
          <CharString index="17">
            33 5 -31 37 hhcurveto
            23 17 15 22 37 -31 24 -48 -30 -34 -16 -37 -45 hvcurveto
            34 -37 -55 19 -58 hhcurveto
            -114 -83 -75 -101 -69 44 -66 59 -24 hvcurveto
            -4 vlineto
            -59 -9 -43 -40 -47 vvcurveto
            -55 40 -33 74 -8 vhcurveto
            36 -4 80 -9 63 -9 rrcurveto
            return
          </CharString>
          <CharString index="18">
            -36 29 -29 36 37 29 29 36 37 -29 29 -37 -36 -29 -29 -37 vhcurveto
            return
          </CharString>
          <CharString index="19">
            86 -4 14 -17 -93 vvcurveto
            -28 callgsubr
            return
          </CharString>
          <CharString index="20">
            rmoveto
            -28 -9 -32 -7 -28 -1 rrcurveto
            -20 vlineto
            27 13 -2 -11 2 hvcurveto
            2 -5 0 -22 -31 vvcurveto
            -137 vlineto
            -38 -6 -7 -36 -2 vhcurveto
            -20 128 20 vlineto
            -36 1 -6 8 41 vvcurveto
            return
          </CharString>
          <CharString index="21">
            467 rmoveto
            -355 vlineto
            -78 47 -44 88 68 47 27 49 19 vhcurveto
            -25 19 rlineto
            -33 -22 -22 -13 -33 hhcurveto
            -53 31 callgsubr
            -134 126 -29 vlineto
            return
          </CharString>
          <CharString index="22">
            57 callsubr
            hintmask 10101110
            -83 callgsubr
            hintmask 10011110
            -13 callgsubr
            hintmask 10101110
            -84 callgsubr
            hintmask 01101110
            -172 22 vlineto
            return
          </CharString>
          <CharString index="23">
            rmoveto
            -65 -53 -70 -90 -87 53 -69 65 65 53 69 87 90 -53 70 -65 hvcurveto
            -291 vmoveto
            -39 -22 29 100 105 22 32 39 39 22 -32 -105 -100 -23 -29 -38 hvcurveto
            return
          </CharString>
          <CharString index="24">
            19 15 12 25 32 15 -16 -35 -41 -19 -27 -28 vhcurveto
            3 -8 -10 2 -7 hhcurveto
            -10 -7 -5 -9 -9 7 -7 11 8 11 3 4 8 hvcurveto
            32 19 -24 -43 hvcurveto
            return
          </CharString>
          <CharString index="25">
            13 -3 -16 10 -17 hhcurveto
            -26 -20 -22 -29 -41 40 -30 56 64 47 37 50 40 -32 30 -43 10 hvcurveto
            4 vlineto
            37 8 28 30 36 vvcurveto
            43 -39 28 -61 vhcurveto
            return
          </CharString>
          <CharString index="26">
            40 -20 -8 7 -24 hhcurveto
            -32 -19 -17 -30 -55 60 -38 85 132 73 92 166 hvcurveto
            return
          </CharString>
          <CharString index="27">
            119 129 rlineto
            -45 hlineto
            -119 -68 -119 68 rlineto
            -45 hlineto
            119 -129 rlineto
            endchar
          </CharString>
          <CharString index="28">
            54 49 34 55 42 -29 28 -35 18 hvcurveto
            -41 19 rmoveto
            -36 19 -13 14 25 vvcurveto
            20 18 19 32 34 20 -24 -29 -20 -18 -23 -18 -11 vhcurveto
            return
          </CharString>
          <CharString index="29">
            -51 -51 46 -53 hhcurveto
            -52 -43 -46 -68 -11 hvcurveto
            endchar
          </CharString>
          <CharString index="30">
            515 155 -90 callgsubr
            return
          </CharString>
          <CharString index="31">
            370 38 rmoveto
            -38 621 vlineto
            -95 callsubr
            136 -1 39 -23 14 -94 rrcurveto
            35 273 -35 hlineto
            -93 -9 -51 -22 -129 hhcurveto
            42 callsubr
            46 -27 -106 16 hvcurveto
            35 176 -636 -38 hlineto
            61 22 -7 -18 -7 -3 -7 -4 -9 hvcurveto
            -229 -443 -33 -54 -38 -68 -31 -56 -21 -18 -61 -7 rrcurveto
            -38 242 38 vlineto
            -32 3 -41 -3 40 vvcurveto
            43 47 77 40 77 vhcurveto
            4 9 rlineto
            231 -132 hlineto
            -94 -81 callgsubr
            -97 291 rmoveto
            207 392 rlineto
            -392 vlineto
            return
          </CharString>
          <CharString index="32">
            -107 -70 91 139 18 1 16 3 11 hvcurveto
            329 hlineto
            return
          </CharString>
          <CharString index="33">
            14 -18 -20 7 -23 hhcurveto
            -49 -40 -44 -56 -83 103 -57 149 167 92 61 111 89 -63 64 -96 14 hvcurveto
            -61 9 -40 5 -64 5 rrcurveto
            return
          </CharString>
          <CharString index="34">
            25 -12 -7 7 -14 hhcurveto
            -19 -12 -13 -23 -45 47 -31 68 77 49 39 63 58 -41 28 -83 hvcurveto
            return
          </CharString>
          <CharString index="35">
            476 112 rmoveto
            -49 -50 -49 -21 -55 hhcurveto
            -103 -56 82 152 142 50 75 94 39 21 -11 -31 26 hvcurveto
            return
          </CharString>
          <CharString index="36">
            -20 hstem
            47 113 332 113 vstem
            324 55 callgsubr
            -86 35 -72 54 -50 hvcurveto
            -96 -122 rlineto
            68 hlineto
            71 90 rlineto
            -25 43 49 -14 53 hhcurveto
            152 129 117 162 78 -32 67 -51 48 hvcurveto
            103 130 rlineto
            -69 hlineto
            -77 -97 rlineto
            29 -45 -53 16 -57 hhcurveto
            -48 vmoveto
            45 39 -19 -32 28 hvcurveto
            -247 -313 rlineto
            -19 37 -10 47 56 vvcurveto
            134 65 90 99 vhcurveto
            168 -224 rmoveto
            -137 -66 -90 -102 -41 -35 14 27 -27 vhcurveto
            246 311 rlineto
            16 -35 9 -42 -48 vvcurveto
            return
          </CharString>
          <CharString index="37">
            -46 3 -25 9 21 vvcurveto
            28 28 8 81 6 vhcurveto
            140 10 72 68 112 vvcurveto
            39 -7 28 -17 26 vhcurveto
            11 16 17 6 16 hhcurveto
            return
          </CharString>
          <CharString index="38">
            rmoveto
            -64 -114 -11 -18 -14 vvcurveto
            -13 9 -9 14 16 13 16 42 16 vhcurveto
            34 89 9 29 59 128 rrcurveto
            8 -122 vlineto
            -26 -5 2 10 3 1 7 1 2 hvcurveto
            -21 hlineto
            -28 -112 rlineto
            20 hlineto
            6 16 rlineto
            29 11 6 3 42 hhcurveto
            74 hlineto
            endchar
          </CharString>
          <CharString index="39">
            -49 -40 24 37 -12 hvcurveto
            -36 hlineto
            -75 3 58 -55 77 hhcurveto
            75 58 54 76 5 hvcurveto
            endchar
          </CharString>
          <CharString index="40">
            52 17 13 13 46 hhcurveto
            71 33 -39 -83 hvcurveto
            -41 vlineto
            return
          </CharString>
          <CharString index="41">
            770 rmoveto
            -48 hlineto
            -553 -770 rlineto
            57 hlineto
            return
          </CharString>
          <CharString index="42">
            -124 -91 callsubr
            return
          </CharString>
          <CharString index="43">
            3 -5 rlineto
            1 10 15 1 10 hhcurveto
            51 28 -19 -35 -30 -21 -20 -29 -22 -11 9 28 -12 hvcurveto
            return
          </CharString>
          <CharString index="44">
            rmoveto
            -28 24 -24 28 31 24 24 28 31 -24 24 -31 -28 -24 -24 -31 vhcurveto
            endchar
          </CharString>
          <CharString index="45">
            -20 -18 3 4 -9 hvcurveto
            -42 -158 rlineto
            -1 -3 -1 -6 -2 vvcurveto
            -5 3 -2 6 7 4 3 8 4 vhcurveto
            25 14 13 10 21 hhcurveto
            29 13 -20 -43 -61 -27 -39 -44 -18 -9 6 17 -7 hvcurveto
            28 -12 -5 4 -11 hhcurveto
            return
          </CharString>
          <CharString index="46">
            -44 callsubr
            -6 9 110 vvcurveto
            return
          </CharString>
          <CharString index="47">
            43 340 40 115 -20 209 43 return
          </CharString>
          <CharString index="48">
            rmoveto
            91 67 28 42 68 vvcurveto
            61 -25 33 -46 -41 -27 -25 -36 -32 21 -23 31 vhcurveto
            return
          </CharString>
          <CharString index="49">
            228 540 rmoveto
            -196 -38 rlineto
            -37 58 callsubr
            return
          </CharString>
          <CharString index="50">
            -51 -34 -22 -34 -24 17 -19 23 16 15 9 11 2 hvcurveto
            -17 -11 11 15 hvcurveto
            return
          </CharString>
          <CharString index="51">
            228 540 rmoveto
            -196 -38 rlineto
            -35 -25 callgsubr
            -31 6 hvcurveto
            5 -18 2 -52 -77 vvcurveto
            -128 vlineto
            -94 -15 -19 -81 -4 vhcurveto
            -35 287 35 vlineto
            -79 3 -14 18 103 vvcurveto
            return
          </CharString>
          <CharString index="52">
            rmoveto
            -57 -38 58 88 87 37 55 57 57 33 -53 -90 -91 -33 -54 -56 hvcurveto
            -55 -117 rmoveto
            return
          </CharString>
          <CharString index="53">
            49 -7 42 -38 -53 vvcurveto
            -70 -57 -35 -114 -106 -61 34 58 40 25 35 36 8 vhcurveto
            return
          </CharString>
          <CharString index="54">
            rmoveto
            56 -43 43 -57 -27 -21 -11 -25 -17 vhcurveto
            -4 1 rlineto
            69 30 52 34 vhcurveto
            hintmask 11100100
            44 -14 -39 34 hhcurveto
            13 9 8 13 23 -33 18 -42 -69 -57 -80 -97 -82 44 -57 65 hvcurveto
            hintmask 11101010
            61 50 48 60 hvcurveto
            -165 29 rmoveto
            32 17 18 14 24 hhcurveto
            33 18 -27 -50 -57 -18 -26 -37 -36 -19 32 62 hvcurveto
            endchar
          </CharString>
          <CharString index="55">
            rmoveto
            -37 28 -28 37 37 28 28 37 37 -28 28 -37 -37 -28 -28 -37 vhcurveto
            31 hmoveto
            19 14 14 20 19 14 -14 -19 -20 -14 -14 -19 -20 -14 14 20 vhcurveto
            endchar
          </CharString>
          <CharString index="56">
            121 13 27 86 3 vhcurveto
            38 return
          </CharString>
          <CharString index="57">
            658 577 rmoveto
            121 -106 72 -183 vhcurveto
            -314 -38 hlineto
            return
          </CharString>
          <CharString index="58">
            428 -10 rmoveto
            71 63 18 26 46 hvcurveto
            43 76 26 6 51 hhcurveto
            112 vlineto
            return
          </CharString>
          <CharString index="59">
            40 17 29 21 40 hhcurveto
            25 18 -5 -28 33 hvcurveto
            15 -13 18 -15 17 -11 rrcurveto
            -156 vlineto
            endchar
          </CharString>
          <CharString index="60">
            rmoveto
            120 28 rlineto
            -8 callsubr
            return
          </CharString>
          <CharString index="61">
            306 161 47 -161 78 vlineto
            return
          </CharString>
          <CharString index="62">
            -27 -260 44 -44 240 193 42 227 98 -67 67 -37 37 return
          </CharString>
          <CharString index="63">
            -39 callsubr
            -76 5 return
          </CharString>
          <CharString index="64">
            11 -120 165 12 rlineto
            return
          </CharString>
          <CharString index="65">
            146 0 -29 callgsubr
            return
          </CharString>
          <CharString index="66">
            rmoveto
            50 -270 -50 vlineto
            endchar
          </CharString>
          <CharString index="67">
            -43 -20 -23 -36 -28 -20 17 24 20 15 14 20 vhcurveto
            return
          </CharString>
          <CharString index="68">
            vhcurveto
            -35 266 35 vlineto
            return
          </CharString>
          <CharString index="69">
            hstem
            -77 callsubr
            return
          </CharString>
          <CharString index="70">
            -10 -7 -7 -16 -33 32 -22 48 71 54 49 64 59 -37 36 -54 -17 -14 -4 -7 -9 hvcurveto
            -3 2 rlineto
            endchar
          </CharString>
          <CharString index="71">
            -80 40 76 -48 98 hhcurveto
            81 68 34 69 59 hvcurveto
            -453 104 rmoveto
            -80 -57 -66 -68 -47 -33 31 44 60 61 47 144 53 vhcurveto
            124 77 rmoveto
            88 16 37 41 64 hhcurveto
            64 43 -41 -61 -24 -7 -3 -53 hvcurveto
            return
          </CharString>
          <CharString index="72">
            -29 callsubr
            105 return
          </CharString>
          <CharString index="73">
            101 13 17 86 3 vhcurveto
            38 vlineto
            return
          </CharString>
          <CharString index="74">
            -23 rlineto
            14 -25 -38 9 -46 hhcurveto
            return
          </CharString>
          <CharString index="75">
            108 -27 callsubr
            return
          </CharString>
          <CharString index="76">
            116 46 -32 -116 9 hvcurveto
            41 hlineto
            return
          </CharString>
          <CharString index="77">
            320 -10 55 680 55 return
          </CharString>
          <CharString index="78">
            38 -47 callgsubr
            -105 return
          </CharString>
          <CharString index="79">
            -34 callsubr
            hintmask 1111100100000000
            -20 callsubr
            return
          </CharString>
          <CharString index="80">
            780 -84 callsubr
            return
          </CharString>
          <CharString index="81">
            10 76 22 107 33 vvcurveto
            29 -20 21 -27 -27 -20 -21 -28 -32 23 -109 10 -76 vhcurveto
            return
          </CharString>
          <CharString index="82">
            -230 124 return
          </CharString>
          <CharString index="83">
            rmoveto
            -49 37 -37 49 51 37 37 49 51 -37 37 -51 -49 -37 -37 -51 vhcurveto
            39 hmoveto
            26 20 19 27 26 19 -19 -26 -27 -19 -20 -26 -27 -20 20 27 vhcurveto
            endchar
          </CharString>
          <CharString index="84">
            -21 31 18 -21 callsubr
            37 -66 26 -94 return
          </CharString>
          <CharString index="85">
            -7 callsubr
            112 35 41 return
          </CharString>
          <CharString index="86">
            -9 16 hhcurveto
            25 19 20 27 return
          </CharString>
          <CharString index="87">
            -19 callsubr
            hlineto
            return
          </CharString>
          <CharString index="88">
            -304 -38 return
          </CharString>
          <CharString index="89">
            5 callgsubr
            14 -6 -28 33 hvcurveto
            return
          </CharString>
          <CharString index="90">
            hvcurveto
            -198 224 144 128 rlineto
            return
          </CharString>
          <CharString index="91">
            -79 48 -43 86 68 48 27 49 19 vhcurveto
            -25 19 rlineto
            -33 -22 -22 -13 -34 hhcurveto
            -52 31 callgsubr
            vlineto
            endchar
          </CharString>
          <CharString index="92">
            -101 -9 -13 -67 -4 21 callsubr
            -76 2 -18 25 99 vvcurveto
            return
          </CharString>
          <CharString index="93">
            hstemhm
            59 callgsubr
            return
          </CharString>
          <CharString index="94">
            -10 -21 499 41 -10 -20 return
          </CharString>
          <CharString index="95">
            rmoveto
            -7 1 -7 1 -7 vhcurveto
            -60 -56 rlineto
            54 hlineto
            32 15 rlineto
            -11 14 17 -6 20 hhcurveto
            46 34 35 44 5 -1 6 -1 5 hvcurveto
            return
          </CharString>
          <CharString index="96">
            rmoveto
            19 20 -98 138 99 138 -20 21 -170 -159 rlineto
            return
          </CharString>
          <CharString index="97">
            hstemhm
            32 89 -47 74 -74 105 184 106 -106 246 -150 84 return
          </CharString>
          <CharString index="98">
            -90 -10 52 368 130 -47 47 return
          </CharString>
          <CharString index="99">
            45 10 30 16 21 vvcurveto
            return
          </CharString>
          <CharString index="100">
            -260 43 -43 return
          </CharString>
          <CharString index="101">
            114 hmoveto
            -89 hlineto
            85 130 rlineto
            4 hlineto
            return
          </CharString>
          <CharString index="102">
            38 19 -10 -18 -10 -7 -13 -13 -16 hvcurveto
            -250 -301 rlineto
            247 vlineto
            106 19 15 80 vhcurveto
            38 -19 callsubr
            vlineto
            return
          </CharString>
          <CharString index="103">
            226 rlineto
            -108 -20 hlineto
            32 8 -12 -46 hvcurveto
            -152 vlineto
            -50 -6 -8 -38 vhcurveto
            -20 117 20 vlineto
            -38 -6 return
          </CharString>
          <CharString index="104">
            205 -105 105 -105 204 return
          </CharString>
          <CharString index="105">
            rmoveto
            40 -23 10 -16 -25 vvcurveto
            return
          </CharString>
          <CharString index="106">
            13 -239 -21 755 35 return
          </CharString>
          <CharString index="107">
            -37 56 -18 53 99 vvcurveto
            -8 89 28 -32 46 hhcurveto
            35 27 27 35 35 -27 27 -35 -46 -27 -32 -9 -90 hvcurveto
            return
          </CharString>
          <CharString index="108">
            24 -24 122 28 25 42 99 -22 22 return
          </CharString>
          <CharString index="109">
            79 21 -12 -102 hvcurveto
            -28 callgsubr
            -94 -17 -20 -93 vhcurveto
            -38 324 38 vlineto
            -92 -17 19 102 hvcurveto
            return
          </CharString>
          <CharString index="110">
            rmoveto
            10 56 22 90 23 vvcurveto
            29 -20 21 -27 -27 -20 -21 -28 -23 23 -91 10 -56 vhcurveto
            endchar
          </CharString>
          <CharString index="111">
            48 callgsubr
            -10 -17 -76 52 callgsubr
            return
          </CharString>
          <CharString index="112">
            -115 584 rmoveto
            -35 27 -27 35 35 27 27 35 35 -27 27 -35 -35 -27 -27 -35 vhcurveto
            return
          </CharString>
          <CharString index="113">
            -11 -11 -3 -5 -8 hvcurveto
            51 24 39 61 46 vhcurveto
            return
          </CharString>
          <CharString index="114">
            -7 callgsubr
            479 60 return
          </CharString>
          <CharString index="115">
            67 4 36 12 26 vhcurveto
            return
          </CharString>
          <CharString index="116">
            hstemhm
            104 98 261 98 return
          </CharString>
          <CharString index="117">
            vlineto
            hintmask 11100000
            -58 callgsubr
            return
          </CharString>
          <CharString index="118">
            64 callgsubr
            -99 -14 -19 -62 21 callsubr
            return
          </CharString>
          <CharString index="119">
            23 -23 62 47 24 160 23 hstemhm
            35 55 -36 201 -55 55 hintmask 10111010
            35 return
          </CharString>
          <CharString index="120">
            55 -76 callgsubr
            return
          </CharString>
          <CharString index="121">
            rmoveto
            -107 -31 -62 -54 20 callsubr
            return
          </CharString>
          <CharString index="122">
            550 11 -21 741 39 return
          </CharString>
          <CharString index="123">
            475 -626 rlineto
            return
          </CharString>
          <CharString index="124">
            -48 -6 -10 -38 vhcurveto
            -20 135 20 vlineto
            -38 -6 9 52 hvcurveto
            146 vlineto
            return
          </CharString>
          <CharString index="125">
            -163 248 83 hstem
            386 248 rmoveto
            83 -309 -83 vlineto
            endchar
          </CharString>
          <CharString index="126">
            38 vlineto
            8 callsubr
            return
          </CharString>
          <CharString index="127">
            -26 -13 12 43 -23 vhcurveto
            return
          </CharString>
          <CharString index="128">
            vhcurveto
            -35 264 35 vlineto
            return
          </CharString>
          <CharString index="129">
            38 -27 -21 742 38 return
          </CharString>
          <CharString index="130">
            -52 -77 vvcurveto
            -348 vlineto
            -111 -22 -43 callgsubr
            return
          </CharString>
          <CharString index="131">
            25 17 17 25 25 17 -17 -25 -24 -17 -17 -25 -25 -17 17 24 vhcurveto
            return
          </CharString>
          <CharString index="132">
            -10 62 callgsubr
            return
          </CharString>
          <CharString index="133">
            113 -262 rlineto
            8 hlineto
            117 262 rlineto
            4 -180 hlineto
            return
          </CharString>
          <CharString index="134">
            -10 24 -24 122 -91 -21 140 25 42 99 -22 22 162 return
          </CharString>
          <CharString index="135">
            27 15 16 17 18 vvcurveto
            16 -12 10 -17 -16 -14 -6 -17 -17 vhcurveto
            return
          </CharString>
          <CharString index="136">
            40 17 26 21 49 hhcurveto
            36 27 -11 -41 47 hvcurveto
            22 -19 rlineto
            return
          </CharString>
          <CharString index="137">
            126 -2 callsubr
            return
          </CharString>
          <CharString index="138">
            5 -24 2 -45 -78 vvcurveto
            -419 vlineto
            return
          </CharString>
          <CharString index="139">
            35 397 108 -83 83 return
          </CharString>
          <CharString index="140">
            -10 23 8 -21 283 23 return
          </CharString>
          <CharString index="141">
            125 -21 317 -20 hstem
            return
          </CharString>
          <CharString index="142">
            0 22 callsubr
            return
          </CharString>
          <CharString index="143">
            -24 callgsubr
            402 60 return
          </CharString>
          <CharString index="144">
            151 37 39 65 25 return
          </CharString>
          <CharString index="145">
            145 48 callsubr
            return
          </CharString>
          <CharString index="146">
            94 66 -95 -136 7 callgsubr
            return
          </CharString>
          <CharString index="147">
            rmoveto
            -468 -50 468 hlineto
            endchar
          </CharString>
          <CharString index="148">
            16 132 vvcurveto
            return
          </CharString>
          <CharString index="149">
            287 vlineto
            -59 callgsubr
            127 hlineto
            136 return
          </CharString>
          <CharString index="150">
            25 266 25 hstem
            37 57 122 57 vstem
            155 return
          </CharString>
          <CharString index="151">
            8 -12 -16 5 -17 hhcurveto
            -45 -34 -34 -48 hvcurveto
            37 hmoveto
            return
          </CharString>
          <CharString index="152">
            36 25 18 30 6 hvcurveto
            -4 hlineto
            return
          </CharString>
          <CharString index="153">
            -20 hstemhm
            48 113 return
          </CharString>
          <CharString index="154">
            hstemhm
            43 101 205 return
          </CharString>
          <CharString index="155">
            -43 14 callsubr
            return
          </CharString>
          <CharString index="156">
            5 121 37 30 55 vvcurveto
            35 -27 27 -35 vhcurveto
            return
          </CharString>
          <CharString index="157">
            5 -18 2 -51 -77 vvcurveto
            return
          </CharString>
          <CharString index="158">
            -69 0 46 442 42 return
          </CharString>
          <CharString index="159">
            -21 155 116 hstemhm
            return
          </CharString>
          <CharString index="160">
            hstemhm
            60 134 return
          </CharString>
          <CharString index="161">
            606 -10 48 -17 -21 492 48 -10 -20 return
          </CharString>
          <CharString index="162">
            32 callsubr
            hstemhm
            36 186 return
          </CharString>
          <CharString index="163">
            41 -13 callsubr
            hstemhm
            67 82 return
          </CharString>
          <CharString index="164">
            -20 hstemhm
            67 82 169 89 return
          </CharString>
          <CharString index="165">
            -25 callgsubr
            -32 6 hvcurveto
            return
          </CharString>
          <CharString index="166">
            158 61 callgsubr
            return
          </CharString>
          <CharString index="167">
            -94 3 -15 41 callsubr
            return
          </CharString>
          <CharString index="168">
            48 hstemhm
            135 94 return
          </CharString>
          <CharString index="169">
            34 452 54 return
          </CharString>
          <CharString index="170">
            -149 0 32 callsubr
            return
          </CharString>
          <CharString index="171">
            20 292 -20 hstem
            103 44 vstem
            147 return
          </CharString>
          <CharString index="172">
            30 19 16 26 return
          </CharString>
          <CharString index="173">
            -91 -153 hvcurveto
            return
          </CharString>
        <CharString name=".notdef">
          130 -260 61 1110 59 hstem
          130 110 275 111 vstem
          130 -260 rmoveto
          496 1230 -496 hlineto
          110 -59 rmoveto
          275 -1110 -275 hlineto
          endchar
        </CharString>
        <CharString name="A">
          -42 callsubr
          hstem
          -106 callsubr
          endchar
        </CharString>
        <CharString name="AE">
          30 callgsubr
          hstem
          480 105 vstem
          -76 callsubr
          endchar
        </CharString>
        <CharString name="AEacute">
          30 callgsubr
          -43 233 hstemhm
          hintmask 11111000
          -76 callsubr
          52 521 -47 callsubr
          hintmask 11110100
          -86 callgsubr
        </CharString>
        <CharString name="Aacute">
          -42 callsubr
          210 -20 hstem
          -106 callsubr
          102 521 -47 callsubr
          -86 callgsubr
        </CharString>
        <CharString name="Abreve">
          -42 callsubr
          95 69 -69 115 hstemhm
          hintmask 11101000
          -106 callsubr
          243 631 rmoveto
          hintmask 11110000
          9 callgsubr
          hintmask 11101000
          -68 callgsubr
        </CharString>
        <CharString name="Acircumflex">
          -42 callsubr
          210 -20 hstem
          -106 callsubr
          87 631 -92 callgsubr
        </CharString>
        <CharString name="Adieresis">
          -42 callsubr
          109 101 hstem
          343 81 vstem
          -106 callsubr
          1 581 -93 callgsubr
        </CharString>
        <CharString name="Agrave">
          -42 callsubr
          210 -20 hstem
          -106 callsubr
          248 521 rmoveto
          -130 77 rlineto
          -78 callgsubr
        </CharString>
        <CharString name="Amacron">
          -42 callsubr
          130 50 hstem
          -106 callsubr
          277 551 -41 callsubr
        </CharString>
        <CharString name="Aogonek">
          146 -234 60 174 -29 callgsubr
          hstem
          483 79 vstem
          708 -66 callgsubr
          39 44 52 65 35 hvcurveto
          114 39 hlineto
          -69 -22 17 150 -61 hvcurveto
          -227 564 rlineto
          -43 hlineto
          -260 -651 -23 -57 -25 -17 -61 -7 rlinecurve
          -38 243 38 vlineto
          -55 -23 12 37 27 16 55 46 110 hvcurveto
          267 hlineto
          41 -108 rlineto
          18 -46 5 -17 -26 vvcurveto
          -31 -22 -12 -71 vhcurveto
          -39 147 vlineto
          -78 -37 -45 -55 -57 -57 callgsubr
          -379 776 rmoveto
          111 -295 rlineto
          -228 hlineto
          endchar
        </CharString>
        <CharString name="Aring">
          -42 callsubr
          80 31 67 32 hstem
          349 67 vstem
          -106 callsubr
          77 566 -52 callsubr
        </CharString>
        <CharString name="Aringacute">
          149 0 39 240 50 470 38 83 50 hstem
          337 84 vstem
          530 171 rmoveto
          15 -35 8 -27 -21 vvcurveto
          -35 -26 -14 -67 vhcurveto
          -39 326 39 vlineto
          -58 -34 27 76 -33 hvcurveto
          -254 578 rlineto
          -43 hlineto
          -260 -601 rlineto
          -56 -24 -29 -25 -56 hhcurveto
          -38 243 38 vlineto
          -54 -25 14 37 21 5 20 17 43 hvcurveto
          42 106 rlineto
          261 hlineto
          -125 315 rmoveto
          104 -265 rlineto
          -217 hlineto
          54 549 -12 callsubr
          28 callsubr
          44 callsubr
          24 callsubr
          endchar
        </CharString>
        <CharString name="Atilde">
          -42 callsubr
          88 37 callgsubr
          hintmask 11101000
          -106 callsubr
          5 517 -53 callgsubr
          hintmask 11110000
          -93 callsubr
          hintmask 11100100
          -78 callsubr
        </CharString>
        <CharString name="B">
          141 0 43 337 50 302 38 hstemhm
          158 105 253 126 -60 135 hintmask 11110100
          398 hmoveto
          116 46 7 23 45 hvcurveto
          70 35 42 65 70 vvcurveto
          62 -31 55 -58 41 vhcurveto
          -41 28 -36 11 -82 9 rrcurveto
          4 vlineto
          hintmask 11111000
          119 36 54 54 87 vvcurveto
          115 -106 68 -179 vhcurveto
          -299 -38 hlineto
          -88 callsubr
          -94 -17 -17 -103 -3 vhcurveto
          -38 vlineto
          363 43 rmoveto
          -98 -40 33 81 hvcurveto
          223 45 vlineto
          108 31 -4 -20 42 hvcurveto
          hintmask 11110100
          62 -30 31 -53 -75 vvcurveto
          -104 -60 -51 -121 vhcurveto
          -138 387 rmoveto
          276 vlineto
          -59 callgsubr
          77 hlineto
          hintmask 11111000
          109 50 -43 -105 -60 -17 -35 -42 -26 hvcurveto
          -20 -33 -22 -4 -83 hhcurveto
          endchar
        </CharString>
        <CharString name="C">
          176 -10 54 19 callgsubr
          -10 -20 53 callsubr
          hintmask 10110100
          671 708 rmoveto
          -72 callgsubr
          146 -149 226 99 84 29 60 71 hvcurveto
          hintmask 01110100
          -14 callgsubr
          hintmask 10110100
          -77 callgsubr
          hintmask 10101100
          -9 230 rlineto
          -28 hlineto
          endchar
        </CharString>
        <CharString name="CR">
          -293 endchar
        </CharString>
        <CharString name="Cacute">
          -89 callgsubr
          -281 80 -47 callsubr
          hintmask 10101010
          -86 callgsubr
        </CharString>
        <CharString name="Ccaron">
          -89 callgsubr
          -186 81 rmoveto
          hintmask 10101010
          -87 callgsubr
        </CharString>
        <CharString name="Ccedilla">
          176 -22 callsubr
          63 53 19 callgsubr
          -10 -20 53 callsubr
          117 241 -82 82 hintmask 1011011010100000
          671 708 rmoveto
          51 -82 -66 21 -80 hhcurveto
          -227 -156 -166 -242 -221 131 -146 206 -14 hvcurveto
          -44 -101 -64 callsubr
          hintmask 0111011011000000
          -73 callsubr
          23 63 90 3 78 29 67 56 rlinecurve
          hintmask 1010111011000000
          -14 callgsubr
          hintmask 1011011011000000
          -77 callgsubr
          hintmask 1011010111000000
          -9 230 rlineto
          -28 hlineto
          endchar
        </CharString>
        <CharString name="Ccircumflex">
          -89 callgsubr
          hintmask 10101010
          -296 190 -92 callgsubr
        </CharString>
        <CharString name="Cdotaccent">
          176 -10 54 19 callgsubr
          -10 -20 102 107 53 callsubr
          202 107 hintmask 10110111
          671 708 rmoveto
          -72 callgsubr
          146 -149 226 99 84 29 60 71 hvcurveto
          hintmask 01110111
          -14 callgsubr
          hintmask 10110111
          -77 callgsubr
          hintmask 10101111
          -9 230 rlineto
          -28 hlineto
          -293 134 -63 callsubr
        </CharString>
        <CharString name="D">
          258 0 49 672 49 hstem
          59 callsubr
          vstem
          -100 callsubr
          endchar
        </CharString>
        <CharString name="Dcaron">
          258 0 49 672 49 -49 239 hstemhm
          59 callsubr
          hintmask 11011000
          -100 callsubr
          218 130 rmoveto
          hintmask 10111000
          -87 callgsubr
        </CharString>
        <CharString name="Dcroat">
          -65 callgsubr
        </CharString>
        <CharString name="Ddotbelow">
          258 -25 callsubr
          106 49 672 49 hstem
          158 105 116 124 192 130 vstem
          -100 callsubr
          99 -889 -104 callsubr
        </CharString>
        <CharString name="E">
          100 0 39 callgsubr
          189 35 vstemhm
          -96 callsubr
          hintmask 11111100
          -105 callsubr
          endchar
        </CharString>
        <CharString name="Eacute">
          100 0 -60 callsubr
          -43 233 -2 callgsubr
          hintmask 11110110
          -96 callsubr
          hintmask 11101110
          -105 callsubr
          79 427 -47 callsubr
          -86 callgsubr
        </CharString>
        <CharString name="Ebreve">
          100 0 -60 callsubr
          75 69 -69 115 -2 callgsubr
          hintmask 11111011
          -96 callsubr
          hintmask 11110111
          -105 callsubr
          220 537 rmoveto
          hintmask 11111011
          9 callgsubr
          hintmask 11110111
          -68 callgsubr
        </CharString>
        <CharString name="Ecaron">
          100 0 -60 callsubr
          -43 233 -2 callgsubr
          hintmask 11110110
          -96 callsubr
          hintmask 11101110
          -105 callsubr
          174 428 rmoveto
          -87 callgsubr
        </CharString>
        <CharString name="Ecircumflex">
          100 0 -60 callsubr
          -43 233 -2 callgsubr
          hintmask 11110110
          -96 callsubr
          hintmask 11101110
          -105 callsubr
          64 537 -92 callgsubr
        </CharString>
        <CharString name="Edieresis">
          100 0 -60 callsubr
          89 101 -47 callgsubr
          -36 101 81 101 -58 35 hintmask 1111110100000000
          -96 callsubr
          hintmask 1111110010000000
          -105 callsubr
          hintmask 1111101100000000
          -36 487 -93 callgsubr
        </CharString>
        <CharString name="Edotaccent">
          100 0 -60 callsubr
          82 107 -47 callgsubr
          46 107 36 35 vstemhm
          -96 callsubr
          hintmask 11111111
          -105 callsubr
          46 481 -63 callsubr
        </CharString>
        <CharString name="Edotbelow">
          100 -25 callsubr
          106 39 callgsubr
          57 124 8 35 vstemhm
          -96 callsubr
          hintmask 11111111
          -105 callsubr
          57 -591 -104 callsubr
        </CharString>
        <CharString name="Egrave">
          100 0 -60 callsubr
          -43 233 -2 callgsubr
          hintmask 11110110
          -96 callsubr
          hintmask 11101110
          -105 callsubr
          225 427 rmoveto
          -130 77 rlineto
          -78 callgsubr
        </CharString>
        <CharString name="Emacron">
          100 0 -60 callsubr
          110 50 -2 callgsubr
          vstemhm
          -96 callsubr
          hintmask 11111110
          -105 callsubr
          254 457 -41 callsubr
        </CharString>
        <CharString name="Eng">
          276 21 callgsubr
          110 41 callgsubr
          7 callsubr
          hintmask 10111010
          694 -43 rmoveto
          -107 -48 -62 -82 20 callsubr
          hintmask 01111010
          37 -20 -12 10 -25 hhcurveto
          -32 -19 -19 -34 -58 61 -39 91 133 75 88 162 hvcurveto
          -94 callsubr
          hintmask 10110110
          86 -4 14 -27 -113 vvcurveto
          -406 vlineto
          -65 callsubr
          269 38 vlineto
          -85 3 -14 41 callsubr
          427 4 vlineto
          16 callsubr
          endchar
        </CharString>
        <CharString name="Eogonek">
          100 -234 60 174 39 callgsubr
          -105 105 -31 31 -31 79 141 35 hintmask 1111100011000000
          454 -66 callgsubr
          39 44 52 65 35 hvcurveto
          249 hlineto
          15 197 rlineto
          -38 hlineto
          -118 -26 -50 -36 -141 hhcurveto
          hintmask 1111110001000000
          -126 -40 27 87 hvcurveto
          226 vlineto
          150 -1 39 -37 -80 vvcurveto
          35 273 -35 hlineto
          -81 -45 -34 -144 vhcurveto
          42 callsubr
          51 -27 -106 16 hvcurveto
          35 hlineto
          -9 176 rlineto
          -578 -38 hlineto
          hintmask 1111101001000000
          -99 callsubr
          307 vlineto
          hintmask 1111100101000000
          -78 -37 -45 -55 -57 -57 callgsubr
          endchar
        </CharString>
        <CharString name="Eth">
          -65 callgsubr
        </CharString>
        <CharString name="Etilde">
          100 0 -60 callsubr
          68 76 -28 28 -28 74 -2 callgsubr
          hintmask 1111100110000000
          -96 callsubr
          hintmask 1111010110000000
          -105 callsubr
          -18 423 -53 callgsubr
          hintmask 1111100110000000
          -93 callsubr
          hintmask 1111001110000000
          -78 callsubr
        </CharString>
        <CharString name="Euro">
          91 -10 48 -17 -21 300 58 72 58 244 48 -10 -20 hstemhm
          hintmask 10111000
          488 358 rmoveto
          -235 hlineto
          -1 9 0 10 10 vvcurveto
          14 1 15 1 14 vhcurveto
          234 58 -231 hlineto
          162 19 64 82 98 hhcurveto
          75 51 -63 -115 22 hvcurveto
          43 hlineto
          hintmask 10110100
          216 -28 vlineto
          -17 -51 rlineto
          hintmask 10111000
          50 -56 -33 11 -61 hhcurveto
          -153 -115 -105 -187 -34 hvcurveto
          -90 -58 84 hlineto
          -2 -14 -1 -14 -14 vvcurveto
          -10 0 -10 1 -10 vhcurveto
          -81 -58 86 hlineto
          -190 29 114 -120 151 hhcurveto
          71 59 26 53 45 hvcurveto
          hintmask 01111000
          12 -69 rlineto
          34 252 -43 hlineto
          hintmask 10111000
          -128 -11 -68 -86 -91 hhcurveto
          -104 -72 107 155 hvcurveto
          233 hlineto
          endchar
        </CharString>
        <CharString name="F">
          44 0 38 325 40 319 48 -47 callgsubr
          vstemhm
          260 363 rmoveto
          136 -1 39 -25 14 -102 rrcurveto
          35 293 -35 hlineto
          -101 -9 -51 -24 -129 hhcurveto
          302 vlineto
          -59 callgsubr
          127 hlineto
          143 45 -29 -114 17 hvcurveto
          35 hlineto
          -11 191 rlineto
          -578 -38 hlineto
          hintmask 11110000
          -99 callsubr
          354 38 vlineto
          -121 3 -18 16 102 vvcurveto
          endchar
        </CharString>
        <CharString name="G">
          244 -10 -31 callgsubr
          -10 -20 53 callsubr
          465 61 -61 102 hintmask 1101101010000000
          -49 callsubr
          hintmask 1011101100000000
          -79 callgsubr
          hintmask 1101011100000000
          -8 callgsubr
          hintmask 1101101100000000
          -72 callgsubr
          142 -149 226 hvcurveto
          endchar
        </CharString>
        <CharString name="Gbreve">
          244 -10 -31 callgsubr
          -10 -20 95 69 -69 115 53 callsubr
          465 61 -61 102 hintmask 1101101010100000
          -49 callsubr
          hintmask 1011101011000000
          -79 callgsubr
          hintmask 1101011011000000
          -8 callgsubr
          hintmask 1101100111000000
          -72 callgsubr
          142 -149 226 hvcurveto
          119 970 rmoveto
          hintmask 1101101011000000
          9 callgsubr
          hintmask 1101100111000000
          -68 callgsubr
        </CharString>
        <CharString name="Gcircumflex">
          244 -10 -31 callgsubr
          -52 232 -190 -20 53 callsubr
          465 61 -61 102 hintmask 1101100101000000
          -49 callsubr
          hintmask 1011100110000000
          -79 callgsubr
          hintmask 1101001110000000
          -8 callgsubr
          hintmask 1101100110000000
          -72 callgsubr
          142 -149 226 hvcurveto
          hintmask 1101010110000000
          -37 970 -92 callgsubr
        </CharString>
        <CharString name="Gcommaaccent">
          244 -19 callgsubr
          44 -31 callgsubr
          -10 -20 53 callsubr
          176 122 167 61 -61 102 hintmask 1111011011010000
          -49 callsubr
          hintmask 1110111011100000
          -79 callgsubr
          hintmask 1111010111100000
          -8 callgsubr
          hintmask 1111011011100000
          -72 callgsubr
          142 -149 226 hvcurveto
          -31 -240 rmoveto
          -103 callsubr
        </CharString>
        <CharString name="Gdotaccent">
          244 -10 -31 callgsubr
          -10 -20 102 107 53 callsubr
          200 107 158 61 -61 102 hintmask 1101101110100000
          -49 callsubr
          hintmask 1011101111000000
          -79 callgsubr
          hintmask 1101011111000000
          -8 callgsubr
          hintmask 1101101111000000
          -72 callgsubr
          142 -149 226 hvcurveto
          -34 914 -63 callsubr
        </CharString>
        <CharString name="H">
          299 0 38 331 50 313 38 hstemhm
          55 -10 callgsubr
          hintmask 1111001000000000
          770 611 rmoveto
          hintmask 1111000010000000
          -34 callsubr
          hintmask 1111001000000000
          -20 callsubr
          hintmask 1111000100000000
          45 callgsubr
          hintmask 1110011000000000
          -34 callsubr
          hintmask 1111001000000000
          -20 callsubr
          hintmask 1110101000000000
          -99 callsubr
          324 38 vlineto
          66 callgsubr
          102 vvcurveto
          210 405 -217 vlineto
          -94 -91 callsubr
          324 38 vlineto
          66 callgsubr
          102 vvcurveto
          endchar
        </CharString>
        <CharString name="Hbar">
          301 0 38 331 50 122 50 141 38 hstemhm
          56 -10 callgsubr
          hintmask 1111100100000000
          771 611 rmoveto
          hintmask 1111100001000000
          -28 callsubr
          hintmask 1111100010000000
          86 -4 14 -17 -93 vvcurveto
          -27 -405 20 vlineto
          hintmask 1111001100000000
          -28 callsubr
          hintmask 1111010100000000
          86 -4 14 -17 -93 vvcurveto
          -27 -80 -50 80 -389 vlineto
          -94 -91 callsubr
          324 38 vlineto
          66 callgsubr
          102 vvcurveto
          210 405 -217 vlineto
          -94 -91 callsubr
          324 38 vlineto
          66 callgsubr
          102 vvcurveto
          382 79 50 -79 vlineto
          -510 -172 rmoveto
          122 vlineto
          hintmask 1111100010000000
          405 -122 hlineto
          endchar
        </CharString>
        <CharString name="Hcircumflex">
          299 0 38 331 50 313 38 190 -20 hstemhm
          55 -10 callgsubr
          hintmask 1111100100000000
          770 611 rmoveto
          hintmask 1111100001000000
          -28 callsubr
          hintmask 1111100010000000
          45 callgsubr
          hintmask 1111001100000000
          -28 callsubr
          hintmask 1111010100000000
          -99 callsubr
          324 38 vlineto
          66 callgsubr
          102 vvcurveto
          210 405 -217 vlineto
          -94 -91 callsubr
          324 38 vlineto
          66 callgsubr
          102 vvcurveto
          -361 801 -92 callgsubr
        </CharString>
        <CharString name="Hdotbelow">
          299 -25 callsubr
          106 38 331 50 313 38 hstemhm
          55 -3 callsubr
          43 124 39 -3 callsubr
          hintmask 1111100110000000
          770 611 rmoveto
          hintmask 1111100100100000
          -34 callsubr
          hintmask 1111100110000000
          -20 callsubr
          hintmask 1111100101000000
          45 callgsubr
          hintmask 1111001110000000
          -34 callsubr
          hintmask 1111100110000000
          -20 callsubr
          hintmask 1111010110000000
          -99 callsubr
          324 38 vlineto
          66 callgsubr
          102 vvcurveto
          210 405 -217 vlineto
          -94 -91 callsubr
          324 38 vlineto
          66 callgsubr
          102 vvcurveto
          -368 -327 -104 callsubr
        </CharString>
        <CharString name="I">
          0 callgsubr
          -47 callgsubr
          -105 204 hintmask 11100000
          -12 callgsubr
          hintmask 11010000
          -51 callsubr
          vlineto
          hintmask 11100000
          -20 callsubr
          86 -4 14 -27 -113 vvcurveto
          -406 vlineto
          -65 callsubr
          324 38 vlineto
          60 callsubr
          endchar
        </CharString>
        <CharString name="IJ">
          183 21 callgsubr
          110 38 694 -29 callsubr
          204 201 105 hintmask 10111010
          -12 callgsubr
          hintmask 10110110
          -51 callsubr
          vlineto
          hintmask 10111010
          -20 callsubr
          86 -4 14 -27 -113 vvcurveto
          -406 vlineto
          -65 callsubr
          324 38 vlineto
          60 callsubr
          300 -232 14 callsubr
          hintmask 01111010
          37 -20 -12 10 -25 hhcurveto
          -32 -19 -19 -34 -58 61 -39 91 135 73 91 167 hvcurveto
          613 vlineto
          101 13 17 86 3 vhcurveto
          38 -19 callsubr
          vlineto
          86 -4 14 -17 -93 vvcurveto
          endchar
        </CharString>
        <CharString name="Iacute">
          0 callgsubr
          -38 228 -47 callgsubr
          -105 204 hintmask 11010000
          -12 callgsubr
          hintmask 11001000
          -51 callsubr
          vlineto
          hintmask 11010000
          -20 callsubr
          hintmask 10110000
          86 -4 14 -27 -113 vvcurveto
          -406 vlineto
          -65 callsubr
          324 38 vlineto
          60 callsubr
          -94 661 -47 callsubr
          -86 callgsubr
        </CharString>
        <CharString name="Ibreve">
          0 callgsubr
          75 69 -69 115 -47 callgsubr
          -105 204 hintmask 11101000
          -12 callgsubr
          hintmask 11100100
          -51 callsubr
          vlineto
          hintmask 11101000
          -20 callsubr
          hintmask 11011000
          86 -4 14 -27 -113 vvcurveto
          -406 vlineto
          -65 callsubr
          324 38 vlineto
          60 callsubr
          47 771 rmoveto
          hintmask 11101000
          9 callgsubr
          hintmask 11011000
          -68 callgsubr
        </CharString>
        <CharString name="Icircumflex">
          0 callgsubr
          -38 228 -47 callgsubr
          -105 204 hintmask 11010000
          -12 callgsubr
          hintmask 11001000
          -51 callsubr
          vlineto
          hintmask 11010000
          -20 callsubr
          hintmask 10110000
          86 -4 14 -27 -113 vvcurveto
          -406 vlineto
          -65 callsubr
          324 38 vlineto
          60 callsubr
          -109 771 -92 callgsubr
        </CharString>
        <CharString name="Idieresis">
          0 callgsubr
          89 101 -47 callgsubr
          -193 101 81 110 57 callgsubr
          hintmask 11101100
          -51 callsubr
          vlineto
          hintmask 11110000
          -20 callsubr
          86 -4 14 -27 -113 vvcurveto
          -406 vlineto
          -65 callsubr
          324 38 vlineto
          60 callsubr
          hintmask 11101100
          -193 721 -93 callgsubr
        </CharString>
        <CharString name="Idotaccent">
          0 callgsubr
          82 107 hstemhm
          55 -3 callsubr
          57 callgsubr
          hintmask 11100100
          -51 callsubr
          vlineto
          hintmask 11110000
          -20 callsubr
          86 -4 14 -27 -113 vvcurveto
          -406 vlineto
          -65 callsubr
          324 38 vlineto
          60 callsubr
          hintmask 11101000
          -105 715 -63 callsubr
        </CharString>
        <CharString name="Idotbelow">
          -211 -25 callsubr
          106 38 694 -29 callsubr
          204 57 callgsubr
          hintmask 11101000
          -51 callsubr
          vlineto
          hintmask 11110000
          -20 callsubr
          86 -4 14 -27 -113 vvcurveto
          -406 vlineto
          -65 callsubr
          324 38 vlineto
          60 callsubr
          -116 -357 -104 callsubr
        </CharString>
        <CharString name="Igrave">
          0 callgsubr
          -38 228 -47 callgsubr
          -105 204 hintmask 11010000
          -12 callgsubr
          hintmask 11001000
          -51 callsubr
          vlineto
          hintmask 11010000
          -20 callsubr
          hintmask 10110000
          86 -4 14 -27 -113 vvcurveto
          -406 vlineto
          -65 callsubr
          324 38 vlineto
          60 callsubr
          52 661 rmoveto
          -130 77 rlineto
          -78 callgsubr
        </CharString>
        <CharString name="Imacron">
          0 callgsubr
          110 50 -47 callgsubr
          -105 204 57 callgsubr
          hintmask 11101000
          -51 callsubr
          vlineto
          hintmask 11110000
          -20 callsubr
          86 -4 14 -27 -113 vvcurveto
          -406 vlineto
          -65 callsubr
          324 38 vlineto
          60 callsubr
          81 691 -41 callsubr
        </CharString>
        <CharString name="Iogonek">
          -211 -234 60 174 41 callgsubr
          hstemhm
          58 79 18 105 -105 214 hintmask 11110100
          283 -66 callgsubr
          39 44 52 65 35 hvcurveto
          123 38 hlineto
          hintmask 11111000
          60 callsubr
          392 vlineto
          -51 callsubr
          -19 callsubr
          vlineto
          86 -4 14 -27 -113 vvcurveto
          -406 vlineto
          -65 callsubr
          136 vlineto
          -78 -37 -45 -55 -57 -57 callgsubr
          endchar
        </CharString>
        <CharString name="Itilde">
          0 callgsubr
          58 callgsubr
          55 205 -105 204 hintmask 11100100
          -12 callgsubr
          hintmask 11100010
          -51 callsubr
          vlineto
          hintmask 11100100
          -20 callsubr
          hintmask 11010100
          86 -4 14 -27 -113 vvcurveto
          -406 vlineto
          -65 callsubr
          324 38 vlineto
          60 callsubr
          -191 657 -53 callgsubr
          hintmask 11100100
          -93 callsubr
          hintmask 11001100
          -78 callsubr
        </CharString>
        <CharString name="J">
          -232 21 callgsubr
          842 38 hstemhm
          145 105 hintmask 10110000
          38 callsubr
          hintmask 01110000
          37 -20 -12 10 -25 hhcurveto
          -32 -19 -19 -34 -58 61 -39 91 135 73 91 167 hvcurveto
          613 vlineto
          101 13 17 86 3 vhcurveto
          38 -19 callsubr
          vlineto
          86 -4 14 -17 -93 vvcurveto
          endchar
        </CharString>
        <CharString name="Jcircumflex">
          -232 21 callgsubr
          842 38 -38 228 hstemhm
          145 105 hintmask 10101000
          38 callsubr
          hintmask 01101000
          37 -20 -12 10 -25 hhcurveto
          -32 -19 -19 -34 -58 61 -39 91 135 73 91 167 hvcurveto
          613 vlineto
          101 13 17 86 3 vhcurveto
          38 -19 callsubr
          vlineto
          86 -4 14 -17 -93 vvcurveto
          hintmask 10011000
          -1 342 -92 callgsubr
        </CharString>
        <CharString name="K">
          153 0 38 695 37 -47 callgsubr
          99 171 -171 199 hintmask 11101000
          -36 callgsubr
          -241 -38 vlineto
          hintmask 11110000
          -5 callsubr
          hintmask 11101000
          2 callsubr
          endchar
        </CharString>
        <CharString name="Kcommaaccent">
          153 60 callgsubr
          695 37 -47 callgsubr
          91 122 -114 171 -171 199 hintmask 11111001
          -36 callgsubr
          vlineto
          hintmask 11111100
          -241 -38 hlineto
          hintmask 11111010
          -5 callsubr
          hintmask 11111100
          2 callsubr
          118 -409 rmoveto
          -103 callsubr
        </CharString>
        <CharString name="L">
          101 0 45 687 -35 callsubr
          hintmask 11100000
          -88 callgsubr
          hintmask 11010000
          -99 callsubr
          646 vlineto
          endchar
        </CharString>
        <CharString name="Lacute">
          101 0 45 687 38 -38 228 -47 callgsubr
          -105 105 -105 206 hintmask 11010000
          -88 callgsubr
          hintmask 11001000
          -99 callsubr
          646 vlineto
          -525 850 rmoveto
          120 28 rlineto
          hintmask 10100100
          45 10 30 16 21 vvcurveto
          -86 callgsubr
        </CharString>
        <CharString name="Lcaron">
          101 0 45 687 38 -38 228 -47 callgsubr
          -105 105 hintmask 11010000
          -88 callgsubr
          hintmask 10101000
          -99 callsubr
          646 vlineto
          -430 851 rmoveto
          -87 callgsubr
        </CharString>
        <CharString name="Lcommaaccent">
          101 -19 callgsubr
          54 45 687 -35 callsubr
          60 122 hintmask 11111010
          -88 callgsubr
          hintmask 11110110
          -99 callsubr
          646 vlineto
          -344 -250 rmoveto
          -103 callsubr
        </CharString>
        <CharString name="Ldot">
          101 0 45 291 131 265 -35 callsubr
          132 131 hintmask 11110100
          -88 callgsubr
          hintmask 11101100
          -99 callsubr
          646 vlineto
          -299 401 rmoveto
          14 callgsubr
        </CharString>
        <CharString name="Lslash">
          102 0 45 687 38 hstemhm
          66 195 -105 105 -105 234 hintmask 11100000
          707 197 rmoveto
          -38 hlineto
          -124 -29 -48 -28 -153 hhcurveto
          -138 -40 23 112 hvcurveto
          209 vlineto
          hintmask 11001000
          129 81 rlineto
          60 vlineto
          hintmask 11100000
          -129 -81 rlineto
          162 vlineto
          101 13 17 86 3 vhcurveto
          38 -19 callsubr
          vlineto
          hintmask 11010000
          86 -4 14 -17 -93 vvcurveto
          -235 vlineto
          hintmask 11100000
          -90 -56 rlineto
          -60 vlineto
          hintmask 11010000
          90 56 rlineto
          -171 vlineto
          -94 -91 callsubr
          646 vlineto
          endchar
        </CharString>
        <CharString name="M">
          464 35 callsubr
          -7 callgsubr
          615 105 -105 214 hintmask 10110100
          546 179 rmoveto
          -252 591 rlineto
          -239 -38 hlineto
          hintmask 10101100
          86 -4 14 -27 -113 vvcurveto
          -406 vlineto
          -65 callsubr
          279 38 vlineto
          60 callsubr
          457 4 vlineto
          hintmask 01110100
          287 -656 rlineto
          22 hlineto
          292 656 rlineto
          10 -464 hlineto
          hintmask 10110010
          -65 callsubr
          324 38 vlineto
          hintmask 10110100
          60 callsubr
          392 vlineto
          -51 callsubr
          -224 vlineto
          -260 -591 rlineto
          endchar
        </CharString>
        <CharString name="N">
          -9 callgsubr
          7 callsubr
          hintmask 01110100
          754 -10 rmoveto
          -94 callsubr
          hintmask 10101100
          86 -4 14 -27 -113 vvcurveto
          -406 vlineto
          -65 callsubr
          269 38 vlineto
          -85 3 -14 41 callsubr
          427 4 vlineto
          hintmask 01110100
          16 callsubr
          endchar
        </CharString>
        <CharString name="NULL">
          -626 endchar
        </CharString>
        <CharString name="Nacute">
          -9 callgsubr
          -38 228 7 callsubr
          hintmask 01101010
          754 -10 rmoveto
          -94 callsubr
          hintmask 10100110
          86 -4 14 -27 -113 vvcurveto
          -406 vlineto
          -65 callsubr
          269 38 vlineto
          -85 3 -14 41 callsubr
          427 4 vlineto
          hintmask 01011010
          16 callsubr
          -270 860 -47 callsubr
          -86 callgsubr
        </CharString>
        <CharString name="Ncaron">
          -9 callgsubr
          -38 228 7 callsubr
          hintmask 01101010
          754 -10 rmoveto
          -94 callsubr
          hintmask 10100110
          86 -4 14 -27 -113 vvcurveto
          -406 vlineto
          -65 callsubr
          269 38 vlineto
          -85 3 -14 41 callsubr
          427 4 vlineto
          hintmask 01011010
          16 callsubr
          -175 861 rmoveto
          -87 callgsubr
        </CharString>
        <CharString name="Ncommaaccent">
          276 60 callgsubr
          -27 -21 742 38 -7 callgsubr
          183 122 174 60 hintmask 1101110110000000
          754 -10 rmoveto
          -94 callsubr
          hintmask 1110101110000000
          86 -4 14 -27 -113 vvcurveto
          -406 vlineto
          -65 callsubr
          269 38 vlineto
          -85 3 -14 41 callsubr
          427 4 vlineto
          hintmask 1101110110000000
          16 callsubr
          -269 -240 rmoveto
          -103 callsubr
        </CharString>
        <CharString name="Ndotaccent">
          -9 callgsubr
          82 107 -7 callgsubr
          197 107 175 60 hintmask 01111011
          754 -10 rmoveto
          -94 callsubr
          hintmask 10110111
          86 -4 14 -27 -113 vvcurveto
          -406 vlineto
          -65 callsubr
          269 38 vlineto
          -85 3 -14 41 callsubr
          427 4 vlineto
          hintmask 01111011
          16 callsubr
          -282 914 -63 callsubr
        </CharString>
        <CharString name="Ntilde">
          -9 callgsubr
          68 76 -28 28 -28 74 7 callsubr
          hintmask 0111001010000000
          754 -10 rmoveto
          -94 callsubr
          hintmask 1011000110000000
          86 -4 14 -27 -113 vvcurveto
          -406 vlineto
          -65 callsubr
          269 38 vlineto
          -85 3 -14 41 callsubr
          427 4 vlineto
          hintmask 0110101010000000
          16 callsubr
          -367 856 -53 callgsubr
          hintmask 1011001010000000
          -93 callsubr
          hintmask 1010011010000000
          -78 callsubr
        </CharString>
        <CharString name="O">
          -30 callsubr
          hstem
          59 callgsubr
          vstem
          -106 callgsubr
          endchar
        </CharString>
        <CharString name="OE">
          526 0 -60 callsubr
          hstem
          58 130 393 105 189 35 vstem
          474 770 rmoveto
          -234 -182 -171 -220 -211 181 -168 232 hvcurveto
          621 hlineto
          -95 callsubr
          136 -1 53 -22 -95 vvcurveto
          35 273 -35 hlineto
          -93 -60 -22 -129 vhcurveto
          42 callsubr
          51 -27 -106 16 hvcurveto
          35 hlineto
          -9 176 rlineto
          -585 -40 rmoveto
          86 21 -19 -93 hvcurveto
          -28 callgsubr
          -94 -13 -16 -94 -176 -110 128 206 219 110 135 176 vhcurveto
          endchar
        </CharString>
        <CharString name="Oacute">
          -30 callsubr
          -55 235 -14 callsubr
          hintmask 11011000
          -106 callgsubr
          -39 805 -47 callsubr
          hintmask 10111000
          -86 callgsubr
        </CharString>
        <CharString name="Obreve">
          -30 callsubr
          65 69 -69 115 -14 callsubr
          hintmask 11011100
          -106 callgsubr
          102 915 rmoveto
          hintmask 11101100
          9 callgsubr
          hintmask 11011100
          -68 callgsubr
        </CharString>
        <CharString name="Ocircumflex">
          -30 callsubr
          -55 235 -14 callsubr
          hintmask 11011000
          -106 callgsubr
          hintmask 10111000
          -54 915 -92 callgsubr
        </CharString>
        <CharString name="Odieresis">
          -30 callsubr
          79 101 hstem
          57 130 146 101 81 101 143 130 vstem
          -106 callgsubr
          -140 865 -93 callgsubr
        </CharString>
        <CharString name="Odotbelow">
          320 -25 callsubr
          96 55 680 55 hstem
          57 130 225 124 223 130 vstem
          -106 callgsubr
          -61 -213 -104 callsubr
        </CharString>
        <CharString name="Ograve">
          -30 callsubr
          -55 235 -14 callsubr
          hintmask 11011000
          -106 callgsubr
          107 805 rmoveto
          -130 77 rlineto
          hintmask 10111000
          -78 callgsubr
        </CharString>
        <CharString name="Ohungarumlaut">
          -30 callsubr
          70 110 hstem
          59 callgsubr
          vstem
          -106 callgsubr
          -124 805 rmoveto
          -67 callgsubr
          247 hmoveto
          -67 callgsubr
          endchar
        </CharString>
        <CharString name="Omacron">
          -30 callsubr
          100 50 hstem
          59 callgsubr
          vstem
          -106 callgsubr
          136 835 -41 callsubr
        </CharString>
        <CharString name="Oogonek">
          320 -234 60 165 54 680 55 hstem
          57 130 137 79 356 130 vstem
          549 -66 callgsubr
          36 37 47 56 34 hvcurveto
          221 11 172 167 210 vvcurveto
          226 -182 175 -234 -234 -182 -175 -226 -204 162 -164 213 -19 vhcurveto
          -69 -37 -39 -51 -53 -57 callgsubr
          -105 197 rmoveto
          -176 -110 128 203 214 110 135 176 176 110 -135 -214 -203 -111 -128 -175 hvcurveto
          endchar
        </CharString>
        <CharString name="Oslash">
          320 -60 -21 71 55 680 55 50 -20 hstem
          59 callgsubr
          vstem
          -74 callgsubr
          endchar
        </CharString>
        <CharString name="Oslashacute">
          317 -60 -21 71 55 680 55 -55 235 -130 -20 -14 callsubr
          hintmask 11101110
          -74 callgsubr
          249 474 -47 callsubr
          hintmask 11010110
          -86 callgsubr
        </CharString>
        <CharString name="Otilde">
          -30 callsubr
          58 76 -28 28 -28 74 -14 callsubr
          hintmask 11010110
          -106 callgsubr
          -136 801 -53 callgsubr
          hintmask 11100110
          -93 callsubr
          hintmask 11001110
          -78 callsubr
        </CharString>
        <CharString name="P">
          61 0 38 312 50 332 -35 callsubr
          268 130 hintmask 11110100
          -50 callsubr
          hintmask 11101100
          -69 callgsubr
          193 90 vlineto
          223 85 87 140 hvcurveto
          -398 129 rmoveto
          -59 callgsubr
          92 hlineto
          109 50 -46 -112 -117 -65 -48 -132 hvcurveto
          -71 hlineto
          endchar
        </CharString>
        <CharString name="Q">
          322 -260 99 -27 208 -143 37 57 49 705 55 hstemhm
          58 130 572 130 -130 173 hintmask 10111110
          474 780 rmoveto
          -234 -182 -174 -230 -220 166 -178 225 -7 hvcurveto
          -130 -74 rlineto
          -60 -35 -6 -7 -18 vvcurveto
          hintmask 01001110
          -15 11 -10 18 vhcurveto
          hintmask 10111101
          45 10 65 69 101 103 -137 148 hhcurveto
          99 76 62 84 14 -2 16 -2 12 hvcurveto
          -25 hlineto
          -65 -20 -28 -24 -62 -109 -84 75 -119 hhcurveto
          -11 -16 -1 -1 -8 hvcurveto
          4 vlineto
          28 21 35 16 36 14 76 28 72 30 55 48 rrcurveto
          hintmask 01001110
          85 74 56 106 125 vvcurveto
          227 -182 175 -234 vhcurveto
          -760 vmoveto
          -176 -110 138 218 214 110 135 176 176 110 -135 -214 -218 -111 -138 -175 hvcurveto
          endchar
        </CharString>
        <CharString name="R">
          162 0 38 327 50 317 -35 callsubr
          268 130 hintmask 11110100
          -50 callsubr
          hintmask 11101100
          -69 callgsubr
          208 vlineto
          62 20 -5 -46 35 hvcurveto
          245 -314 rlineto
          193 38 hlineto
          -59 9 -42 16 -36 44 -221 266 rcurveline
          140 24 61 74 106 vvcurveto
          -398 129 rmoveto
          -59 callgsubr
          92 hlineto
          109 50 -44 -107 -111 -65 -46 -132 hvcurveto
          -71 hlineto
          endchar
        </CharString>
        <CharString name="Racute">
          162 0 38 327 50 317 38 -38 228 -47 callgsubr
          -105 105 268 130 hintmask 11101010
          -50 callsubr
          hintmask 11010110
          -69 callgsubr
          208 vlineto
          62 20 -5 -46 35 hvcurveto
          245 -314 rlineto
          193 38 hlineto
          -59 9 -42 16 -36 44 -221 266 rcurveline
          140 24 61 74 106 vvcurveto
          -398 129 rmoveto
          -59 callgsubr
          92 hlineto
          109 50 -44 -107 -111 -65 -46 -132 hvcurveto
          -71 hlineto
          75 435 -47 callsubr
          -86 callgsubr
        </CharString>
        <CharString name="Rcaron">
          162 0 38 327 50 317 38 -38 228 -47 callgsubr
          -105 105 268 130 hintmask 11101010
          -50 callsubr
          hintmask 11010110
          -69 callgsubr
          208 vlineto
          62 20 -5 -46 35 hvcurveto
          245 -314 rlineto
          193 38 hlineto
          -59 9 -42 16 -36 44 -221 266 rcurveline
          140 24 61 74 106 vvcurveto
          -398 129 rmoveto
          -59 callgsubr
          92 hlineto
          109 50 -44 -107 -111 -65 -46 -132 hvcurveto
          -71 hlineto
          170 436 rmoveto
          -87 callgsubr
        </CharString>
        <CharString name="Rcommaaccent">
          162 60 callgsubr
          327 50 317 -35 callsubr
          91 122 55 130 hintmask 1111110110000000
          -50 callsubr
          hintmask 1111101110000000
          -69 callgsubr
          208 vlineto
          62 20 -5 -46 35 hvcurveto
          245 -314 rlineto
          193 38 hlineto
          -59 9 -42 16 -36 44 -221 266 rcurveline
          140 24 61 74 106 vvcurveto
          -398 129 rmoveto
          -59 callgsubr
          92 hlineto
          109 50 -44 -107 -111 -65 -46 -132 hvcurveto
          -71 hlineto
          118 -665 rmoveto
          -103 callsubr
        </CharString>
        <CharString name="Rdotbelow">
          162 -25 callsubr
          106 38 327 50 317 -35 callsubr
          90 124 54 130 hintmask 11111011
          -50 callsubr
          hintmask 11110111
          -69 callgsubr
          208 vlineto
          62 20 -5 -46 35 hvcurveto
          245 -314 rlineto
          193 38 hlineto
          -59 9 -42 16 -36 44 -221 266 rcurveline
          140 24 61 74 106 vvcurveto
          -398 129 rmoveto
          -59 callgsubr
          92 hlineto
          109 50 -44 -107 -111 -65 -46 -132 hvcurveto
          -71 hlineto
          90 -583 -104 callsubr
        </CharString>
        <CharString name="S">
          19 -10 51 688 51 hstem
          90 94 298 109 vstem
          -102 callgsubr
          endchar
        </CharString>
        <CharString name="Sacute">
          19 -10 51 688 51 -51 231 hstemhm
          90 94 298 109 hintmask 11011000
          -102 callgsubr
          218 615 -47 callsubr
          hintmask 10111000
          -86 callgsubr
        </CharString>
        <CharString name="Scaron">
          19 -10 51 688 51 -51 231 hstemhm
          90 94 298 109 hintmask 11011000
          -102 callgsubr
          313 616 rmoveto
          hintmask 10111000
          -87 callgsubr
        </CharString>
        <CharString name="Schwa">
          177 -10 58 197 66 413 57 hstem
          58 142 415 129 vstem
          99 606 rmoveto
          89 76 59 29 93 hhcurveto
          176 112 -139 -210 -25 -1 -23 -4 -16 hvcurveto
          -507 hlineto
          -39 -6 -3 -26 -187 108 -105 184 231 163 168 236 230 -152 157 -225 -122 -103 -43 -101 -83 hvcurveto
          541 -392 rmoveto
          -131 -28 -78 -66 -121 hhcurveto
          -107 -66 62 94 35 8 6 78 hvcurveto
          endchar
        </CharString>
        <CharString name="Scircumflex">
          19 -10 51 688 51 -51 231 hstemhm
          90 94 298 109 hintmask 11011000
          -102 callgsubr
          hintmask 10111000
          203 725 -92 callgsubr
        </CharString>
        <CharString name="Sdotbelow">
          19 -25 callsubr
          96 51 688 51 hstem
          90 94 72 124 102 109 vstem
          -102 callgsubr
          198 -403 -104 callsubr
        </CharString>
        <CharString name="T">
          177 0 -15 callgsubr
          hintmask 11011100
          -22 callgsubr
          hintmask 10111100
          -70 callgsubr
          hintmask 11011100
          -31 callsubr
          endchar
        </CharString>
        <CharString name="Tbar">
          179 0 38 379 50 112 191 -43 43 hstemhm
          22 37 284 119 284 36 hintmask 11101110
          777 770 rmoveto
          -755 -191 37 hlineto
          hintmask 11011110
          142 4 78 6 104 hhcurveto
          85 13 -8 -23 hvcurveto
          -229 -204 -50 204 -256 vlineto
          -86 -17 -33 -113 -4 vhcurveto
          -38 378 38 vlineto
          -113 4 -16 33 86 vvcurveto
          256 204 50 -204 229 vlineto
          23 14 8 99 vhcurveto
          hintmask 11101110
          -31 callsubr
          endchar
        </CharString>
        <CharString name="Tcaron">
          177 0 38 541 191 -43 43 -43 233 hstemhm
          21 37 284 119 284 36 hintmask 11001110
          -22 callgsubr
          hintmask 10101110
          -70 callgsubr
          hintmask 11001110
          -31 callsubr
          -329 272 rmoveto
          hintmask 10011110
          -87 callgsubr
        </CharString>
        <CharString name="Tdotbelow">
          177 -25 callsubr
          106 -15 callgsubr
          hintmask 11101110
          -22 callgsubr
          hintmask 11011110
          -70 callgsubr
          hintmask 11101110
          -31 callsubr
          -446 -747 -104 callsubr
        </CharString>
        <CharString name="Thorn">
          73 0 38 138 50 323 47 136 38 hstemhm
          47 215 -105 105 -105 243 130 130 hintmask 11111001
          262 613 rmoveto
          hintmask 11110011
          99 17 20 121 vhcurveto
          38 vlineto
          hintmask 11111001
          -353 -38 hlineto
          hintmask 11110101
          94 -3 16 -17 -94 vvcurveto
          -28 callgsubr
          hintmask 11111001
          -94 -91 callsubr
          vlineto
          hintmask 11110011
          353 38 hlineto
          hintmask 11111001
          -121 -17 20 99 hvcurveto
          19 90 vlineto
          223 85 75 140 121 -106 84 -183 hvcurveto
          -109 hlineto
          -64 vmoveto
          -59 callgsubr
          92 hlineto
          109 50 -46 -112 -117 -65 -48 -132 hvcurveto
          -71 hlineto
          endchar
        </CharString>
        <CharString name="U">
          25 callsubr
          hstem
          36 callsubr
          vstem
          -107 callgsubr
          endchar
        </CharString>
        <CharString name="Uacute">
          25 callsubr
          -38 228 hstemhm
          36 callsubr
          hintmask 11011000
          -107 callgsubr
          -303 540 -47 callsubr
          hintmask 10111000
          -86 callgsubr
        </CharString>
        <CharString name="Ubreve">
          25 callsubr
          75 69 -69 115 hstemhm
          36 callsubr
          hintmask 11011100
          -107 callgsubr
          -162 650 rmoveto
          hintmask 11101100
          9 callgsubr
          hintmask 11011100
          -68 callgsubr
        </CharString>
        <CharString name="Ucircumflex">
          25 callsubr
          190 -20 hstem
          36 callsubr
          vstem
          -107 callgsubr
          -318 650 -92 callgsubr
        </CharString>
        <CharString name="Udieresis">
          25 callsubr
          89 101 hstem
          -24 callgsubr
          58 101 81 101 61 60 vstem
          -107 callgsubr
          -404 600 -93 callgsubr
        </CharString>
        <CharString name="Udotbelow">
          -25 callsubr
          96 62 callgsubr
          hstem
          -24 callgsubr
          130 124 148 60 vstem
          -107 callgsubr
          -332 -478 -104 callsubr
        </CharString>
        <CharString name="Ugrave">
          25 callsubr
          -38 228 hstemhm
          36 callsubr
          hintmask 11011000
          -107 callgsubr
          -157 540 rmoveto
          -130 77 rlineto
          hintmask 10111000
          -78 callgsubr
        </CharString>
        <CharString name="Uhungarumlaut">
          25 callsubr
          80 110 hstem
          36 callsubr
          vstem
          -107 callgsubr
          -388 540 rmoveto
          -67 callgsubr
          247 hmoveto
          -67 callgsubr
          endchar
        </CharString>
        <CharString name="Umacron">
          25 callsubr
          110 50 hstem
          36 callsubr
          vstem
          -107 callgsubr
          -128 570 -41 callsubr
        </CharString>
        <CharString name="Uogonek">
          -234 60 166 60 680 38 hstem
          -24 callgsubr
          37 79 286 60 vstem
          522 -66 callgsubr
          36 38 47 56 35 hvcurveto
          182 12 70 107 199 vvcurveto
          202 vlineto
          110 5 55 20 28 vhcurveto
          23 16 27 4 42 hhcurveto
          38 -290 -38 vlineto
          41 28 -3 -17 18 hvcurveto
          26 -25 7 -56 -119 vvcurveto
          -241 vlineto
          -143 -67 -76 -133 -149 -53 77 136 vhcurveto
          272 vlineto
          98 4 49 18 24 vhcurveto
          21 16 27 3 45 hhcurveto
          38 -341 -38 vlineto
          45 26 -5 -17 16 hvcurveto
          23 -25 1 -49 -99 vvcurveto
          -264 vlineto
          -199 86 -76 176 -7 vhcurveto
          -67 -37 -38 -50 -53 -57 callgsubr
          endchar
        </CharString>
        <CharString name="Uring">
          25 callsubr
          60 31 67 32 hstem
          -24 callgsubr
          134 31 67 32 138 60 vstem
          -107 callgsubr
          -328 585 -52 callsubr
        </CharString>
        <CharString name="Utilde">
          25 callsubr
          58 callgsubr
          36 callsubr
          hintmask 11010110
          -107 callgsubr
          -400 536 -53 callgsubr
          hintmask 11100110
          -93 callsubr
          hintmask 11001110
          -78 callsubr
        </CharString>
        <CharString name="V">
          158 11 -21 741 39 hstem
          246 603 rmoveto
          -18 46 -6 21 19 vvcurveto
          28 17 14 74 vhcurveto
          39 -326 -39 vlineto
          70 -4 28 -33 34 -81 258 -623 rcurveline
          35 hlineto
          271 661 23 56 25 18 61 7 rlinecurve
          38 -243 -38 vlineto
          59 19 -13 -36 -22 -7 -25 -20 -49 hvcurveto
          -176 -434 rlineto
          endchar
        </CharString>
        <CharString name="W">
          15 callsubr
          hstem
          -102 callsubr
          endchar
        </CharString>
        <CharString name="Wacute">
          15 callsubr
          -39 229 hstemhm
          hintmask 11000000
          -102 callsubr
          -288 699 -47 callsubr
          hintmask 10100000
          -86 callgsubr
        </CharString>
        <CharString name="Wcircumflex">
          15 callsubr
          -39 229 hstemhm
          hintmask 11000000
          -102 callsubr
          hintmask 10100000
          -274 809 -92 callgsubr
        </CharString>
        <CharString name="Wdieresis">
          15 callsubr
          89 101 hstem
          223 241 111 81 vstem
          -102 callsubr
          -360 759 -93 callgsubr
        </CharString>
        <CharString name="Wgrave">
          15 callsubr
          -39 229 hstemhm
          223 243 hintmask 11010000
          -102 callsubr
          -113 699 rmoveto
          -130 77 rlineto
          hintmask 10110000
          -78 callgsubr
        </CharString>
        <CharString name="X">
          192 -21 callgsubr
          hstem
          465 421 rmoveto
          159 205 rlineto
          94 73 18 12 65 hhcurveto
          38 -275 -38 vlineto
          56 19 -11 -33 -27 -13 -25 -37 -47 hvcurveto
          -98 -124 -109 162 rlineto
          -19 28 -9 21 17 vvcurveto
          27 21 12 44 vhcurveto
          38 -332 -38 vlineto
          57 40 -20 -46 33 hvcurveto
          203 -277 -196 -250 rlineto
          -78 -62 -37 -23 -64 hhcurveto
          -38 278 38 vlineto
          -62 -19 6 20 25 26 40 83 105 hvcurveto
          86 108 114 -170 rlineto
          45 -68 6 -15 -19 vvcurveto
          -20 -19 -12 -59 vhcurveto
          -38 341 38 vlineto
          -50 -43 25 46 -34 hvcurveto
          endchar
        </CharString>
        <CharString name="Y">
          51 callgsubr
          hstem
          -100 callgsubr
          endchar
        </CharString>
        <CharString name="Yacute">
          51 callgsubr
          -38 228 hstemhm
          hintmask 11000000
          -100 callgsubr
          224 204 -47 callsubr
          hintmask 10100000
          -86 callgsubr
        </CharString>
        <CharString name="Ycircumflex">
          51 callgsubr
          190 -20 hstem
          -100 callgsubr
          239 314 -92 callgsubr
        </CharString>
        <CharString name="Ydieresis">
          51 callgsubr
          89 101 hstem
          368 81 vstem
          -100 callgsubr
          153 264 -93 callgsubr
        </CharString>
        <CharString name="Ygrave">
          51 callgsubr
          -38 228 hstemhm
          hintmask 11000000
          -100 callgsubr
          400 204 rmoveto
          -130 77 rlineto
          hintmask 10100000
          -78 callgsubr
        </CharString>
        <CharString name="Ytilde">
          51 callgsubr
          58 callgsubr
          hintmask 11010000
          -100 callgsubr
          157 200 -53 callgsubr
          hintmask 11100000
          -93 callsubr
          hintmask 11001000
          -78 callsubr
        </CharString>
        <CharString name="Z">
          33 callgsubr
          hstem
          722 235 -94 callgsubr
          endchar
        </CharString>
        <CharString name="Zacute">
          33 callgsubr
          -42 232 hstemhm
          hintmask 11000000
          722 235 -94 callgsubr
          -213 850 rmoveto
          -130 77 rlineto
          hintmask 10100000
          -78 callgsubr
        </CharString>
        <CharString name="Zcaron">
          33 callgsubr
          -42 232 hstemhm
          hintmask 11000000
          722 235 -94 callgsubr
          -264 851 rmoveto
          hintmask 10100000
          -87 callgsubr
        </CharString>
        <CharString name="Zdotaccent">
          33 callgsubr
          82 107 hstem
          339 107 vstem
          722 235 -94 callgsubr
          -371 904 -63 callsubr
        </CharString>
        <CharString name="Zdotbelow">
          144 -25 callsubr
          106 46 682 42 hstem
          325 124 vstem
          722 235 -94 callgsubr
          -385 -168 -104 callsubr
        </CharString>
        <CharString name="a">
          -55 callgsubr
          23 callgsubr
          hintmask 10101100
          349 217 -97 callsubr
          hintmask 01101100
          -99 callgsubr
          hintmask 10011100
          -67 callsubr
          endchar
        </CharString>
        <CharString name="aacute">
          -55 callgsubr
          263 -20 -97 callgsubr
          -127 312 rmoveto
          -101 callsubr
          endchar
        </CharString>
        <CharString name="abreve">
          -55 callgsubr
          106 69 -69 130 23 callgsubr
          hintmask 10101011
          349 217 -97 callsubr
          hintmask 01101011
          -99 callgsubr
          hintmask 10010111
          -67 callsubr
          17 437 rmoveto
          hintmask 10101011
          8 callgsubr
          hintmask 10100111
          -68 callsubr
        </CharString>
        <CharString name="acircumflex">
          -55 callgsubr
          240 -20 -97 callgsubr
          -129 441 -92 callsubr
        </CharString>
        <CharString name="acute">
          -351 672 -21 152 -20 hstem
          67 651 rmoveto
          -101 callsubr
          endchar
        </CharString>
        <CharString name="acute.cap">
          -331 871 -21 110 -20 hstem
          80 850 -47 callsubr
          -86 callgsubr
        </CharString>
        <CharString name="adieresis">
          -55 callgsubr
          111 116 hstemhm
          43 101 -20 47 callgsubr
          -58 98 hintmask 1010110010000000
          349 217 -97 callsubr
          hintmask 0110110010000000
          -99 callgsubr
          hintmask 1001101010000000
          -67 callsubr
          -225 370 rmoveto
          -85 callgsubr
          hintmask 1010110100000000
          167 hmoveto
          hintmask 1010110010000000
          -33 25 -25 33 vhcurveto
          hintmask 1010110100000000
          33 25 25 33 hvcurveto
          hintmask 1010110010000000
          33 -25 25 -33 vhcurveto
          hintmask 1010110100000000
          -33 -25 -25 -33 hvcurveto
          endchar
        </CharString>
        <CharString name="ae">
          38 callgsubr
          47 callsubr
          113 235 109 hintmask 10110111
          -45 callgsubr
          hintmask 10101111
          -18 callgsubr
          hintmask 01110111
          -36 callsubr
          endchar
        </CharString>
        <CharString name="aeacute">
          38 callgsubr
          263 -20 47 callsubr
          113 235 109 hintmask 1011011110000000
          -45 callgsubr
          hintmask 1010111110000000
          -18 callgsubr
          hintmask 0111011110000000
          -36 callsubr
          -249 288 rmoveto
          -101 callsubr
          endchar
        </CharString>
        <CharString name="agrave">
          -55 callgsubr
          263 -20 -97 callgsubr
          16 312 -82 callgsubr
        </CharString>
        <CharString name="amacron">
          -55 callgsubr
          162 50 -97 callgsubr
          51 363 -41 callsubr
        </CharString>
        <CharString name="ampersand">
          252 -10 63 379 35 252 61 hstemhm
          36 121 45 94 0 143 0 93 hintmask 11110100
          347 458 rmoveto
          -33 47 -18 55 58 vvcurveto
          66 23 35 43 47 30 -40 -62 -60 -29 -50 -63 -49 vhcurveto
          118 -325 rmoveto
          -50 -57 -69 -30 -55 hhcurveto
          -74 -53 53 73 69 49 68 84 48 hvcurveto
          85 56 rmoveto
          hintmask 11111010
          111 76 46 61 74 vvcurveto
          87 -65 62 -91 -103 -71 -81 -117 -60 18 -52 43 -62 vhcurveto
          -158 -77 -69 -74 -90 vvcurveto
          -102 89 -75 122 90 93 41 69 66 vhcurveto
          -82 83 50 -28 66 hhcurveto
          81 53 41 74 14 hvcurveto
          -25 7 rlineto
          -45 -22 -16 -12 -35 hhcurveto
          -60 -62 40 76 -56 hvcurveto
          142 208 rlineto
          42 28 22 11 58 hhcurveto
          35 -230 -35 vlineto
          43 18 -9 -21 -35 -46 -79 -65 -79 hvcurveto
          endchar
        </CharString>
        <CharString name="aogonek">
          -71 -234 60 165 60 338 151 -38 38 hstemhm
          43 101 136 79 -10 98 hintmask 11101100
          505 -66 callgsubr
          36 36 46 56 34 hvcurveto
          44 2 45 22 15 30 -14 24 rcurveline
          -20 -12 -19 -2 -18 hhcurveto
          hintmask 11101010
          -30 -15 37 77 hvcurveto
          224 vlineto
          114 -50 42 -134 -125 -71 -37 -64 -32 18 -18 32 26 11 10 38 15 vhcurveto
          hintmask 11011010
          -67 callsubr
          -144 -63 rlineto
          -121 -52 -41 -51 -64 vvcurveto
          -71 52 -47 83 74 65 41 65 35 vhcurveto
          5 hlineto
          -49 14 -34 30 -15 vhcurveto
          hintmask 11101100
          -77 -37 -44 -54 -57 -57 callgsubr
          hintmask 11101010
          -185 369 rmoveto
          -91 -56 -75 -69 -48 -32 31 44 59 52 53 153 58 vhcurveto
          endchar
        </CharString>
        <CharString name="apostrophe">
          -432 632 -21 219 -20 hstem
          50 94 vstem
          112 611 3 callsubr
        </CharString>
        <CharString name="aring">
          -55 callgsubr
          116 39 92 43 hstemhm
          43 101 42 39 92 43 -11 98 hintmask 1010111101000000
          349 217 -97 callsubr
          hintmask 0110111101000000
          -99 callgsubr
          hintmask 1001111101000000
          -67 callsubr
          -163 403 rmoveto
          -49 37 -37 49 vhcurveto
          hintmask 1010111110000000
          51 37 37 49 51 -37 37 -51 -49 -37 -37 -51 hvcurveto
          39 hmoveto
          26 20 19 27 26 19 -19 -26 -27 -19 -20 -26 -27 -20 20 27 vhcurveto
          endchar
        </CharString>
        <CharString name="aringacute">
          -55 callgsubr
          119 38 83 50 -10 -20 hstemhm
          43 101 39 37 84 38 -38 79 -34 98 hintmask 1010110111010000
          183 738 -12 callsubr
          hintmask 1010110110100000
          28 callsubr
          hintmask 1010101111010000
          44 callsubr
          hintmask 1010110111010000
          24 callsubr
          129 -521 -97 callsubr
          hintmask 0110110111010000
          -99 callgsubr
          hintmask 1001110111010000
          -67 callsubr
          endchar
        </CharString>
        <CharString name="asciicircum">
          -146 251 -21 179 -20 hstem
          195 409 rmoveto
          -119 -179 rlineto
          45 hlineto
          119 118 119 -118 rlineto
          45 hlineto
          -119 179 rlineto
          endchar
        </CharString>
        <CharString name="asciitilde">
          -73 241 37 callgsubr
          hintmask 01000000
          118 249 -53 callgsubr
          hintmask 10000000
          65 82 -48 57 hhcurveto
          52 41 48 70 10 hvcurveto
          -33 hlineto
          -32 -10 -11 -10 -25 hhcurveto
          hintmask 00100000
          -62 -78 46 -57 hhcurveto
          -56 -42 -44 -70 -12 hvcurveto
          endchar
        </CharString>
        <CharString name="asterisk">
          -110 370 -21 431 -20 hstemhm
          63 209 -59 59 -30 62 -62 211 hintmask 11010000
          272 539 rmoveto
          40 -20 31 -26 12 -19 rrcurveto
          -32 20 15 -6 16 hhcurveto
          hintmask 11000100
          24 23 17 27 67 -65 -40 -99 58 hvcurveto
          108 62 54 -41 64 vvcurveto
          25 -22 20 -25 -44 10 -47 -57 -97 vhcurveto
          1 42 4 32 13 28 rrcurveto
          hintmask 11001000
          6 13 7 17 11 vvcurveto
          26 -20 20 -26 vhcurveto
          hintmask 11010000
          -26 -19 -20 -26 -11 6 -19 7 -11 hvcurveto
          11 -26 6 -36 -40 vvcurveto
          41 -73 -23 63 -35 hhcurveto
          -24 -23 -18 -27 -16 8 -15 16 -9 hvcurveto
          25 -15 32 15 81 -45 rrcurveto
          hintmask 11100000
          -90 -51 -74 29 -62 vvcurveto
          -25 21 -21 25 vhcurveto
          hintmask 11010000
          47 -23 43 61 109 hvcurveto
          -2 -86 -29 -36 -19 vvcurveto
          -27 18 -22 28 24 20 21 24 vhcurveto
          23 -29 40 82 vvcurveto
          endchar
        </CharString>
        <CharString name="at">
          403 -134 48 163 50 371 42 -10 -20 225 45 hstemhm
          52 91 141 98 225 89 -62 62 225 45 hintmask 1110111101000000
          671 441 rmoveto
          -4 1 rlineto
          67 -19 -36 31 -62 hhcurveto
          -133 -133 -146 -146 -99 64 -72 86 61 67 46 69 41 hvcurveto
          4 hlineto
          -76 6 34 -39 65 hhcurveto
          135 119 162 183 213 -162 145 -239 -288 -225 -210 -270 -254 201 -180 284 125 106 36 81 117 hvcurveto
          -21 31 rlineto
          -67 -97 -105 -33 -112 hhcurveto
          -243 -164 156 229 246 187 190 241 202 148 -134 -181 -143 -93 -150 -88 -27 -17 15 25 20 11 53 15 53 hvcurveto
          hintmask 1101111101000000
          67 237 rlineto
          -96 hlineto
          hintmask 1110111011000000
          -135 -32 rmoveto
          48 28 -39 -65 -127 -99 -145 -86 -44 -23 36 69 135 88 136 88 hvcurveto
          endchar
        </CharString>
        <CharString name="atilde">
          -55 callgsubr
          112 -34 callgsubr
          -4 -20 23 callgsubr
          hintmask 1010100111000000
          349 217 -97 callsubr
          hintmask 0110100111000000
          -99 callgsubr
          hintmask 1001010111000000
          -67 callsubr
          -220 321 -53 callgsubr
          hintmask 1010100111000000
          -93 callsubr
          hintmask 1010001011000000
          -78 callsubr
        </CharString>
        <CharString name="b">
          28 -11 48 -16 -21 493 47 290 -20 hstemhm
          91 98 304 113 hintmask 10111100
          189 298 -5 callgsubr
          -2 621 rmoveto
          43 callgsubr
          8 -17 5 -45 -67 vvcurveto
          hintmask 01111100
          -604 22 vlineto
          47 67 rlineto
          hintmask 10111100
          -48 42 71 -30 75 -48 callgsubr
          hlineto
          endchar
        </CharString>
        <CharString name="backslash">
          -166 50 callgsubr
          373 hmoveto
          58 hlineto
          -353 770 rlineto
          -49 hlineto
          endchar
        </CharString>
        <CharString name="bar">
          -336 -229 -21 1070 -20 hstem
          105 80 vstem
          105 820 rmoveto
          -1070 80 1070 vlineto
          endchar
        </CharString>
        <CharString name="braceleft">
          -291 -129 -21 980 -20 hstem
          118 90 vstem
          208 198 rmoveto
          80 -17 48 -81 14 vhcurveto
          5 vlineto
          85 18 13 56 82 vvcurveto
          179 vlineto
          71 20 40 62 16 vhcurveto
          23 vlineto
          -142 -30 -44 -127 hvcurveto
          -175 vlineto
          -76 -14 -38 -75 -15 vhcurveto
          -25 vlineto
          68 -6 21 -64 -60 vvcurveto
          -196 vlineto
          -121 42 -33 134 vhcurveto
          22 vlineto
          -68 19 -18 37 72 vvcurveto
          endchar
        </CharString>
        <CharString name="braceright">
          -291 -129 -21 980 -20 hstem
          127 90 vstem
          127 hmoveto
          -72 -18 -37 -68 -19 vhcurveto
          -22 vlineto
          134 42 33 121 hvcurveto
          196 vlineto
          60 21 64 68 6 vhcurveto
          25 vlineto
          -75 15 -14 38 76 vvcurveto
          175 vlineto
          127 -30 44 -142 vhcurveto
          -23 vlineto
          62 -16 20 -40 -71 vvcurveto
          -179 vlineto
          -82 13 -56 85 -18 vhcurveto
          -5 vlineto
          -81 -14 -17 -48 -80 vvcurveto
          endchar
        </CharString>
        <CharString name="bracketleft">
          -255 -150 47 876 47 hstemhm
          107 90 -90 241 hintmask 11010000
          348 773 rmoveto
          47 -241 -970 241 47 vlineto
          hintmask 11100000
          -151 876 hlineto
          endchar
        </CharString>
        <CharString name="bracketright">
          -255 -150 47 876 47 hstemhm
          23 241 -90 90 hintmask 11100000
          23 -103 rmoveto
          -47 241 970 -241 -47 vlineto
          hintmask 11010000
          151 -876 hlineto
          endchar
        </CharString>
        <CharString name="breve">
          -310 646 69 -69 130 hstemhm
          hintmask 01000000
          259 776 rmoveto
          hintmask 10000000
          8 callgsubr
          hintmask 01000000
          -68 callsubr
        </CharString>
        <CharString name="breve.cap">
          -310 845 69 -69 115 hstemhm
          hintmask 01000000
          259 960 rmoveto
          hintmask 10000000
          9 callgsubr
          hintmask 01000000
          -68 callgsubr
        </CharString>
        <CharString name="brokenbar">
          -328 -159 -21 930 -20 hstem
          109 80 vstem
          109 750 rmoveto
          -385 80 385 vlineto
          -80 -545 rmoveto
          -385 80 385 vlineto
          endchar
        </CharString>
        <CharString name="bullet">
          -150 237 -21 305 -20 hstem
          235 216 rmoveto
          87 70 68 85 85 -70 67 -82 -85 -71 -67 -85 -85 71 -68 80 hvcurveto
          endchar
        </CharString>
        <CharString name="c">
          -9 callsubr
          hstemhm
          49 114 hintmask 10110000
          -72 callsubr
          hintmask 11010000
          -34 25 12 -7 24 hhcurveto
          65 callsubr
          52 -73 36 -103 -166 -112 -109 -170 -162 99 -109 142 88 80 35 58 48 hvcurveto
          endchar
        </CharString>
        <CharString name="c_t">
          303 -10 52 425 37 -11 47 214 50 hstemhm
          49 114 217 52 219 98 -38 52 hintmask 10111101
          763 25 callgsubr
          -31 5 -26 11 -25 vhcurveto
          4 -20 -23 2 -23 hhcurveto
          -171 -110 -109 -171 -161 98 -109 146 83 81 35 58 49 hvcurveto
          -30 29 rlineto
          -48 -50 -49 -22 -54 hhcurveto
          -104 -56 81 152 144 49 74 96 36 22 -11 -31 27 hvcurveto
          -32 23 12 -9 24 hhcurveto
          32 19 16 26 14 -6 14 -11 12 hvcurveto
          -37 36 -17 38 47 vvcurveto
          86 57 55 88 82 52 -49 -78 vhcurveto
          hintmask 11011110
          -74 -47 -49 -73 vhcurveto
          -37 60 -355 vlineto
          -16 callsubr
        </CharString>
        <CharString name="cacute">
          -9 callsubr
          263 -75 callgsubr
          -207 568 rmoveto
          -101 callsubr
          endchar
        </CharString>
        <CharString name="caron">
          -258 672 -21 129 -20 hstem
          229 651 rmoveto
          -80 callsubr
        </CharString>
        <CharString name="caron.alt">
          -464 605 -21 96 100 hstem
          20 122 vstem
          47 584 rmoveto
          -103 callsubr
        </CharString>
        <CharString name="caron.cap">
          -258 872 -21 109 -20 hstem
          239 851 rmoveto
          -87 callgsubr
        </CharString>
        <CharString name="ccaron">
          -9 callsubr
          240 -75 callgsubr
          -145 568 rmoveto
          -80 callsubr
        </CharString>
        <CharString name="ccedilla">
          -90 -22 callsubr
          63 51 368 130 -47 47 hstemhm
          49 114 8 241 -82 82 hintmask 1011011100000000
          -72 callsubr
          hintmask 1011101010000000
          -34 25 12 -7 24 hhcurveto
          65 callsubr
          52 -73 36 -103 -166 -112 -109 -170 -150 84 -104 124 -15 hvcurveto
          -44 -102 -64 callsubr
          hintmask 0111101100000000
          -73 callsubr
          23 63 79 5 72 33 44 54 rlinecurve
          endchar
        </CharString>
        <CharString name="ccircumflex">
          -9 callsubr
          240 -75 callgsubr
          -235 697 -92 callsubr
        </CharString>
        <CharString name="cdotaccent">
          -9 callsubr
          141 124 hstemhm
          49 114 91 124 hintmask 10111100
          -72 callsubr
          hintmask 11011100
          -34 25 12 -7 24 hhcurveto
          65 callsubr
          52 -73 36 -103 -166 -112 -109 -170 -162 99 -109 142 88 80 35 58 48 hvcurveto
          -252 660 -104 callsubr
        </CharString>
        <CharString name="cedilla">
          -394 -22 callsubr
          84 -20 hstemhm
          6 241 -82 82 hintmask 10110100
          154 12 rmoveto
          -53 hlineto
          -53 -122 -64 callsubr
          hintmask 01111000
          -73 callsubr
          endchar
        </CharString>
        <CharString name="cent">
          -71 -126 -21 557 130 143 -20 hstemhm
          53 114 121 50 -50 219 hintmask 11111000
          288 683 rmoveto
          -146 vlineto
          -142 -17 -93 -104 -155 vvcurveto
          -160 96 -108 139 -3 vhcurveto
          -137 50 140 vlineto
          70 9 62 33 40 48 -30 29 rcurveline
          -47 -46 -45 -21 -50 -3 rrcurveto
          449 vlineto
          23 -5 16 -12 20 -23 rrcurveto
          -34 25 12 -7 24 hhcurveto
          hintmask 11110100
          65 callsubr
          hvcurveto
          hintmask 11111000
          51 -70 35 -99 2 vhcurveto
          143 vlineto
          -171 -407 rmoveto
          130 42 74 79 11 vhcurveto
          -445 vlineto
          -79 19 -42 79 132 vvcurveto
          endchar
        </CharString>
        <CharString name="circumflex">
          -258 672 -21 129 -20 hstem
          139 780 -92 callsubr
        </CharString>
        <CharString name="circumflex.cap">
          -258 872 -21 109 -20 hstem
          129 960 -92 callgsubr
        </CharString>
        <CharString name="colon">
          -341 -10 131 195 131 hstem
          77 131 vstem
          77 13 callsubr
          326 vmoveto
          14 callgsubr
        </CharString>
        <CharString name="comma">
          -353 -154 -21 175 121 hstemhm
          67 67 callgsubr
          hintmask 11100000
          72 -175 12 callgsubr
          hintmask 11010000
          40 callgsubr
        </CharString>
        <CharString name="commaaccent">
          -464 -239 -21 96 100 hstem
          20 122 vstem
          47 -260 rmoveto
          -103 callsubr
        </CharString>
        <CharString name="copyright">
          262 -10 48 119 41 371 40 123 48 hstem
          57 48 121 87 470 48 vstem
          -50 callgsubr
          -199 -81 rmoveto
          -70 -19 -43 -37 -65 hhcurveto
          -93 -51 64 117 119 52 71 90 65 50 -37 -60 16 hvcurveto
          26 hlineto
          -5 131 rlineto
          -21 hlineto
          -10 -35 rlineto
          29 -46 -36 12 -44 hhcurveto
          -133 -91 -95 -139 -132 85 -86 133 99 55 60 88 19 hvcurveto
          endchar
        </CharString>
        <CharString name="currency">
          -13 43 -21 24 50 335 50 25 -20 hstem
          89 50 335 50 vstem
          65 57 rmoveto
          34 -34 71 71 rlineto
          -31 37 46 -17 53 hhcurveto
          52 46 16 31 38 hvcurveto
          71 -71 35 35 -71 71 rlineto
          30 37 17 46 52 vvcurveto
          52 -17 46 -31 38 vhcurveto
          72 72 -35 35 -72 -72 rlineto
          30 -38 -45 17 -52 hhcurveto
          -52 -46 -17 -30 -37 hvcurveto
          -72 72 -35 -35 72 -72 rlineto
          -31 -38 -16 -46 -52 vvcurveto
          -52 17 -46 30 -37 vhcurveto
          3 135 rmoveto
          92 75 76 92 92 76 -76 -92 -92 -76 -75 -92 -92 -75 75 92 vhcurveto
          endchar
        </CharString>
        <CharString name="d">
          49 -10 48 454 48 0 222 68 46 callsubr
          305 96 hintmask 10111100
          -98 callgsubr
          hvcurveto
          hintmask 11011100
          24 callgsubr
          endchar
        </CharString>
        <CharString name="dagger">
          -74 -239 -21 689 124 227 -20 hstemhm
          215 82 -40 40 -40 82 hintmask 11101000
          92 429 rmoveto
          49 callgsubr
          rrcurveto
          29 -108 26 -246 -167 vvcurveto
          40 hlineto
          167 26 246 29 108 vhcurveto
          0 callsubr
          hintmask 11100100
          49 callsubr
          hintmask 11110000
          -35 -27 -27 -35 -56 38 -30 3 -120 hvcurveto
          8 -91 -28 33 -45 hhcurveto
          -35 -27 -27 -35 -35 27 -27 35 hvcurveto
          endchar
        </CharString>
        <CharString name="daggerdbl">
          -32 -239 -21 227 124 338 124 227 -20 hstemhm
          236 82 -41 41 -41 83 hintmask 11111000
          373 261 rmoveto
          0 callsubr
          hintmask 11110010
          49 callsubr
          hintmask 11111000
          -35 -27 -27 -35 hvcurveto
          hintmask 11110100
          -56 38 -30 3 -120 vhcurveto
          8 -91 -28 33 -45 hhcurveto
          -35 -27 -27 -35 -35 27 -27 35 49 callgsubr
          37 -58 17 -53 1 -99 rrcurveto
          8 -91 -28 32 -46 hhcurveto
          -35 -27 -27 -35 -35 27 -27 35 45 28 33 8 91 hvcurveto
          hintmask 11111000
          -3 -120 -38 -30 -56 vvcurveto
          -35 27 -27 35 vhcurveto
          hintmask 11110010
          35 27 27 35 hvcurveto
          hintmask 11111000
          55 -37 30 -5 121 vhcurveto
          -9 90 27 -32 46 hhcurveto
          35 27 27 35 35 -27 27 -35 -46 -28 -32 -8 -89 hvcurveto
          99 18 55 37 56 vhcurveto
          endchar
        </CharString>
        <CharString name="dcaron">
          49 -10 48 454 48 140 100 50 -20 hstem
          48 113 305 96 80 122 vstem
          -98 callgsubr
          -30 callgsubr
          hvcurveto
          20 callgsubr
          205 279 rmoveto
          -103 callsubr
        </CharString>
        <CharString name="dcroat">
          49 -10 48 454 48 0 58 0 53 0 111 68 46 callsubr
          207 194 -96 96 -78 163 hintmask 1101011001000000
          484 -10 rmoveto
          166 11 rlineto
          34 vlineto
          -62 -11 9 32 -8 hvcurveto
          hintmask 1101011100000000
          -6 25 -1 60 92 vvcurveto
          345 vlineto
          hintmask 1101011001000000
          85 53 hlineto
          hintmask 1100111100000000
          -85 179 hlineto
          -205 -38 rlineto
          -30 vlineto
          69 27 -11 -29 7 hvcurveto
          2 -11 2 -25 1 -35 rrcurveto
          -97 hlineto
          hintmask 1101011100000000
          -53 vlineto
          hintmask 1010111010000000
          98 -125 hlineto
          46 -46 -49 21 -63 hhcurveto
          -150 -110 -116 -158 -161 109 -115 151 73 51 27 67 48 hvcurveto
          hintmask 1101011001000000
          4 hlineto
          -20 155 rmoveto
          -72 -7 -37 -19 -29 vhcurveto
          -40 -26 -57 -23 -47 hhcurveto
          -96 -51 92 141 -30 callgsubr
          hvcurveto
          20 callgsubr
          endchar
        </CharString>
        <CharString name="ddotbelow">
          49 -25 callsubr
          96 48 454 48 0 222 68 46 callsubr
          85 124 96 96 hintmask 11011111
          -98 callgsubr
          hvcurveto
          hintmask 11101111
          24 callgsubr
          -218 -473 -104 callsubr
        </CharString>
        <CharString name="degree">
          -280 540 30 179 31 hstem
          53 30 179 31 vstem
          53 660 rmoveto
          -66 54 -54 66 66 54 54 66 66 -54 54 -66 -66 -54 -54 -66 vhcurveto
          30 hmoveto
          49 41 40 49 49 40 -40 -49 -49 -40 -41 -49 -49 -41 41 49 vhcurveto
          endchar
        </CharString>
        <CharString name="dieresis">
          -303 651 116 hstem
          20 47 callgsubr
          vstem
          20 709 rmoveto
          -85 callgsubr
          167 hmoveto
          -85 callgsubr
          endchar
        </CharString>
        <CharString name="dieresis.cap">
          -303 859 101 hstem
          20 101 81 101 vstem
          20 910 -93 callgsubr
        </CharString>
        <CharString name="divide">
          -27 97 131 85 50 84 131 hstem
          237 131 vstem
          237 162 -76 callgsubr
          350 vmoveto
          -89 callsubr
          297 -149 40 callsubr
        </CharString>
        <CharString name="dollar">
          -4 -149 -21 161 50 -50 239 670 -20 hstemhm
          82 94 112 55 131 104 hintmask 11011110
          288 900 rmoveto
          -121 vlineto
          -124 -8 -82 -83 -120 vvcurveto
          -136 104 -49 102 -42 vhcurveto
          -300 vlineto
          -92 3 -31 40 -11 42 rrcurveto
          hintmask 10111110
          33 -9 -7 71 -51 hhcurveto
          -25 -24 -17 -45 -101 117 -70 133 -6 hvcurveto
          -161 55 162 vlineto
          139 12 96 87 126 vvcurveto
          98 -60 64 -175 76 vhcurveto
          276 vlineto
          -15 136 -68 -146 88 hhcurveto
          32 20 20 34 74 -95 69 -113 11 hvcurveto
          122 vlineto
          131 -731 rmoveto
          -68 -44 -47 -87 -11 vhcurveto
          274 vlineto
          72 -32 59 -38 -78 vvcurveto
          -298 449 rmoveto
          61 43 41 69 10 vhcurveto
          -251 vlineto
          -78 39 -34 45 55 vvcurveto
          endchar
        </CharString>
        <CharString name="dotaccent">
          -462 681 124 hstem
          20 124 vstem
          20 743 -104 callsubr
        </CharString>
        <CharString name="dotaccent.cap">
          -461 852 107 hstem
          30 107 vstem
          30 904 -63 callsubr
        </CharString>
        <CharString name="dotbelow">
          -462 -25 callsubr
          hstem
          20 124 vstem
          20 -168 -104 callsubr
        </CharString>
        <CharString name="dotlessi">
          65 callgsubr
          503 -20 hstemhm
          32 196 vstemhm
          -58 callsubr
          hintmask 11100000
          -80 callgsubr
          endchar
        </CharString>
        <CharString name="dotlessj">
          -322 -260 43 757 -20 hstem
          115 98 vstem
          213 540 rmoveto
          -196 -38 rlineto
          -35 -25 callgsubr
          -31 6 hvcurveto
          5 -18 2 23 callsubr
          -81 callsubr
          endchar
        </CharString>
        <CharString name="e">
          -46 callgsubr
          hstem
          49 113 255 109 vstem
          -107 callsubr
          endchar
        </CharString>
        <CharString name="eacute">
          -46 callgsubr
          263 -20 hstem
          49 113 255 109 vstem
          -107 callsubr
          -70 288 rmoveto
          -101 callsubr
          endchar
        </CharString>
        <CharString name="ebreve">
          -46 callgsubr
          106 69 -69 130 hstemhm
          49 113 255 109 hintmask 11101110
          -107 callsubr
          57 413 rmoveto
          hintmask 11110110
          8 callgsubr
          hintmask 11101110
          -68 callsubr
        </CharString>
        <CharString name="ecaron">
          -46 callgsubr
          240 -20 hstem
          49 113 255 109 vstem
          -107 callsubr
          1 288 rmoveto
          -80 callsubr
        </CharString>
        <CharString name="ecircumflex">
          -46 callgsubr
          240 -20 hstem
          49 113 255 109 vstem
          -107 callsubr
          -89 417 -92 callsubr
        </CharString>
        <CharString name="edieresis">
          -46 callgsubr
          111 116 hstemhm
          49 113 10 47 callgsubr
          -38 109 hintmask 11111110
          491 -54 callgsubr
          -75 callsubr
          hintmask 11111101
          27 4 2 18 130 -75 73 -128 -161 -113 -117 -164 -160 106 -109 156 85 68 33 70 58 hvcurveto
          -349 270 rmoveto
          85 17 46 44 71 hhcurveto
          67 43 -40 -61 -24 -6 -4 -54 hvcurveto
          -185 346 rmoveto
          -85 callgsubr
          hintmask 11111110
          167 hmoveto
          -85 callgsubr
          endchar
        </CharString>
        <CharString name="edotaccent">
          -46 callgsubr
          141 124 hstem
          49 113 89 124 42 109 vstem
          -107 callsubr
          -106 380 -104 callsubr
        </CharString>
        <CharString name="edotbelow">
          -53 -25 callsubr
          96 52 275 46 129 48 hstem
          49 113 88 124 43 109 vstem
          -107 callsubr
          -107 -531 -104 callsubr
        </CharString>
        <CharString name="egrave">
          -46 callgsubr
          263 -20 hstem
          49 113 255 109 vstem
          -107 callsubr
          89 288 -82 callgsubr
        </CharString>
        <CharString name="eight">
          -20 -10 46 699 45 hstemhm
          59 95 -68 86 261 83 -62 91 hintmask 11100100
          329 331 rmoveto
          93 -54 32 -38 -60 vvcurveto
          -87 -59 -56 -91 -92 -58 57 90 76 40 64 75 42 vhcurveto
          116 68 rmoveto
          hintmask 11011000
          91 44 40 59 67 vvcurveto
          53 -27 48 -49 34 vhcurveto
          27 -40 -49 15 -51 hhcurveto
          -60 -50 -19 -37 -40 hvcurveto
          -41 -39 -23 -51 -54 vvcurveto
          -80 46 -63 95 -51 vhcurveto
          hintmask 11100100
          -112 -54 -56 -69 -83 vvcurveto
          -107 105 -83 136 139 106 96 126 91 -54 74 -106 56 vhcurveto
          -89 46 rmoveto
          hintmask 11011000
          -88 47 -36 40 53 vvcurveto
          69 49 47 74 79 59 -59 -78 -54 -33 -52 -57 -38 vhcurveto
          endchar
        </CharString>
        <CharString name="eightinferior">
          -346 -10 23 270 23 hstemhm
          47 22 callgsubr
          hintmask 11110000
          150 30 callsubr
          -96 callgsubr
          hintmask 11101000
          -79 callsubr
          endchar
        </CharString>
        <CharString name="eightsuperior">
          -348 464 23 270 23 hstemhm
          47 22 callgsubr
          hintmask 11110000
          150 600 -2 callsubr
          -96 callgsubr
          hintmask 11101000
          -79 callsubr
          endchar
        </CharString>
        <CharString name="ellipsis">
          71 -10 131 hstem
          67 131 85 131 85 131 cntrmask 01110000
          67 13 callsubr
          216 hmoveto
          -89 callsubr
          216 hmoveto
          14 callgsubr
        </CharString>
        <CharString name="emacron">
          -46 callgsubr
          162 50 hstem
          49 113 255 109 vstem
          -107 callsubr
          91 339 -41 callsubr
        </CharString>
        <CharString name="emdash">
          486 248 83 hstem
          1035 248 rmoveto
          83 -958 -83 vlineto
          endchar
        </CharString>
        <CharString name="endash">
          98 248 83 hstem
          647 248 rmoveto
          83 -570 -83 vlineto
          endchar
        </CharString>
        <CharString name="eng">
          38 -33 callgsubr
          62 callsubr
          hstemhm
          121 95 273 95 hintmask 10111100
          216 291 rmoveto
          63 4 17 14 27 vhcurveto
          54 28 54 34 59 hhcurveto
          83 31 -53 -151 hvcurveto
          -350 vlineto
          -111 -25 -43 callgsubr
          hintmask 01111100
          -81 callsubr
          326 vlineto
          85 -8 44 -23 31 vhcurveto
          34 -27 -54 22 -61 hhcurveto
          -79 -71 -37 -62 -50 hvcurveto
          -4 hlineto
          -12 99 -160 -38 rlineto
          -32 vlineto
          58 14 -6 -36 8 hvcurveto
          4 -17 2 -50 -78 vvcurveto
          -133 vlineto
          hintmask 10111100
          -73 callgsubr
          endchar
        </CharString>
        <CharString name="eogonek">
          -53 -234 60 164 52 275 46 129 48 hstemhm
          49 113 -16 79 192 109 hintmask 11110110
          371 -66 callgsubr
          36 36 46 56 34 hvcurveto
          82 2 66 32 57 69 -31 28 rcurveline
          -55 -50 -47 -24 -55 hhcurveto
          hintmask 11111010
          -75 callsubr
          27 4 2 18 130 -75 73 -128 -161 -113 -117 -164 -142 83 -101 126 -21 hvcurveto
          hintmask 11110110
          -71 -37 -41 -52 -55 -57 callgsubr
          -227 515 18 callgsubr
        </CharString>
        <CharString name="equal">
          -6 252 50 120 50 hstem
          537 472 rmoveto
          -454 -50 454 hlineto
          -120 vmoveto
          -454 -50 454 hlineto
          endchar
        </CharString>
        <CharString name="eth">
          14 -10 45 414 49 289 -20 hstem
          50 125 273 127 vstem
          175 244 rmoveto
          129 50 76 85 85 53 -78 -127 -129 -54 -80 -85 -84 -50 77 132 vhcurveto
          -15 502 rmoveto
          68 -24 39 -19 30 -23 -121 -71 rcurveline
          24 -32 130 75 58 -55 41 -77 27 -106 rlinecurve
          -3 -2 rlineto
          56 -28 -54 30 -71 hhcurveto
          -143 -107 -113 -141 -146 113 -108 145 154 113 132 186 151 -68 146 -117 82 hvcurveto
          117 68 -25 32 -130 -75 -47 28 -64 22 -62 18 rlinecurve
          endchar
        </CharString>
        <CharString name="etilde">
          -46 callgsubr
          112 -34 callgsubr
          -4 -20 hstemhm
          49 113 255 109 hintmask 1110101110000000
          -107 callsubr
          -188 297 -53 callgsubr
          hintmask 1111001110000000
          -93 callsubr
          hintmask 1110010110000000
          -78 callsubr
        </CharString>
        <CharString name="exclam">
          -318 -10 131 659 -20 hstemhm
          89 131 -90 48 hintmask 11100000
          89 13 callsubr
          hintmask 11010000
          89 152 rmoveto
          213 10 72 16 88 vhcurveto
          15 80 0 17 37 vvcurveto
          36 -25 30 -40 vhcurveto
          hintmask 11100000
          -40 -25 -30 -36 -40 1 -14 14 -76 hvcurveto
          hintmask 11010000
          17 -92 9 -71 -214 vvcurveto
          endchar
        </CharString>
        <CharString name="exclamdown">
          -318 11 -21 659 131 hstemhm
          89 131 -90 48 hintmask 11100000
          89 715 rmoveto
          -37 29 -29 36 37 29 29 37 36 -29 29 -37 -36 -29 -29 -36 vhcurveto
          hintmask 11010000
          41 -152 rmoveto
          -214 -9 -71 -17 -92 vhcurveto
          hintmask 11100000
          -14 -76 -1 -14 -40 vvcurveto
          -36 25 -30 40 40 25 30 36 37 0 17 -15 80 vhcurveto
          hintmask 11010000
          -16 88 -10 72 213 vvcurveto
          endchar
        </CharString>
        <CharString name="f">
          -214 26 callgsubr
          201 115 -48 61 callsubr
          hintmask 11011000
          22 467 rmoveto
          113 -314 hlineto
          -101 -10 -13 -76 -4 10 callgsubr
          -84 2 -20 25 99 vvcurveto
          -46 callsubr
          -18 callsubr
          hintmask 11101000
          -24 29 16 -21 callsubr
          40 -58 28 -82 -149 -84 66 callsubr
          -72 -113 vlineto
          endchar
        </CharString>
        <CharString name="f_b">
          406 0 37 -27 -21 478 47 -21 47 242 61 callsubr
          240 96 306 113 hintmask 10101111
          565 830 rmoveto
          -89 -23 rlineto
          14 -25 -38 9 -46 hhcurveto
          -147 -85 28 callgsubr
          -77 52 callgsubr
          -76 -18 -35 callgsubr
          -711 22 vlineto
          47 67 rlineto
          hintmask 01011111
          -48 42 71 -30 75 -48 callgsubr
          hlineto
          2 -161 rmoveto
          130 53 65 91 94 66 -95 -136 vhcurveto
          hintmask 10101111
          7 callgsubr
          vhcurveto
          endchar
        </CharString>
        <CharString name="f_f">
          103 26 callgsubr
          201 115 -88 -41 callgsubr
          hintmask 11001110
          226 467 rmoveto
          228 -314 hlineto
          -15 callsubr
          -46 callsubr
          -18 callsubr
          hintmask 11100110
          -24 29 16 -21 callsubr
          40 -58 28 -82 -92 -69 -39 -44 -38 hvcurveto
          hintmask 11010110
          21 -23 -44 22 -56 hhcurveto
          -149 -82 -91 -153 -2 hvcurveto
          -32 -113 -47 113 -39 callgsubr
          353 vmoveto
          38 vlineto
          67 4 36 12 26 vhcurveto
          -48 callsubr
        </CharString>
        <CharString name="f_f_b">
          724 0 35 -25 -21 478 47 -21 47 202 -41 callgsubr
          239 96 306 113 hintmask 1010011111000000
          883 830 rmoveto
          -88 -33 callsubr
          -90 -60 -32 -59 -42 hvcurveto
          hintmask 1010101111000000
          31 -27 -46 20 -56 hhcurveto
          -148 -85 66 callsubr
          -32 -113 -47 113 48 callgsubr
          -9 -17 -67 21 callsubr
          -76 -18 27 99 hvcurveto
          306 228 4 callsubr
          -76 2 -18 25 99 vvcurveto
          -46 callsubr
          hintmask 1010011111000000
          156 35 34 73 36 27 -11 -41 47 vhcurveto
          21 -18 rlineto
          -712 22 vlineto
          47 67 rlineto
          hintmask 0101011111000000
          -48 42 71 -30 75 -48 callgsubr
          hlineto
          2 -161 rmoveto
          130 53 65 91 39 callsubr
          vhcurveto
          hintmask 1010101111000000
          -659 305 rmoveto
          38 vlineto
          -32 callgsubr
        </CharString>
        <CharString name="f_f_h">
          740 26 callgsubr
          -29 55 202 -41 callgsubr
          240 96 278 99 hintmask 1010111110000000
          886 -91 callgsubr
          381 hlineto
          -6 -4 3 4 -86 -33 callsubr
          -90 -60 -32 -59 -42 hvcurveto
          hintmask 1101011110000000
          31 -27 -46 20 -56 hhcurveto
          -149 -82 -91 -153 -2 hvcurveto
          -32 -113 -47 113 -39 callgsubr
          306 228 48 callgsubr
          -10 -13 -76 -4 52 callgsubr
          -76 2 -18 25 99 vvcurveto
          -46 callsubr
          76 5 27 11 26 vhcurveto
          hintmask 1100111110000000
          29 callsubr
          -559 vlineto
          -101 -9 -11 -77 -5 -61 callsubr
          -660 355 rmoveto
          19 callsubr
          hintmask 1101011110000000
          -48 callsubr
        </CharString>
        <CharString name="f_f_i">
          347 26 callgsubr
          206 110 -88 -41 callgsubr
          223 98 hintmask 11001111
          869 540 rmoveto
          -161 -26 rlineto
          -160 78 hlineto
          155 39 35 35 callgsubr
          hintmask 11100111
          -23 callsubr
          -100 -68 -36 -56 -43 hvcurveto
          hintmask 11010111
          34 -37 -40 18 -54 hhcurveto
          -148 -85 66 callsubr
          -32 -113 -47 113 48 callgsubr
          -7 -17 -69 21 callsubr
          -76 -18 11 callsubr
          -73 -21 24 87 hvcurveto
          321 13 callgsubr
          -13 -23 -73 56 callgsubr
          -643 352 rmoveto
          38 vlineto
          37 callsubr
          18 -5 -28 33 vhcurveto
          15 -13 18 -14 17 -12 rrcurveto
          -156 vlineto
          endchar
        </CharString>
        <CharString name="f_f_j">
          334 32 callgsubr
          432 46 207 110 -88 -41 callgsubr
          223 98 hintmask 1011001111000000
          869 540 rmoveto
          -161 -27 rlineto
          -160 79 hlineto
          155 39 35 35 callgsubr
          hintmask 1011100111000000
          -23 callsubr
          -100 -68 -36 -56 -43 hvcurveto
          hintmask 1011010111000000
          34 -37 -40 18 -54 hhcurveto
          -148 -85 66 callsubr
          -32 -113 -47 113 48 callgsubr
          -10 -17 -66 21 callsubr
          -75 -19 11 callsubr
          -72 -22 24 87 hvcurveto
          321 -6 callgsubr
          hintmask 0111010111000000
          33 -16 -12 14 -24 hhcurveto
          -32 -19 -17 -30 -55 60 -38 85 132 73 92 166 hvcurveto
          -643 516 rmoveto
          38 vlineto
          -32 callgsubr
        </CharString>
        <CharString name="f_f_k">
          665 26 callgsubr
          -19 35 212 -41 callgsubr
          240 95 hintmask 10101111
          1023 hmoveto
          263 35 hlineto
          -43 -26 12 43 -37 -17 callsubr
          43 49 20 10 49 hhcurveto
          35 -260 -35 vlineto
          57 24 -10 -10 -12 -7 -11 -82 -80 hvcurveto
          -93 -91 rlineto
          549 vlineto
          -88 -33 callsubr
          -90 -60 -32 -59 -42 hvcurveto
          hintmask 11010111
          31 -27 -46 20 -56 hhcurveto
          -148 -85 66 callsubr
          -32 -113 -47 113 48 callgsubr
          -9 -17 -67 21 callsubr
          -75 -19 27 99 hvcurveto
          306 228 -3 callgsubr
          hintmask 11001111
          156 35 34 73 36 27 -11 -41 47 vhcurveto
          22 -19 rlineto
          -559 vlineto
          -95 -16 -22 -80 10 callgsubr
          -79 -14 21 103 hvcurveto
          16 callgsubr
          rlineto
          46 -55 9 -16 -8 vvcurveto
          -7 -9 -4 -49 vhcurveto
          -797 479 rmoveto
          38 vlineto
          hintmask 11010111
          -32 callgsubr
        </CharString>
        <CharString name="f_f_l">
          371 26 callgsubr
          228 -41 callgsubr
          240 93 hintmask 11011110
          881 830 rmoveto
          -86 -33 callsubr
          -90 -60 -32 -59 -42 hvcurveto
          hintmask 11101110
          31 -27 -46 20 -56 hhcurveto
          -149 -82 -91 -153 -2 hvcurveto
          -32 -113 -47 113 -39 callgsubr
          306 228 48 callgsubr
          -10 -13 -76 -4 52 callgsubr
          -76 2 -18 25 99 vvcurveto
          -46 callsubr
          76 5 27 11 26 vhcurveto
          hintmask 11011110
          29 callsubr
          -562 vlineto
          -92 -13 -18 -71 -4 -39 callsubr
          -77 3 -12 17 101 vvcurveto
          -655 358 rmoveto
          19 callsubr
          hintmask 11101110
          -48 callsubr
        </CharString>
        <CharString name="f_f_t">
          431 -10 49 -18 -21 467 47 201 115 -88 -41 callgsubr
          231 98 hintmask 1010011110000000
          779 -86 callsubr
          -64 -23 -69 -62 -57 hhcurveto
          -151 78 hlineto
          -18 callsubr
          hintmask 1011001110000000
          -24 29 16 -21 callsubr
          40 -58 28 -82 -92 -69 -39 -44 -38 hvcurveto
          hintmask 0110101110000000
          21 -23 -44 22 -56 hhcurveto
          -149 -82 -91 -153 -2 hvcurveto
          -32 -113 -47 113 -39 callgsubr
          306 228 -39 callgsubr
          306 vlineto
          -322 47 rmoveto
          38 vlineto
          67 4 36 12 26 vhcurveto
          -48 callsubr
        </CharString>
        <CharString name="f_h">
          421 26 callgsubr
          -29 55 242 61 callsubr
          240 96 278 99 hintmask 10111110
          567 287 rmoveto
          61 3 19 14 28 vhcurveto
          56 29 55 34 62 hhcurveto
          82 31 -57 -150 hvcurveto
          -126 vlineto
          -101 -8 -16 -76 vhcurveto
          -35 265 35 vlineto
          -76 -6 15 109 hvcurveto
          160 vlineto
          85 -10 47 -23 30 vhcurveto
          36 -28 -55 23 -61 hhcurveto
          -73 -82 -38 -53 -41 hvcurveto
          -4 381 hlineto
          -6 -4 3 4 -86 -4 callgsubr
          hintmask 11011110
          -72 -113 -47 113 -3 callgsubr
          156 35 34 73 36 27 -11 -41 47 vhcurveto
          22 -19 rlineto
          -559 vlineto
          -101 -10 -16 -76 -39 callsubr
          -75 -7 14 110 hvcurveto
          endchar
        </CharString>
        <CharString name="f_i">
          25 26 callgsubr
          206 110 -48 48 hstemhm
          132 94 223 98 hintmask 11011100
          547 540 rmoveto
          -161 -26 rlineto
          -160 78 hlineto
          154 39 36 35 callgsubr
          hintmask 11101100
          -26 callgsubr
          -68 -16 27 99 hvcurveto
          306 13 callgsubr
          -12 -23 -74 56 callgsubr
          endchar
        </CharString>
        <CharString name="f_j">
          12 32 callgsubr
          432 46 207 110 -48 48 hstemhm
          132 94 223 98 hintmask 10110111
          547 540 rmoveto
          -161 -27 rlineto
          -160 79 hlineto
          154 39 36 35 callgsubr
          hintmask 10111011
          -26 callgsubr
          -67 -17 27 99 hvcurveto
          306 -6 callgsubr
          hintmask 01111011
          -81 callsubr
          endchar
        </CharString>
        <CharString name="f_k">
          345 26 callgsubr
          -19 35 252 61 callsubr
          239 95 0 180 hintmask 10111010
          703 hmoveto
          263 35 hlineto
          -46 -22 11 44 -38 -17 callsubr
          43 49 19 10 50 hhcurveto
          35 -260 -35 vlineto
          61 18 -6 -16 -12 -10 -14 -77 -75 hvcurveto
          -93 -91 rlineto
          549 vlineto
          -87 -4 callgsubr
          hintmask 11011100
          -72 -113 -47 113 -3 callgsubr
          155 35 35 71 43 23 -13 -39 46 vhcurveto
          21 -18 rlineto
          -560 vlineto
          -95 -16 -22 -80 10 callgsubr
          -80 -13 21 103 hvcurveto
          16 callgsubr
          rlineto
          46 -55 7 -13 -9 vvcurveto
          -10 -9 -3 -47 vhcurveto
          endchar
        </CharString>
        <CharString name="f_l">
          52 26 callgsubr
          268 48 hstem
          135 94 240 93 vstem
          562 830 rmoveto
          -86 -4 callgsubr
          -17 callgsubr
          -12 -17 -74 52 callgsubr
          -74 -20 -35 callgsubr
          -562 vlineto
          -92 -13 -22 -71 -39 callsubr
          -76 -13 20 101 hvcurveto
          endchar
        </CharString>
        <CharString name="f_t">
          136 -10 49 -18 -21 467 47 201 115 -48 61 callsubr
          255 98 hintmask 10101110
          484 -86 callsubr
          -64 -23 -69 -62 -57 hhcurveto
          -175 78 hlineto
          37 callsubr
          14 -6 -28 33 vhcurveto
          hintmask 01110110
          -24 28 17 -21 callsubr
          40 -58 28 -82 -148 -85 28 callgsubr
          -77 10 callgsubr
          -84 -20 27 99 hvcurveto
          306 vlineto
          endchar
        </CharString>
        <CharString name="five">
          -58 -10 44 -44 195 277 43 156 101 19 -20 hstemhm
          385 124 hintmask 10110100
          245 661 rmoveto
          88 hlineto
          83 57 43 76 16 hvcurveto
          hintmask 10101100
          -6 1 rlineto
          hintmask 10110100
          -12 -25 -47 -7 -61 hhcurveto
          -52 -36 6 12 -29 hvcurveto
          -107 -413 rlineto
          -1 -3 0 -3 -2 vvcurveto
          -12 9 -8 13 11 5 4 24 8 vhcurveto
          66 22 35 29 55 hhcurveto
          73 29 -52 -113 -159 -62 -104 -104 hvcurveto
          hintmask 01110100
          -125 59 151 -83 hhcurveto
          -31 -17 -21 -36 -80 81 -58 113 165 128 125 159 131 -89 100 -118 -39 -43 -11 -15 -20 hvcurveto
          -2 3 rlineto
          endchar
        </CharString>
        <CharString name="fiveeighths">
          46 33 callsubr
          158 23 55 -20 128 22 60 41 -3 -20 30 -20 hstemhm
          76 205 -55 55 107 22 callgsubr
          hintmask 0111110101011000
          637 -66 callsubr
          398 30 callsubr
          hintmask 1011111001011000
          -96 callgsubr
          hintmask 1011111001010100
          -79 callsubr
          -331 556 rmoveto
          36 hlineto
          hintmask 1011110011011000
          45 callsubr
          hintmask 1011111001011000
          -3 -7 -31 -4 -23 hhcurveto
          hintmask 1011110010111000
          -62 callsubr
          hintmask 1011111001011000
          -37 callsubr
        </CharString>
        <CharString name="fiveinferior">
          -364 -10 23 163 54 callgsubr
          hintmask 11101000
          110 258 rmoveto
          36 hlineto
          hintmask 11011000
          45 callsubr
          hintmask 11101000
          -3 -7 -31 -4 -23 hhcurveto
          hintmask 11010100
          -62 callsubr
          hintmask 11101000
          -37 callsubr
        </CharString>
        <CharString name="fivesuperior">
          -365 464 23 55 -20 128 54 callgsubr
          hintmask 11110100
          110 732 rmoveto
          36 hlineto
          hintmask 11101100
          45 callsubr
          hintmask 11110100
          -3 -7 -31 -4 -23 hhcurveto
          hintmask 11101010
          -62 callsubr
          hintmask 11110100
          -37 callsubr
        </CharString>
        <CharString name="florin">
          41 -260 49 -49 136 543 48 198 115 -48 48 hstemhm
          hintmask 10110000
          65 -211 rmoveto
          -23 -11 10 43 -24 hvcurveto
          hintmask 01101000
          23 -13 -18 11 -22 hhcurveto
          -29 -18 -19 -30 -50 51 -37 69 82 64 53 108 49 hvcurveto
          34 76 22 86 26 163 31 193 rcurveline
          116 hlineto
          13 48 rlineto
          -124 hlineto
          10 56 rlineto
          140 24 40 69 57 hhcurveto
          21 15 -8 -26 32 hvcurveto
          hintmask 10110000
          -24 29 16 -9 16 hhcurveto
          24 20 20 25 40 -57 30 -76 -131 -95 -95 -160 -30 hvcurveto
          -11 -58 rlineto
          -100 hlineto
          -14 -48 rlineto
          105 hlineto
          -50 -337 rlineto
          -211 -32 -33 -82 -55 hhcurveto
          endchar
        </CharString>
        <CharString name="four">
          -41 0 38 141 50 551 -20 hstem
          303 98 93 35 vstem
          18 179 rmoveto
          285 -24 hlineto
          -94 -16 -23 -88 vhcurveto
          -38 281 38 vlineto
          -66 -13 21 103 hvcurveto
          21 vlineto
          83 -2 10 -13 -73 vvcurveto
          35 223 -35 hlineto
          -77 -10 -11 -83 -3 vhcurveto
          553 -31 vlineto
          -352 -551 rlineto
          285 hmoveto
          -235 hlineto
          230 356 rlineto
          5 hlineto
          endchar
        </CharString>
        <CharString name="fourinferior">
          -352 0 29 callgsubr
          72 -49 callgsubr
        </CharString>
        <CharString name="foursuperior">
          -352 468 29 callgsubr
          540 -49 callgsubr
        </CharString>
        <CharString name="fraction">
          -586 50 callgsubr
          321 -66 callsubr
          endchar
        </CharString>
        <CharString name="g">
          -45 callsubr
          -10 callsubr
          hintmask 1010010011000000
          274 215 -55 callsubr
          hintmask 1010100101000000
          -70 callsubr
          hintmask 1011000100100000
          -90 callsubr
          hintmask 1011001000010000
          -54 callsubr
          hintmask 0111001000010000
          -74 callsubr
          endchar
        </CharString>
        <CharString name="gbreve">
          -45 callsubr
          106 69 -69 130 -10 callsubr
          hintmask 1010011000110000
          274 215 -55 callsubr
          hintmask 1010101001010000
          -70 callsubr
          hintmask 1011001001001000
          -90 callsubr
          hintmask 1011001010000100
          -54 callsubr
          hintmask 0111000110000100
          -74 callsubr
          164 678 rmoveto
          hintmask 1011001010010000
          8 callgsubr
          hintmask 1011000110010000
          -68 callsubr
        </CharString>
        <CharString name="gcircumflex">
          -45 callsubr
          240 -20 -10 callsubr
          hintmask 1010011001100000
          274 215 -55 callsubr
          hintmask 1010101010100000
          -70 callsubr
          hintmask 1011001010010000
          -90 callsubr
          hintmask 1011001100001000
          -54 callsubr
          hintmask 0111001100001000
          -74 callsubr
          27 682 -92 callsubr
        </CharString>
        <CharString name="gcommaaccent">
          -45 callsubr
          111 100 96 -20 hstemhm
          32 89 -47 74 -74 105 48 122 14 106 -106 246 -150 84 hintmask 1010011100111000
          322 847 rmoveto
          -69 -37 -26 -43 -43 vvcurveto
          -44 23 -29 40 35 24 22 31 28 -18 19 -26 -11 -9 -3 -5 -6 vhcurveto
          29 20 24 45 25 vhcurveto
          -70 -606 -55 callsubr
          hintmask 1010101101011000
          -70 callsubr
          hintmask 1011001101010100
          -90 callsubr
          hintmask 1011001110010010
          -54 callsubr
          hintmask 0111001110010010
          -74 callsubr
          endchar
        </CharString>
        <CharString name="gdotaccent">
          -45 callsubr
          141 124 hstemhm
          32 89 -47 74 -74 105 45 124 15 106 -106 246 -150 84 hintmask 1010011001110000
          274 215 -55 callsubr
          hintmask 1010101010110000
          -70 callsubr
          hintmask 1011001010101000
          -90 callsubr
          hintmask 1011001100100100
          -54 callsubr
          hintmask 0111001100100100
          -74 callsubr
          5 645 -104 callsubr
        </CharString>
        <CharString name="germandbls">
          32 0 38 -38 118 -107 -21 446 26 -26 51 293 50 hstemhm
          110 94 225 120 -59 120 hintmask 1000111100000000
          338 830 rmoveto
          -143 -85 -93 -151 hvcurveto
          -433 vlineto
          -101 -11 -14 -75 vhcurveto
          -38 244 38 vlineto
          -52 -12 24 99 hvcurveto
          431 vlineto
          68 4 33 12 26 vhcurveto
          40 18 37 21 49 hhcurveto
          69 36 -50 -97 -100 -39 -46 -85 hvcurveto
          -51 vlineto
          hintmask 0101011010000000
          127 58 -96 -125 -102 -38 -77 -45 -26 -6 26 22 -9 hvcurveto
          23 -9 -15 11 -17 hhcurveto
          -20 -15 -18 -30 hvcurveto
          hintmask 0011011010000000
          -46 41 -34 69 116 94 97 131 141 -88 103 -117 vhcurveto
          5 vlineto
          hintmask 1001011100000000
          104 22 40 64 91 vvcurveto
          110 -88 76 -123 vhcurveto
          endchar
        </CharString>
        <CharString name="grave">
          -351 672 -21 152 -20 hstem
          255 651 -82 callgsubr
        </CharString>
        <CharString name="grave.cap">
          -331 871 -21 110 -20 hstem
          275 850 rmoveto
          -130 77 rlineto
          -78 callgsubr
        </CharString>
        <CharString name="greater">
          -45 93 -21 528 -20 hstem
          84 126 rmoveto
          -54 vlineto
          458 232 rlineto
          64 vlineto
          -458 232 rlineto
          -56 vlineto
          413 -208 rlineto
          endchar
        </CharString>
        <CharString name="guillemotleft">
          -137 34 callsubr
          219 104 -11 callsubr
          341 -158 -11 callsubr
          endchar
        </CharString>
        <CharString name="guillemotright">
          -137 34 callsubr
          440 262 -11 callgsubr
          -1 158 -11 callgsubr
          endchar
        </CharString>
        <CharString name="guilsinglleft">
          -308 34 callsubr
          219 104 -11 callsubr
          endchar
        </CharString>
        <CharString name="guilsinglright">
          -308 34 callsubr
          269 262 -11 callgsubr
          endchar
        </CharString>
        <CharString name="h">
          62 0 42 callgsubr
          278 99 hintmask 11110100
          208 -91 callgsubr
          381 hlineto
          -184 -38 rlineto
          -34 vlineto
          60 15 -8 -32 6 hvcurveto
          hintmask 11101100
          31 callsubr
          hintmask 11110100
          -101 -9 -11 -77 -5 -61 callsubr
          endchar
        </CharString>
        <CharString name="hbar">
          62 0 35 450 55 58 53 0 107 72 -20 hstemhm
          23 183 -96 96 278 99 hintmask 11101101
          208 -91 callgsubr
          149 96 53 -96 179 hlineto
          -184 -38 rlineto
          hintmask 11011101
          -34 vlineto
          60 15 -8 -32 6 hvcurveto
          3 -14 2 -22 1 -31 rrcurveto
          -86 hlineto
          hintmask 11101101
          -53 vlineto
          hintmask 11101011
          87 -446 hlineto
          -101 -9 -11 -77 -5 -61 callsubr
          endchar
        </CharString>
        <CharString name="hcircumflex">
          62 0 35 450 55 240 -20 70 -20 hstemhm
          24 182 -96 96 278 99 hintmask 11111010
          208 -91 callgsubr
          381 hlineto
          -184 -38 rlineto
          -34 vlineto
          60 15 -8 -32 6 hvcurveto
          hintmask 11110110
          31 callsubr
          hintmask 11111010
          -101 -9 -11 -77 -5 -61 callsubr
          133 621 -92 callsubr
        </CharString>
        <CharString name="hdotbelow">
          62 -25 callsubr
          106 42 callgsubr
          77 124 77 99 hintmask 11111011
          208 -91 callgsubr
          381 hlineto
          -184 -38 rlineto
          -34 vlineto
          60 15 -8 -32 6 hvcurveto
          hintmask 11110111
          31 callsubr
          hintmask 11111011
          -101 -9 -11 -77 -5 -61 callsubr
          75 -327 -104 callsubr
        </CharString>
        <CharString name="hungarumlaut">
          -153 651 152 hstem
          67 651 -64 callgsubr
        </CharString>
        <CharString name="hungarumlaut.cap">
          -153 850 110 hstem
          80 850 rmoveto
          -67 callgsubr
          247 hmoveto
          -67 callgsubr
          endchar
        </CharString>
        <CharString name="hyphen">
          18 callsubr
        </CharString>
        <CharString name="i">
          -285 0 4 callgsubr
          hintmask 11100000
          -56 callsubr
          hintmask 11010000
          5 callsubr
          endchar
        </CharString>
        <CharString name="iacute">
          65 callgsubr
          766 -20 hstemhm
          32 196 -98 195 hintmask 11100000
          -58 callsubr
          -80 callgsubr
          -91 489 rmoveto
          137 65 rlineto
          hintmask 11010000
          32 15 19 -61 callgsubr
          -21 -21 -10 -23 -25 vhcurveto
          -130 -119 rlineto
          endchar
        </CharString>
        <CharString name="ibreve">
          65 callgsubr
          428 250 -69 69 -69 130 hstemhm
          42 186 -98 98 hintmask 11000100
          -58 callsubr
          -80 callgsubr
          hintmask 10011000
          53 614 rmoveto
          hintmask 10101000
          8 callgsubr
          hintmask 10011000
          -68 callsubr
        </CharString>
        <CharString name="icircumflex">
          65 callgsubr
          743 -20 hstemhm
          32 196 vstemhm
          -58 callsubr
          hintmask 11100000
          -80 callgsubr
          -93 618 -92 callsubr
        </CharString>
        <CharString name="idieresis">
          65 callgsubr
          614 116 hstemhm
          32 123 -25 98 -22 116 hintmask 11010000
          228 540 rmoveto
          hintmask 11101000
          -196 -38 rlineto
          -37 58 callsubr
          hintmask 11010000
          -80 callgsubr
          -189 547 rmoveto
          -33 25 -25 33 vhcurveto
          hintmask 11101000
          33 25 25 33 33 -25 25 -33 -33 -25 -25 -33 hvcurveto
          167 hmoveto
          -85 callgsubr
          endchar
        </CharString>
        <CharString name="idotbelow">
          -285 -25 callsubr
          106 4 callgsubr
          -115 128 hintmask 11110000
          -56 callsubr
          hintmask 11101000
          5 callsubr
          4 -911 3 callgsubr
        </CharString>
        <CharString name="igrave">
          65 callgsubr
          766 -20 hstem
          130 98 vstem
          -58 callsubr
          -80 callgsubr
          26 489 -82 callgsubr
        </CharString>
        <CharString name="ij">
          19 -260 43 -43 140 120 4 callgsubr
          213 113 -98 98 hintmask 10111010
          -56 callsubr
          hintmask 10110101
          5 callsubr
          441 -203 rmoveto
          -196 -38 rlineto
          -35 -25 callgsubr
          -31 6 hvcurveto
          5 -18 2 23 callsubr
          hintmask 01111001
          -81 callsubr
          hintmask 10111010
          -113 745 -104 callsubr
        </CharString>
        <CharString name="imacron">
          65 callgsubr
          665 50 hstemhm
          32 196 -98 185 hintmask 11100000
          -58 callsubr
          -80 callgsubr
          hintmask 11010000
          87 540 -41 callsubr
        </CharString>
        <CharString name="iogonek">
          -285 -234 60 174 35 646 124 hstemhm
          13 79 -60 196 -115 115 -98 98 hintmask 11110100
          238 -66 callgsubr
          39 44 52 65 35 hvcurveto
          120 35 hlineto
          hintmask 11101000
          -79 3 -14 18 103 vvcurveto
          381 vlineto
          -196 -38 rlineto
          -35 -25 callgsubr
          -31 6 hvcurveto
          hintmask 11110010
          5 -18 2 -52 -77 vvcurveto
          -128 vlineto
          -94 -15 -19 -81 -4 vhcurveto
          -35 102 vlineto
          -78 -37 -45 -55 -57 -57 callgsubr
          hintmask 11110100
          -154 895 -104 callsubr
        </CharString>
        <CharString name="itilde">
          65 callgsubr
          615 -34 callgsubr
          -4 -20 hstemhm
          32 196 hintmask 11001100
          -58 callsubr
          hintmask 10101100
          -80 callgsubr
          -192 498 -53 callgsubr
          hintmask 11001100
          -93 callsubr
          hintmask 10010100
          -78 callsubr
        </CharString>
        <CharString name="j">
          -322 -7 callsubr
          140 801 124 hstemhm
          100 113 -98 98 hintmask 10101000
          213 540 rmoveto
          -196 -38 rlineto
          -35 -25 callgsubr
          -31 6 hvcurveto
          5 -18 2 23 callsubr
          hintmask 01101000
          -81 callsubr
          hintmask 10110000
          -113 745 -104 callsubr
        </CharString>
        <CharString name="jcircumflex">
          -322 -7 callsubr
          140 900 -20 hstemhm
          115 98 hintmask 10110000
          213 540 rmoveto
          -196 -38 rlineto
          -35 -25 callgsubr
          -31 6 hvcurveto
          5 -18 2 23 callsubr
          hintmask 01110000
          -81 callsubr
          -96 782 -92 callsubr
        </CharString>
        <CharString name="k">
          -10 0 27 callgsubr
          hintmask 11100100
          -42 callgsubr
          hintmask 11101000
          12 -18 0 -49 -101 vvcurveto
          -419 vlineto
          hintmask 11110000
          -20 callgsubr
          endchar
        </CharString>
        <CharString name="kcommaaccent">
          -10 -19 callgsubr
          54 27 callgsubr
          -125 122 hintmask 1111100100000000
          -42 callgsubr
          hintmask 1111101010000000
          12 -18 0 -49 -101 vvcurveto
          -419 vlineto
          hintmask 1111110010000000
          -20 callgsubr
          -56 -285 rmoveto
          -103 callsubr
        </CharString>
        <CharString name="kgreenlandic">
          7 0 35 460 35 20 -20 hstemhm
          34 191 -95 95 0 179 hintmask 11000100
          365 hmoveto
          263 35 hlineto
          -44 -23 11 44 -39 -17 callsubr
          44 50 19 9 49 hhcurveto
          35 -260 -35 vlineto
          58 20 -5 -15 -15 -21 -25 -65 -63 hvcurveto
          -93 -91 rlineto
          hintmask 10101000
          269 vlineto
          -193 -38 rlineto
          -34 vlineto
          88 10 -12 -106 hvcurveto
          -208 vlineto
          hintmask 11010000
          -96 -17 -21 -79 10 callgsubr
          -78 -15 20 104 hvcurveto
          16 callgsubr
          rlineto
          39 -47 10 -16 -12 vvcurveto
          -12 -10 -3 -42 vhcurveto
          endchar
        </CharString>
        <CharString name="l">
          -301 0 35 795 -20 hstemhm
          116 93 vstemhm
          209 830 -62 callgsubr
          -431 10 callsubr
          endchar
        </CharString>
        <CharString name="lacute">
          -301 0 35 925 -20 hstemhm
          116 93 vstemhm
          209 810 -62 callgsubr
          -411 10 callsubr
          -86 694 -47 callsubr
          -86 callgsubr
        </CharString>
        <CharString name="lcaron">
          -301 0 35 645 100 50 -20 hstemhm
          116 93 80 122 vstemhm
          209 830 -62 callgsubr
          -431 vlineto
          hintmask 11111000
          -58 callgsubr
          107 428 rmoveto
          -103 callsubr
        </CharString>
        <CharString name="lcommaaccent">
          -301 -19 callgsubr
          54 35 795 -20 hstemhm
          103 122 -109 93 hintmask 11110100
          209 830 -62 callgsubr
          -431 vlineto
          -58 callgsubr
          -79 -406 rmoveto
          hintmask 11111000
          -103 callsubr
        </CharString>
        <CharString name="ldot">
          -223 0 35 316 131 348 -20 hstemhm
          116 93 87 131 vstemhm
          209 830 -62 callgsubr
          -431 vlineto
          hintmask 11111000
          -58 callgsubr
          87 260 rmoveto
          14 callgsubr
        </CharString>
        <CharString name="less">
          -45 93 -21 528 -20 hstem
          84 336 rmoveto
          413 208 rlineto
          56 vlineto
          -458 -232 rlineto
          -64 vlineto
          458 -232 rlineto
          54 vlineto
          endchar
        </CharString>
        <CharString name="logicalnot">
          -1 131 -21 203 50 hstem
          491 50 vstem
          491 110 rmoveto
          50 253 -458 -50 408 hlineto
          endchar
        </CharString>
        <CharString name="lslash">
          -299 0 35 795 -20 hstemhm
          23 187 -173 173 -93 93 -93 172 hintmask 11001000
          210 830 -62 callgsubr
          -173 vlineto
          hintmask 11010000
          -80 -50 rlineto
          -65 vlineto
          hintmask 11001000
          80 50 rlineto
          -193 10 callsubr
          244 vlineto
          hintmask 11000100
          79 49 rlineto
          65 vlineto
          hintmask 11001000
          -79 -49 rlineto
          endchar
        </CharString>
        <CharString name="m">
          447 0 35 450 55 hstemhm
          35 186 276 98 277 98 vstemhm
          221 287 rmoveto
          63 3 18 14 27 vhcurveto
          54 27 58 36 59 hhcurveto
          86 29 -52 -155 hvcurveto
          -126 vlineto
          -101 -8 -11 -76 -5 -39 callsubr
          -78 5 -6 10 110 vvcurveto
          127 vlineto
          63 3 18 14 27 vhcurveto
          54 29 56 36 58 hhcurveto
          86 31 -54 -153 hvcurveto
          -126 vlineto
          -100 -9 -13 -76 -4 -44 callsubr
          -7 10 110 vvcurveto
          159 vlineto
          87 -9 45 -24 31 vhcurveto
          36 -27 -55 22 -62 hhcurveto
          -79 -75 -37 -62 -49 hvcurveto
          -4 hlineto
          63 -22 -60 36 -84 hhcurveto
          -80 -64 -32 -68 -60 hvcurveto
          -5 hlineto
          -13 100 -163 -38 rlineto
          -35 vlineto
          61 13 -6 -34 7 hvcurveto
          hintmask 11111000
          5 -18 2 -53 -76 vvcurveto
          -128 vlineto
          -101 -9 -11 -77 -5 -44 callsubr
          -6 9 111 vvcurveto
          endchar
        </CharString>
        <CharString name="macron">
          -316 702 50 hstem
          290 702 -41 callsubr
        </CharString>
        <CharString name="macron.cap">
          -316 880 50 hstem
          290 880 -41 callsubr
        </CharString>
        <CharString name="minus">
          8 313 50 hstem
          551 363 40 callsubr
        </CharString>
        <CharString name="mu">
          -71 callgsubr
        </CharString>
        <CharString name="multiply">
          -107 168 -21 382 -20 hstem
          105 147 rmoveto
          155 155 154 -154 35 35 -154 154 155 155 -37 37 -155 -155 -154 154 -35 -35 154 -154 -155 -155 rlineto
          endchar
        </CharString>
        <CharString name="n">
          63 0 62 callsubr
          hstemhm
          121 95 273 95 vstemhm
          216 -105 callgsubr
          hintmask 11110000
          -73 callgsubr
          endchar
        </CharString>
        <CharString name="nacute">
          63 0 62 callsubr
          263 -20 hstemhm
          121 95 273 95 vstemhm
          216 -105 callgsubr
          hintmask 11111000
          -73 callgsubr
          94 494 rmoveto
          -101 callsubr
          endchar
        </CharString>
        <CharString name="napostrophe">
          133 0 62 callsubr
          290 -20 hstemhm
          28 94 69 95 273 95 vstemhm
          286 -105 callgsubr
          hintmask 11111100
          -73 callgsubr
          -196 454 3 callsubr
        </CharString>
        <CharString name="ncaron">
          63 0 62 callsubr
          240 -20 hstemhm
          121 95 273 95 vstemhm
          216 -105 callgsubr
          hintmask 11111000
          -73 callgsubr
          182 494 rmoveto
          -80 callsubr
        </CharString>
        <CharString name="ncommaaccent">
          63 -19 callgsubr
          54 62 callsubr
          hstemhm
          121 95 76 122 75 95 vstemhm
          216 -105 callgsubr
          hintmask 11111110
          -73 callgsubr
          103 -407 rmoveto
          -103 callsubr
        </CharString>
        <CharString name="ndotaccent">
          63 0 62 callsubr
          141 124 hstemhm
          121 95 75 124 74 95 vstemhm
          216 -105 callgsubr
          hintmask 11111100
          -73 callgsubr
          75 586 -104 callsubr
        </CharString>
        <CharString name="nine">
          17 -10 45 -45 154 118 49 424 45 hstemhm
          57 125 275 125 hintmask 10111100
          57 511 rmoveto
          -142 102 -107 135 67 48 28 62 43 vhcurveto
          3 -2 rlineto
          -180 -69 -135 -92 vhcurveto
          hintmask 01111100
          -102 32 109 -78 hhcurveto
          -33 -21 -20 -32 -57 77 -45 96 174 143 200 243 204 -107 143 -153 -147 -118 -119 -150 hvcurveto
          400 -73 rmoveto
          -89 -44 -44 -38 -61 hhcurveto
          -82 -44 71 133 150 44 70 92 91 48 -84 -164 hvcurveto
          endchar
        </CharString>
        <CharString name="nineinferior">
          -334 -10 12 callsubr
          198 -52 callgsubr
        </CharString>
        <CharString name="ninesuperior">
          -334 464 12 callsubr
          672 -52 callgsubr
        </CharString>
        <CharString name="ntilde">
          63 0 62 callsubr
          160 28 -28 74 -4 -20 hstemhm
          37 179 -95 95 273 95 hintmask 11010011
          216 -105 callgsubr
          hintmask 11101011
          -73 callgsubr
          -7 503 rmoveto
          30 9 11 10 25 -93 callsubr
          hintmask 11010101
          -78 callsubr
        </CharString>
        <CharString name="numbersign">
          40 21 -21 255 50 170 50 245 -20 hstem
          598 305 rmoveto
          -137 hlineto
          23 170 rlineto
          135 hlineto
          8 50 rlineto
          -134 hlineto
          34 245 rlineto
          -60 hlineto
          -34 -245 rlineto
          -151 hlineto
          35 245 rlineto
          -60 hlineto
          -35 -245 rlineto
          -144 hlineto
          -8 -50 rlineto
          143 hlineto
          -24 -170 rlineto
          -142 hlineto
          -8 -50 rlineto
          140 hlineto
          -38 -255 rlineto
          60 hlineto
          38 255 rlineto
          151 hlineto
          -35 -255 rlineto
          59 hlineto
          37 255 rlineto
          139 hlineto
          -167 220 rmoveto
          -23 -170 rlineto
          -151 hlineto
          24 170 rlineto
          endchar
        </CharString>
        <CharString name="o">
          -16 callgsubr
          hstem
          48 113 332 113 vstem
          -103 callgsubr
          endchar
        </CharString>
        <CharString name="oacute">
          -16 callgsubr
          263 -20 hstem
          48 113 332 113 vstem
          -103 callgsubr
          -43 159 rmoveto
          -101 callsubr
          endchar
        </CharString>
        <CharString name="obreve">
          -16 callgsubr
          106 69 -69 130 hstemhm
          48 113 332 113 hintmask 11011100
          -103 callgsubr
          101 284 rmoveto
          hintmask 11101100
          8 callgsubr
          hintmask 11011100
          -68 callsubr
        </CharString>
        <CharString name="ocircumflex">
          -16 callgsubr
          240 -20 hstem
          48 113 332 113 vstem
          -103 callgsubr
          -45 288 -92 callsubr
        </CharString>
        <CharString name="odieresis">
          -16 callgsubr
          111 116 hstem
          48 113 23 47 callgsubr
          26 113 vstem
          -103 callgsubr
          -141 217 rmoveto
          -85 callgsubr
          167 hmoveto
          -85 callgsubr
          endchar
        </CharString>
        <CharString name="odotbelow">
          28 -25 callsubr
          96 51 451 48 hstem
          48 113 102 124 106 113 vstem
          -103 callgsubr
          -62 -660 -104 callsubr
        </CharString>
        <CharString name="oe">
          391 -10 52 275 46 129 48 hstem
          48 113 332 113 255 109 vstem
          935 -54 callgsubr
          -105 -69 86 133 -3 hvcurveto
          11 vlineto
          18 1 16 3 11 vhcurveto
          329 hlineto
          27 4 2 18 130 -75 73 -128 -94 -77 -39 -65 -48 hvcurveto
          64 -52 -82 40 -89 hhcurveto
          -150 -127 -113 -158 -163 127 -116 150 86 80 38 63 52 hvcurveto
          -64 46 74 -37 92 hhcurveto
          85 68 33 70 58 hvcurveto
          -641 399 rmoveto
          101 67 -91 -133 hvcurveto
          -9 vlineto
          -132 -3 -66 -86 -99 hhcurveto
          -100 -64 89 138 134 65 90 99 hvcurveto
          292 -129 18 callgsubr
        </CharString>
        <CharString name="ogonek">
          -361 -234 60 185 -20 hstem
          0 79 vstem
          225 -66 callgsubr
          42 51 56 72 35 hvcurveto
          4 -53 vlineto
          -94 -37 -55 -60 -63 -57 callgsubr
          endchar
        </CharString>
        <CharString name="ograve">
          -16 callgsubr
          263 -20 hstem
          48 113 332 113 vstem
          -103 callgsubr
          120 159 -82 callgsubr
        </CharString>
        <CharString name="ohungarumlaut">
          -16 callgsubr
          111 152 hstem
          48 113 332 113 vstem
          -103 callgsubr
          -112 159 -64 callgsubr
        </CharString>
        <CharString name="omacron">
          -16 callgsubr
          162 50 hstem
          48 113 332 113 vstem
          -103 callgsubr
          135 210 -41 callsubr
        </CharString>
        <CharString name="one">
          -180 0 38 662 38 42 -20 hstemhm
          69 207 vstemhm
          276 780 rmoveto
          -65 -23 -77 -16 -65 -3 rrcurveto
          -38 vlineto
          66 32 -3 -29 7 hvcurveto
          hintmask 11110000
          4 -16 0 -53 -77 vvcurveto
          -367 vlineto
          -94 -15 -19 -89 -4 vhcurveto
          -38 306 38 vlineto
          -90 3 -14 18 103 vvcurveto
          endchar
        </CharString>
        <CharString name="oneeighth">
          47 33 callsubr
          162 2 callgsubr
          164 22 callgsubr
          hintmask 0111101110000000
          632 -66 callsubr
          hintmask 1011011110000000
          131 780 -87 callsubr
          267 -412 -2 callsubr
          -96 callgsubr
          hintmask 1011101101000000
          -79 callsubr
          endchar
        </CharString>
        <CharString name="onehalf">
          49 0 36 callgsubr
          156 2 callgsubr
          154 43 104 53 hintmask 1101101110000000
          632 -66 callsubr
          hintmask 1101011110000000
          131 780 -87 callsubr
          213 -495 -56 callgsubr
          hintmask 1011101110000000
          -60 callgsubr
        </CharString>
        <CharString name="oneinferior">
          -380 0 64 callsubr
          312 -87 callsubr
          endchar
        </CharString>
        <CharString name="onequarter">
          43 0 97 -25 25 371 2 callgsubr
          248 49 -49 105 hintmask 10110110
          632 -66 callsubr
          hintmask 01101110
          131 780 -87 callsubr
          134 -466 rmoveto
          114 -10 hlineto
          -38 -6 -7 -36 -2 vhcurveto
          hintmask 10110110
          -38 callgsubr
          hintmask 10110101
          19 94 -19 hlineto
          hintmask 10110110
          -27 callgsubr
          hintmask 01110110
          -6 callsubr
          endchar
        </CharString>
        <CharString name="onesuperior">
          -380 468 64 callsubr
          780 -87 callsubr
          endchar
        </CharString>
        <CharString name="onethird">
          47 27 callsubr
          2 callgsubr
          153 46 callgsubr
          hintmask 0011101101101000
          632 -66 callsubr
          hintmask 1001101011101000
          131 780 -87 callsubr
          304 -458 rmoveto
          -40 callsubr
          hintmask 0101101101101000
          -82 callsubr
          hintmask 1001101101011000
          -57 callsubr
          hintmask 1001011101101000
          -83 callsubr
          endchar
        </CharString>
        <CharString name="oogonek">
          27 -234 60 666 48 hstem
          48 113 28 79 225 113 vstem
          414 -66 callgsubr
          37 38 48 58 34 hvcurveto
          135 18 107 110 148 vvcurveto
          157 -129 114 -152 -150 -127 -113 -158 -153 111 -111 137 -13 vhcurveto
          -68 -37 -39 -51 -53 -57 callgsubr
          -118 644 rmoveto
          101 67 -91 -133 -137 -66 -90 -102 -100 -64 89 138 134 65 90 99 hvcurveto
          endchar
        </CharString>
        <CharString name="ordfeminine">
          -248 507 35 -9 -20 188 79 -24 24 hstemhm
          63 62 93 56 hintmask 10101100
          218 620 rmoveto
          -42 -27 -36 -31 -21 -14 16 22 25 25 24 68 25 vhcurveto
          -70 -3 rmoveto
          -64 -28 -21 -23 -34 vvcurveto
          -35 28 -24 44 36 31 19 29 17 vhcurveto
          4 hlineto
          -31 14 -17 30 25 26 11 16 9 vhcurveto
          -7 12 rlineto
          hintmask 01101100
          -9 -6 -9 -4 -9 hhcurveto
          -15 -7 20 38 hvcurveto
          112 vlineto
          56 -26 21 -71 -65 -40 -23 -27 -20 9 -9 16 12 10 7 17 4 vhcurveto
          hintmask 10011100
          26 6 10 5 29 hhcurveto
          hintmask 10101100
          35 15 -17 -38 hvcurveto
          -19 vlineto
          endchar
        </CharString>
        <CharString name="ordmasculine">
          -243 507 27 220 26 hstem
          53 64 148 65 vstem
          190 780 rmoveto
          -74 -63 -57 -78 -80 63 -58 74 75 65 58 80 78 -65 57 -75 hvcurveto
          -26 vmoveto
          45 30 -45 -64 -67 -30 -44 -45 -44 -29 44 67 64 30 45 43 hvcurveto
          endchar
        </CharString>
        <CharString name="oslash">
          25 -40 -21 51 51 451 48 52 -71 callsubr
          endchar
        </CharString>
        <CharString name="oslashacute">
          25 -40 -21 51 51 451 48 263 -71 callsubr
          -172 383 rmoveto
          -101 callsubr
          endchar
        </CharString>
        <CharString name="otilde">
          -16 callgsubr
          112 -34 callgsubr
          -4 46 callsubr
          332 113 hintmask 11010111
          -103 callgsubr
          -144 168 -53 callgsubr
          hintmask 11100111
          -93 callsubr
          hintmask 11001011
          -78 callsubr
        </CharString>
        <CharString name="p">
          53 -250 35 205 49 453 48 hstemhm
          20 194 -98 98 303 113 hintmask 11101100
          210 536 rmoveto
          -192 -38 rlineto
          -34 58 callsubr
          50 callsubr
          -374 vlineto
          hintmask 11110100
          -96 -16 17 callgsubr
          -47 44 49 -19 61 hhcurveto
          149 113 111 163 160 -110 116 -151 -65 -48 -31 -51 -42 hvcurveto
          -4 hlineto
          30 -29 rmoveto
          40 26 43 23 48 hhcurveto
          96 64 -94 -138 -139 -63 -82 -91 -46 -45 25 42 -31 hvcurveto
          -21 27 -6 27 72 vvcurveto
          78 vlineto
          58 9 34 17 27 vhcurveto
          endchar
        </CharString>
        <CharString name="paragraph">
          5 -165 38 859 38 hstemhm
          272 75 52 74 -74 183 hintmask 11110000
          473 573 rmoveto
          72 3 30 8 21 vhcurveto
          hintmask 11101000
          28 12 21 8 65 hhcurveto
          38 -276 vlineto
          -175 -95 -73 -133 -121 75 -71 127 hvcurveto
          15 8 1 11 hhcurveto
          -310 vlineto
          -65 -5 -69 -5 -17 vhcurveto
          -28 -9 -30 -11 -70 hhcurveto
          -38 194 891 52 -891 183 38 vlineto
          -61 -26 10 26 -9 hvcurveto
          hintmask 11110000
          -8 21 -5 58 75 vvcurveto
          endchar
        </CharString>
        <CharString name="parenleft">
          -294 -173 -21 1025 -20 hstem
          47 100 vstem
          281 831 rmoveto
          -154 -154 -80 -174 -180 vvcurveto
          -184 83 -178 159 -155 vhcurveto
          31 28 rlineto
          -123 137 -50 149 220 vvcurveto
          181 34 105 131 177 vhcurveto
          endchar
        </CharString>
        <CharString name="parenright">
          -294 -173 -21 1025 -20 hstem
          185 100 vstem
          20 803 rmoveto
          131 -177 34 -105 -181 vvcurveto
          -220 -50 -149 -123 -137 vhcurveto
          31 -28 rlineto
          159 155 83 178 184 vvcurveto
          180 -80 174 -154 154 vhcurveto
          endchar
        </CharString>
        <CharString name="percent">
          45 1 callgsubr
          hintmask 0111011111000000
          636 -66 callsubr
          hintmask 1011101111000000
          -32 callsubr
          271 -183 -84 callsubr
          endchar
        </CharString>
        <CharString name="period">
          -361 -10 131 hstem
          67 131 vstem
          67 13 callsubr
          endchar
        </CharString>
        <CharString name="periodcentered">
          -341 209 131 hstem
          77 131 vstem
          77 274 rmoveto
          14 callgsubr
        </CharString>
        <CharString name="perthousand">
          290 1 callgsubr
          55 57 122 57 hintmask 0111011111110000
          636 -66 callsubr
          hintmask 1011101111110000
          -32 callsubr
          562 -183 -84 callsubr
          -291 291 -84 callsubr
          endchar
        </CharString>
        <CharString name="plus">
          -76 125 -21 209 50 209 -20 hstem
          249 52 vstem
          301 104 6 callgsubr
          endchar
        </CharString>
        <CharString name="plusminus">
          8 95 50 298 50 209 -20 hstem
          291 52 vstem
          343 234 6 callgsubr
          260 -89 40 callsubr
        </CharString>
        <CharString name="q">
          27 -250 35 205 48 453 49 hstem
          48 113 303 98 vstem
          464 232 rmoveto
          -52 -8 -41 -14 -28 vhcurveto
          -46 -23 -47 -27 -54 hhcurveto
          -96 -61 88 139 137 61 89 95 84 63 -72 -99 hvcurveto
          3 -417 rmoveto
          -91 -22 -25 -85 -2 vhcurveto
          -35 305 35 vlineto
          -95 3 -8 11 111 vvcurveto
          618 -25 vlineto
          -44 -69 rlineto
          49 -44 -72 32 -71 hhcurveto
          -143 -115 -125 -157 -158 104 -110 148 70 46 24 58 47 hvcurveto
          4 hlineto
          endchar
        </CharString>
        <CharString name="question">
          -227 -10 131 249 96 204 110 hstemhm
          84 131 -90 55 104 57 hintmask 11101100
          180 237 rmoveto
          133 vlineto
          102 59 59 101 131 -100 119 -110 -40 -22 -19 -37 -32 22 -22 31 hvcurveto
          22 29 11 24 hhcurveto
          48 39 -52 -64 -65 -44 -34 -86 hvcurveto
          -29 -229 hlineto
          hintmask 11110100
          -41 -182 rmoveto
          14 callgsubr
        </CharString>
        <CharString name="questiondown">
          -227 -10 110 204 96 133 -20 136 131 hstemhm
          58 57 69 131 -96 55 hintmask 11111010
          219 533 rmoveto
          -133 vlineto
          -102 -59 -59 -101 -131 100 -119 110 40 22 19 37 32 -22 22 -31 hvcurveto
          -22 -29 -11 -24 hhcurveto
          -48 -39 52 64 65 44 34 86 hvcurveto
          29 229 hlineto
          hintmask 11111100
          41 182 rmoveto
          36 -29 29 -36 -37 -29 -29 -36 -37 29 -29 37 36 29 29 37 vhcurveto
          endchar
        </CharString>
        <CharString name="quotedbl">
          -259 585 -21 266 -20 hstem
          60 94 58 94 vstem
          122 564 rmoveto
          -26 callsubr
          181 hmoveto
          -26 callsubr
          endchar
        </CharString>
        <CharString name="quotedblbase">
          -159 -144 52 callsubr
          69 67 callgsubr
          53 67 callgsubr
          hintmask 11101000
          89 -165 -59 callsubr
          hintmask 11011000
          -37 callgsubr
          215 -27 -59 callsubr
          hintmask 11100100
          -37 callgsubr
          endchar
        </CharString>
        <CharString name="quotedblleft">
          -177 44 callgsubr
          53 57 -57 139 hintmask 11100100
          367 830 -23 callgsubr
          hintmask 11011000
          6 callsubr
          -215 27 -23 callgsubr
          hintmask 11101000
          6 callsubr
          endchar
        </CharString>
        <CharString name="quotedblright">
          -180 580 52 callsubr
          67 67 callgsubr
          53 67 callgsubr
          hintmask 11101000
          87 559 -59 callsubr
          hintmask 11011000
          -37 callgsubr
          215 -27 -59 callsubr
          hintmask 11100100
          -37 callgsubr
          endchar
        </CharString>
        <CharString name="quoteleft">
          -369 44 callgsubr
          hintmask 11010000
          175 830 -23 callgsubr
          hintmask 11100000
          6 callsubr
          endchar
        </CharString>
        <CharString name="quoteright">
          -372 580 52 callsubr
          67 67 callgsubr
          hintmask 11100000
          87 559 -59 callsubr
          hintmask 11010000
          -37 callgsubr
          endchar
        </CharString>
        <CharString name="quotesinglbase">
          -351 -144 52 callsubr
          69 67 callgsubr
          hintmask 11100000
          89 -165 -59 callsubr
          hintmask 11010000
          -37 callgsubr
          endchar
        </CharString>
        <CharString name="quotesingle">
          -411 585 -21 266 -20 hstem
          60 94 vstem
          122 564 rmoveto
          -26 callsubr
          endchar
        </CharString>
        <CharString name="r">
          -149 0 55 callsubr
          hintmask 10110000
          -44 callgsubr
          hintmask 11010000
          24 13 -25 42 hhcurveto
          37 21 19 32 35 -26 22 -43 -68 -70 -55 -80 -36 hvcurveto
          -4 hlineto
          -14 124 -175 -38 rlineto
          -35 vlineto
          86 2 -5 -182 hvcurveto
          -117 vlineto
          -101 -9 -12 -77 -4 -61 callsubr
          endchar
        </CharString>
        <CharString name="racute">
          63 callsubr
          263 -20 hstemhm
          36 186 hintmask 10111000
          -44 callgsubr
          hintmask 11011000
          24 13 -25 42 hhcurveto
          37 21 19 32 35 -26 22 -43 -68 -70 -55 -80 -36 hvcurveto
          -4 hlineto
          -14 124 -175 -38 rlineto
          -35 vlineto
          86 2 -5 -182 hvcurveto
          -117 vlineto
          -101 -9 -12 -77 -4 -61 callsubr
          5 492 rmoveto
          -101 callsubr
          endchar
        </CharString>
        <CharString name="rcaron">
          63 callsubr
          240 -20 hstemhm
          36 186 hintmask 10111000
          -44 callgsubr
          hintmask 11011000
          24 13 -25 42 hhcurveto
          37 21 19 32 35 -26 22 -43 -68 -70 -55 -80 -36 hvcurveto
          -4 hlineto
          -14 124 -175 -38 rlineto
          -35 vlineto
          86 2 -5 -182 hvcurveto
          -117 vlineto
          -101 -9 -12 -77 -4 -61 callsubr
          93 492 rmoveto
          -80 callsubr
        </CharString>
        <CharString name="rcommaaccent">
          -149 -19 callgsubr
          54 55 callsubr
          -98 112 hintmask 11101100
          -44 callgsubr
          hintmask 11110100
          24 13 -25 42 hhcurveto
          37 21 19 32 35 -26 22 -43 -68 -70 -55 -80 -36 hvcurveto
          -4 hlineto
          -14 124 -175 -38 rlineto
          -35 vlineto
          86 2 -5 -182 hvcurveto
          -117 vlineto
          -101 -9 -12 -77 -4 -61 callsubr
          -81 -409 rmoveto
          hintmask 11110010
          -103 callsubr
        </CharString>
        <CharString name="rdotbelow">
          -149 -25 callsubr
          106 55 callsubr
          -98 113 hintmask 11011000
          -44 callgsubr
          hintmask 11101000
          24 13 -25 42 hhcurveto
          37 21 19 32 35 -26 22 -43 -68 -70 -55 -80 -36 hvcurveto
          -4 hlineto
          -14 124 -175 -38 rlineto
          -35 vlineto
          86 2 -5 -182 hvcurveto
          -117 vlineto
          -101 -9 -12 -77 -4 -61 callsubr
          -109 -327 3 callgsubr
        </CharString>
        <CharString name="registered">
          262 -10 48 145 22 -22 233 174 25 117 48 hstemhm
          57 48 194 70 140 83 191 48 hintmask 1101111110000000
          -50 callgsubr
          -191 121 rmoveto
          67 -61 41 -107 vhcurveto
          -175 -25 hlineto
          43 -2 7 -10 -51 vvcurveto
          -259 vlineto
          -51 -8 -10 -48 -2 vhcurveto
          -22 198 22 vlineto
          -64 -8 12 54 hvcurveto
          112 vlineto
          32 10 -4 -25 18 hvcurveto
          138 -171 rlineto
          108 22 hlineto
          -30 5 -18 10 -19 23 -124 150 rcurveline
          75 12 33 42 60 vvcurveto
          -223 69 rmoveto
          5 2 4 7 vhcurveto
          46 hlineto
          59 26 -22 -59 hvcurveto
          hintmask 1011111110000000
          -62 -33 -26 -67 vhcurveto
          -40 hlineto
          endchar
        </CharString>
        <CharString name="ring">
          -412 656 39 92 43 hstem
          20 39 92 43 vstem
          20 742 -24 callsubr
        </CharString>
        <CharString name="ring.cap">
          -456 830 31 67 32 hstem
          20 31 67 32 vstem
          20 895 -52 callsubr
        </CharString>
        <CharString name="s">
          -172 -10 56 callsubr
          169 89 hintmask 10101100
          -83 callgsubr
          hintmask 10011100
          -13 callgsubr
          hintmask 10101100
          -84 callgsubr
          hintmask 01101100
          -172 22 vlineto
          endchar
        </CharString>
        <CharString name="s_p">
          462 -250 35 205 41 -10 -21 499 41 6 -20 214 50 -12 -20 hstemhm
          67 82 84 50 35 89 119 98 303 113 hintmask 1101010111110000
          106 35 rmoveto
          -29 36 46 -16 52 hhcurveto
          101 66 59 92 60 -44 55 -116 68 hvcurveto
          -73 43 -25 28 42 vvcurveto
          36 28 26 49 32 24 -12 -35 27 vhcurveto
          -32 24 11 -9 25 hhcurveto
          31 19 16 26 26 -18 25 -31 16 hvcurveto
          -59 30 -28 28 48 vvcurveto
          66 51 48 67 64 45 -44 -20 58 vhcurveto
          -24 -61 -18 -64 -101 vvcurveto
          -547 vlineto
          -96 -15 -22 -81 vhcurveto
          -35 308 35 vlineto
          -99 -15 19 106 hvcurveto
          146 vlineto
          -45 42 48 -21 64 hhcurveto
          152 110 115 158 158 -110 119 -146 -65 -45 -23 -59 -50 hvcurveto
          -4 215 hlineto
          36 34 28 32 hvcurveto
          hintmask 1101001111110000
          26 -23 19 -30 -30 -19 -20 -45 -9 vhcurveto
          hintmask 1100110111110000
          12 -40 -51 65 -86 hhcurveto
          -93 -76 -74 -92 -30 8 -26 17 -22 hvcurveto
          -7 hlineto
          -115 -69 -61 -84 -71 26 -38 109 -70 hvcurveto
          98 -63 18 -24 -42 vvcurveto
          -37 -31 -25 -55 -71 -47 47 94 -25 vhcurveto
          -25 hlineto
          hintmask 1011010111110000
          -172 22 vlineto
          564 429 rmoveto
          41 26 45 22 46 hhcurveto
          96 64 -93 -139 -134 -60 -87 -92 -48 -43 23 44 -33 hvcurveto
          -22 29 -5 22 75 vvcurveto
          78 vlineto
          54 8 36 18 29 vhcurveto
          endchar
        </CharString>
        <CharString name="s_t">
          223 -10 41 -10 -21 467 37 -5 47 208 50 hstemhm
          67 82 151 52 -34 89 164 98 -38 38 -38 52 hintmask 1001111000100000
          683 25 callgsubr
          -28 4 -25 9 -24 vhcurveto
          5 -21 -24 2 -25 hhcurveto
          -111 -65 -71 -85 -64 28 -39 107 -65 hvcurveto
          hintmask 1010110110000000
          104 -63 12 -15 -37 vvcurveto
          -47 -34 -29 -53 -70 -46 46 95 -26 vhcurveto
          -25 hlineto
          hintmask 0110111010000000
          -172 22 vlineto
          20 35 rlineto
          hintmask 1001110110000000
          -29 36 46 -16 52 hhcurveto
          99 68 59 90 68 -32 40 -128 77 hvcurveto
          -79 48 -19 22 43 vvcurveto
          36 30 26 44 39 21 -12 -35 26 vhcurveto
          -33 25 12 -8 24 hhcurveto
          65 callsubr
          18 -8 16 -14 13 hvcurveto
          hintmask 1010111001000000
          -35 35 -10 32 46 vvcurveto
          86 57 55 88 82 52 -49 -78 -74 -47 -49 -73 vhcurveto
          -37 vlineto
          hintmask 1010111010000000
          60 -355 hlineto
          -16 callsubr
        </CharString>
        <CharString name="sacute">
          -172 -10 41 -13 callsubr
          293 -85 callsubr
          109 651 rmoveto
          -101 callsubr
          endchar
        </CharString>
        <CharString name="scaron">
          -172 -10 41 -13 callsubr
          270 -85 callsubr
          182 651 rmoveto
          -80 callsubr
        </CharString>
        <CharString name="schwa">
          -52 -10 48 129 46 275 52 hstem
          48 109 255 113 vstem
          83 409 rmoveto
          55 50 47 24 55 hhcurveto
          107 70 -91 -139 -18 -1 -16 -3 -11 hvcurveto
          -329 hlineto
          -27 -4 -2 -18 -130 75 -73 128 161 113 117 164 160 -106 109 -156 -85 -68 -33 -70 -58 hvcurveto
          349 -270 rmoveto
          -85 -17 -46 -44 -71 hhcurveto
          -67 -43 40 61 24 6 4 54 hvcurveto
          endchar
        </CharString>
        <CharString name="scircumflex">
          -172 -10 41 -13 callsubr
          270 -85 callsubr
          92 780 -92 callsubr
        </CharString>
        <CharString name="sdotbelow">
          -172 -229 124 95 56 callsubr
          29 124 16 89 hintmask 11010111
          -83 callgsubr
          hintmask 11001111
          -13 callgsubr
          hintmask 11010111
          -84 callgsubr
          hintmask 10110111
          -172 22 vlineto
          92 -167 -104 callsubr
        </CharString>
        <CharString name="section">
          -60 -174 45 -45 247 552 205 -40 40 hstemhm
          60 77 -77 127 -96 74 183 121 -93 93 -54 79 -63 63 hintmask 1010100000100000
          213 292 rmoveto
          -48 28 -28 40 41 vvcurveto
          33 18 20 51 27 vhcurveto
          133 -79 rlineto
          59 -36 33 -45 -43 vvcurveto
          -29 -15 -21 -41 -32 vhcurveto
          -73 -84 rmoveto
          hintmask 1010010001000000
          84 -48 29 -33 -49 vvcurveto
          -70 -51 -41 -86 -70 -65 26 29 vhcurveto
          23 44 20 42 vvcurveto
          hintmask 0110100001000000
          34 -29 28 -35 -38 -25 -33 -50 -95 89 -69 124 130 91 77 111 59 -27 53 -50 41 vhcurveto
          61 45 26 43 59 vvcurveto
          82 -51 64 -123 72 vhcurveto
          -60 35 rlineto
          hintmask 1001001010000000
          -77 44 -28 34 49 vvcurveto
          61 42 35 72 55 42 -20 -26 vhcurveto
          hintmask 1010001100000000
          -21 -28 -6 -36 vvcurveto
          -33 24 -23 35 38 24 28 42 78 -80 57 -109 -115 -74 -65 -103 -60 25 -55 46 -38 vhcurveto
          -64 -26 -35 -52 -70 vvcurveto
          -85 49 -58 131 -73 vhcurveto
          endchar
        </CharString>
        <CharString name="semicolon">
          -315 -154 -21 175 121 195 131 hstemhm
          89 67 callgsubr
          hintmask 11110000
          89 381 -76 callgsubr
          5 -556 12 callgsubr
          hintmask 11101000
          40 callgsubr
        </CharString>
        <CharString name="servicemark">
          171 462 20 -3 -21 86 -20 226 20 4 -20 26 -20 hstemhm
          89 43 109 49 64 29 246 47 hintmask 1011001111000000
          514 544 rmoveto
          -92 -4 callsubr
          9 52 hvcurveto
          177 4 vlineto
          hintmask 0111001111000000
          26 callsubr
          hintmask 1011001111000000
          17 callsubr
          51 6 10 34 vhcurveto
          20 -100 vlineto
          -98 -226 rlineto
          -436 -72 rmoveto
          10 hlineto
          11 20 rlineto
          -20 23 23 -8 32 hhcurveto
          66 43 36 55 43 -21 21 -81 38 hvcurveto
          -42 19 -14 14 25 vvcurveto
          25 18 15 30 33 23 -20 -40 14 vhcurveto
          17 hlineto
          hintmask 1010101111000000
          -5 79 rlineto
          -9 hlineto
          -11 -18 rlineto
          hintmask 1010011111000000
          17 -22 -19 7 -22 hhcurveto
          -53 -37 -36 -50 -42 21 -23 66 -28 hvcurveto
          52 -22 13 -16 -26 vvcurveto
          -31 -22 -17 -38 -46 -35 28 45 -7 vhcurveto
          -18 hlineto
          endchar
        </CharString>
        <CharString name="seven">
          -124 11 -21 560 -20 141 99 60 -20 hstem
          281 410 rmoveto
          -165 -318 -10 -27 -34 vvcurveto
          -19 19 -22 24 34 25 27 119 45 vhcurveto
          93 246 28 69 133 299 rrcurveto
          20 -293 vlineto
          -61 -15 6 23 9 2 16 2 6 hvcurveto
          -40 hlineto
          -70 -280 rlineto
          38 hlineto
          15 39 rlineto
          74 28 14 8 104 hhcurveto
          186 hlineto
          endchar
        </CharString>
        <CharString name="seveneighths">
          48 33 callsubr
          424 40 24 -20 hstemhm
          384 22 callgsubr
          hintmask 01111110
          633 -66 callsubr
          398 30 callsubr
          hintmask 10111110
          -96 callgsubr
          hintmask 10111101
          -79 callsubr
          -273 450 -69 callsubr
        </CharString>
        <CharString name="seveninferior">
          -388 11 -21 272 40 24 -20 hstem
          131 158 -69 callsubr
        </CharString>
        <CharString name="sevensuperior">
          -388 479 -21 272 40 24 -20 hstem
          131 626 -69 callsubr
        </CharString>
        <CharString name="six">
          17 -10 45 424 49 118 154 -45 45 hstemhm
          61 125 275 125 hintmask 11011100
          586 259 rmoveto
          142 -102 107 -135 -67 -48 -28 -62 -43 vhcurveto
          -3 2 rlineto
          180 69 135 92 vhcurveto
          hintmask 11101100
          102 -32 -109 78 hhcurveto
          33 21 20 32 57 -77 45 -96 -174 -143 -200 -243 -204 107 -143 153 147 118 119 150 hvcurveto
          -400 73 rmoveto
          89 44 44 38 61 hhcurveto
          82 44 -71 -133 -150 -44 -70 -92 -91 -48 84 164 hvcurveto
          endchar
        </CharString>
        <CharString name="sixinferior">
          -334 -10 11 callgsubr
          98 -53 callsubr
        </CharString>
        <CharString name="sixsuperior">
          -334 464 11 callgsubr
          572 -53 callsubr
        </CharString>
        <CharString name="slash">
          -166 50 callgsubr
          431 770 rmoveto
          -49 hlineto
          -353 -770 rlineto
          58 hlineto
          endchar
        </CharString>
        <CharString name="space">
          -339 endchar
        </CharString>
        <CharString name="sterling">
          54 -11 56 -56 100 -78 -21 119 56 205 61 188 161 -48 48 hstemhm
          39 64 69 103 -20 86 hintmask 1001101110000000
          235 83 rmoveto
          -25 -21 -28 -13 -33 hhcurveto
          -31 -19 10 22 20 18 12 26 26 29 -10 -16 33 hvcurveto
          53 451 rmoveto
          -8 30 -5 35 22 vvcurveto
          68 47 43 75 vhcurveto
          hintmask 1001110110000000
          121 -36 -113 73 hhcurveto
          28 16 16 30 66 -82 49 -110 -143 -92 -82 -132 -38 7 -43 16 -54 hvcurveto
          -120 -61 139 hlineto
          hintmask 0101110101000000
          24 -64 17 -72 -40 vvcurveto
          -16 -2 -29 -4 -15 vhcurveto
          21 -36 -37 10 -33 hhcurveto
          -60 -44 -39 -55 -50 37 -32 58 57 63 30 40 26 hvcurveto
          hintmask 0011110110000000
          -55 107 46 -14 55 hhcurveto
          88 58 49 115 hvcurveto
          -10 4 rlineto
          hintmask 0101110101000000
          -48 -37 -46 -21 -65 hhcurveto
          -49 -73 10 12 -47 hvcurveto
          23 43 11 50 66 vvcurveto
          36 -3 24 -11 40 vhcurveto
          204 61 -217 hlineto
          endchar
        </CharString>
        <CharString name="t">
          -248 -10 34 callgsubr
          hstem
          100 98 vstem
          100 -86 callsubr
          -21 -57 -37 -37 -71 -42 rrcurveto
          -37 vlineto
          endchar
        </CharString>
        <CharString name="tbar">
          -245 -10 49 289 53 86 47 126 -20 hstem
          103 98 vstem
          103 467 rmoveto
          -86 -60 -53 60 -216 vlineto
          -78 47 -44 88 68 47 27 49 19 vhcurveto
          -25 19 rlineto
          -33 -22 -22 -13 -33 hhcurveto
          -53 53 callgsubr
          165 121 53 -121 86 134 47 -134 126 -29 vlineto
          -21 -57 -37 -37 -71 -42 rrcurveto
          -37 vlineto
          endchar
        </CharString>
        <CharString name="tcaron">
          -248 -10 49 428 47 166 100 hstem
          100 98 105 122 vstem
          100 -86 callsubr
          -21 -57 -37 -37 -71 -42 rrcurveto
          -37 vlineto
          290 117 rmoveto
          -103 callsubr
        </CharString>
        <CharString name="tdotbelow">
          -248 -25 callsubr
          96 34 callgsubr
          hstemhm
          100 98 -25 124 hintmask 11111000
          100 -86 callsubr
          -21 -57 -37 -37 -71 -42 rrcurveto
          -37 vlineto
          hintmask 11110100
          133 -635 -104 callsubr
        </CharString>
        <CharString name="thorn">
          28 -250 35 204 48 456 47 290 -20 hstemhm
          -3 190 -96 96 306 113 hintmask 11110110
          91 -97 rmoveto
          hintmask 11111010
          -96 -14 17 callgsubr
          -43 38 55 -24 64 -48 callgsubr
          371 hlineto
          43 callgsubr
          hintmask 11110110
          8 -17 5 -45 -67 vvcurveto
          98 -306 -5 callgsubr
          endchar
        </CharString>
        <CharString name="three">
          -10 -10 47 213 44 76 51 -33 33 112 247 -43 43 hstemhm
          51 106 -77 100 232 120 -103 126 hintmask 1110101001000000
          429 214 rmoveto
          -114 -50 -63 -91 -78 -53 47 68 57 36 41 50 vhcurveto
          25 -7 -33 19 -37 hhcurveto
          -65 -50 -55 -72 -102 101 -75 138 154 111 93 124 101 -73 77 -100 26 hvcurveto
          6 vlineto
          hintmask 1110100110000000
          83 21 67 74 90 vvcurveto
          107 -94 71 -144 -128 -86 -56 -85 -60 44 -46 58 35 29 16 22 6 vhcurveto
          -43 -29 31 45 hvcurveto
          hintmask 1110011010000000
          56 44 34 70 80 38 -45 -95 -106 -48 -70 -71 vhcurveto
          7 -20 -24 4 -17 hhcurveto
          -27 -17 -10 -18 -20 19 -14 27 hvcurveto
          hintmask 1101101001000000
          20 27 8 10 20 hvcurveto
          81 47 -64 -110 hvcurveto
          endchar
        </CharString>
        <CharString name="threeeighths">
          48 33 callsubr
          158 1 callsubr
          -10 -20 hstemhm
          81 46 callgsubr
          103 22 callgsubr
          hintmask 0111010011011100
          640 -66 callsubr
          398 30 callsubr
          hintmask 1011011001011100
          -96 callgsubr
          hintmask 1011011001011010
          -79 callsubr
          -267 378 rmoveto
          -40 callsubr
          hintmask 1010111001011100
          -82 callsubr
          hintmask 1011011000111100
          -57 callsubr
          hintmask 1011010101011100
          -83 callsubr
          endchar
        </CharString>
        <CharString name="threeinferior">
          -346 -10 1 callsubr
          hstemhm
          35 46 callgsubr
          hintmask 10110101
          186 80 rmoveto
          -40 callsubr
          hintmask 01110101
          -82 callsubr
          hintmask 10110011
          -57 callsubr
          hintmask 10101101
          -83 callsubr
          endchar
        </CharString>
        <CharString name="threequarters">
          45 0 97 -25 25 367 1 callsubr
          -10 -20 hstemhm
          90 46 callgsubr
          177 49 -49 105 hintmask 1010100110110000
          639 -66 callsubr
          hintmask 0110110010110000
          265 72 rmoveto
          114 -10 hlineto
          -38 -6 -7 -36 -2 vhcurveto
          hintmask 1010110010110000
          -38 callgsubr
          hintmask 1010110010101000
          19 94 -19 hlineto
          hintmask 1010110010110000
          -27 callgsubr
          hintmask 0110110010110000
          -6 callsubr
          -233 327 rmoveto
          -40 callsubr
          hintmask 1001110010110000
          -82 callsubr
          hintmask 1010110001110000
          -57 callsubr
          hintmask 1010101010110000
          -83 callsubr
          endchar
        </CharString>
        <CharString name="threesuperior">
          -347 464 1 callsubr
          hstemhm
          35 46 callgsubr
          hintmask 10110101
          186 554 rmoveto
          -40 callsubr
          hintmask 01110101
          -82 callsubr
          hintmask 10110011
          -57 callsubr
          hintmask 10101101
          -83 callsubr
          endchar
        </CharString>
        <CharString name="tilde">
          -245 652 -34 callgsubr
          -4 -20 hstemhm
          hintmask 01010000
          54 660 -53 callgsubr
          hintmask 10010000
          -93 callsubr
          hintmask 00100000
          -78 callsubr
        </CharString>
        <CharString name="tilde.cap">
          -245 838 37 callgsubr
          hintmask 01000000
          54 846 -53 callgsubr
          hintmask 10000000
          -93 callsubr
          hintmask 00100000
          -78 callsubr
        </CharString>
        <CharString name="trademark">
          260 462 20 -3 -21 86 -20 224 22 hstemhm
          73 181 -57 57 -57 178 68 29 246 47 hintmask 1011001110000000
          375 770 rmoveto
          hintmask 1011100110000000
          -302 -76 20 hlineto
          43 2 13 11 50 hhcurveto
          hintmask 1011010110000000
          30 9 -7 -10 hvcurveto
          -200 vlineto
          -38 -11 -11 -41 vhcurveto
          -20 161 20 vlineto
          -41 -11 10 39 hvcurveto
          200 vlineto
          10 9 7 29 48 9 -8 -46 5 vhcurveto
          hintmask 1011001110000000
          21 hlineto
          227 -150 rmoveto
          -91 -4 callsubr
          8 53 hvcurveto
          177 4 vlineto
          hintmask 0111100110000000
          26 callsubr
          hintmask 1011100110000000
          17 callsubr
          49 8 12 32 vhcurveto
          20 -100 vlineto
          -99 -226 rlineto
          endchar
        </CharString>
        <CharString name="two">
          -10 0 98 325 53 258 47 hstem
          59 97 271 120 vstem
          195 103 rmoveto
          194 144 158 152 165 vvcurveto
          127 -99 90 -141 -142 -106 -89 -119 -87 55 -63 74 41 31 21 32 6 vhcurveto
          -67 -43 46 72 82 56 58 79 83 53 -65 -103 -140 -72 -121 -305 -272 hvcurveto
          -33 465 vlineto
          38 213 rlineto
          -37 hlineto
          -94 -28 -29 -21 -64 hhcurveto
          -199 hlineto
          endchar
        </CharString>
        <CharString name="twoinferior">
          -341 0 36 callgsubr
          hstemhm
          38 43 104 53 hintmask 11011000
          97 43 -56 callgsubr
          hintmask 10111000
          -60 callgsubr
        </CharString>
        <CharString name="twosuperior">
          -341 468 36 callgsubr
          hstemhm
          38 43 104 53 hintmask 11011000
          97 511 -56 callgsubr
          hintmask 10111000
          -60 callgsubr
        </CharString>
        <CharString name="twothirds">
          50 27 callsubr
          36 callgsubr
          -10 -20 hstemhm
          87 43 104 53 95 46 callgsubr
          hintmask 0011101001111010
          642 -66 callsubr
          435 80 rmoveto
          hintmask 1001101100111010
          -40 callsubr
          hintmask 0101101100111010
          -82 callsubr
          hintmask 1001101100110110
          -57 callsubr
          hintmask 1001011100111010
          -83 callsubr
          -387 431 -56 callgsubr
          hintmask 1001101010111010
          -60 callgsubr
        </CharString>
        <CharString name="u">
          -51 callgsubr
          9 callsubr
          hintmask 01011100
          -104 callgsubr
          hintmask 00111100
          -43 callsubr
          hintmask 10011100
          -95 callgsubr
          endchar
        </CharString>
        <CharString name="uacute">
          -51 callgsubr
          293 -20 9 callsubr
          hintmask 01011110
          -104 callgsubr
          hintmask 00111110
          -43 callsubr
          hintmask 10011110
          -95 callgsubr
          -193 281 rmoveto
          -101 callsubr
          endchar
        </CharString>
        <CharString name="ubreve">
          -51 callgsubr
          136 69 -69 130 9 callsubr
          hintmask 01011011
          -104 callgsubr
          hintmask 00111011
          -43 callsubr
          hintmask 10010111
          -95 callgsubr
          -49 406 rmoveto
          hintmask 10011011
          8 callgsubr
          hintmask 10010111
          -68 callsubr
        </CharString>
        <CharString name="ucircumflex">
          -51 callgsubr
          270 -20 9 callsubr
          hintmask 01011110
          -104 callgsubr
          hintmask 00111110
          -43 callsubr
          hintmask 10011110
          -95 callgsubr
          -195 410 -92 callsubr
        </CharString>
        <CharString name="udieresis">
          -51 callgsubr
          141 116 hstemhm
          104 98 -30 47 callgsubr
          8 98 hintmask 0101110110000000
          -104 callgsubr
          hintmask 0011110110000000
          -43 callsubr
          hintmask 1001101110000000
          -95 callgsubr
          -291 339 rmoveto
          -85 callgsubr
          167 hmoveto
          -85 callgsubr
          endchar
        </CharString>
        <CharString name="udotbelow">
          44 -25 callsubr
          96 46 -46 60 480 -20 hstemhm
          104 98 27 124 110 98 hintmask 10111110
          -104 callgsubr
          11 -120 165 12 rlineto
          hintmask 11011110
          -95 callgsubr
          -234 -538 -104 callsubr
        </CharString>
        <CharString name="ugrave">
          -51 callgsubr
          293 -20 9 callsubr
          hintmask 01011110
          -104 callgsubr
          hintmask 00111110
          -43 callsubr
          hintmask 10011110
          -95 callgsubr
          -50 281 -82 callgsubr
        </CharString>
        <CharString name="uhungarumlaut">
          -51 callgsubr
          141 152 9 callsubr
          hintmask 01011110
          -104 callgsubr
          hintmask 00111110
          -43 callsubr
          hintmask 10011110
          -95 callgsubr
          -276 281 -64 callgsubr
        </CharString>
        <CharString name="umacron">
          -51 callgsubr
          192 50 9 callsubr
          hintmask 01011110
          -104 callgsubr
          hintmask 00111110
          -43 callsubr
          hintmask 10011110
          -95 callgsubr
          -15 332 -41 callsubr
        </CharString>
        <CharString name="underscore">
          96 -143 68 hstem
          646 -143 rmoveto
          68 -570 -68 vlineto
          endchar
        </CharString>
        <CharString name="uni00A0">
          -339 endchar
        </CharString>
        <CharString name="uni00AD">
          18 callsubr
        </CharString>
        <CharString name="uni015E">
          19 -22 callsubr
          63 50 688 51 hstemhm
          90 94 14 241 -82 82 43 109 hintmask 1011110110000000
          73 11 rmoveto
          23 hlineto
          28 49 52 -42 48 -21 60 -5 rlinecurve
          -44 -102 -64 callsubr
          hintmask 0111111010000000
          -73 callsubr
          23 63 rlineto
          150 7 103 90 129 vvcurveto
          105 -56 55 -198 89 vhcurveto
          -114 51 -39 38 63 vvcurveto
          67 52 44 81 85 62 -53 -109 32 vhcurveto
          37 hlineto
          -11 199 rlineto
          -23 hlineto
          -26 -45 rlineto
          41 -52 -49 18 -58 hhcurveto
          -131 -93 -88 -124 -103 51 -55 166 -73 hvcurveto
          135 -59 40 -39 -68 vvcurveto
          -79 -62 -51 -98 -120 -88 73 121 -19 vhcurveto
          -37 hlineto
          endchar
        </CharString>
        <CharString name="uni015F">
          -172 -22 callsubr
          63 40 -13 callsubr
          hstemhm
          67 82 -32 241 -82 82 -40 89 hintmask 1011010101000000
          106 35 rmoveto
          27 -22 33 -14 37 -6 -44 -103 rcurveline
          -64 callsubr
          hintmask 0111010010000000
          -73 callsubr
          23 63 rlineto
          hintmask 1011010100100000
          89 6 61 56 89 vvcurveto
          76 -45 34 -115 72 vhcurveto
          -68 42 -30 21 44 vvcurveto
          43 30 25 45 51 32 -32 -81 29 vhcurveto
          26 hlineto
          hintmask 1011001101000000
          -13 callgsubr
          hintmask 1011010100100000
          -84 callgsubr
          hintmask 1010110101000000
          -172 22 vlineto
          endchar
        </CharString>
        <CharString name="uni0162">
          177 -22 callsubr
          72 38 541 191 -43 43 hstemhm
          21 37 222 241 -179 119 -22 82 224 36 hintmask 1011101100100000
          -22 callgsubr
          hintmask 1011011010100000
          142 4 78 6 104 hhcurveto
          85 13 -8 -23 hvcurveto
          -535 vlineto
          -86 -17 -33 -113 -4 vhcurveto
          -38 158 vlineto
          -48 -110 3 -5 rlineto
          1 10 15 1 10 hhcurveto
          hintmask 1011101001100000
          51 28 -19 -35 -30 -21 -20 -29 -22 -11 9 28 -12 hvcurveto
          hintmask 0111101100100000
          -73 callsubr
          26 72 rlineto
          167 38 hlineto
          hintmask 1011011010100000
          -113 4 -16 33 86 vvcurveto
          535 vlineto
          23 14 8 99 vhcurveto
          hintmask 1011101100100000
          -31 callsubr
          endchar
        </CharString>
</ttFont>
